G04 MADE WITH FRITZING*
G04 WWW.FRITZING.ORG*
G04 DOUBLE SIDED*
G04 HOLES PLATED*
G04 CONTOUR ON CENTER OF CONTOUR VECTOR*
%ASAXBY*%
%FSLAX23Y23*%
%MOIN*%
%OFA0B0*%
%SFA1.0B1.0*%
%ADD10C,0.033622*%
%ADD11C,0.293464*%
%ADD12C,0.076929*%
%ADD13C,0.088740*%
%ADD14C,0.135984*%
%LNMASK0*%
G90*
G70*
G54D10*
X2265Y2966D03*
X2327Y2966D03*
X1677Y2966D03*
X1615Y2966D03*
G54D11*
X202Y2741D03*
X3740Y2741D03*
G54D12*
X1065Y1404D03*
X1065Y1504D03*
X1065Y1604D03*
X1065Y1704D03*
X1065Y1804D03*
X1065Y1904D03*
X1065Y2004D03*
X1065Y2104D03*
X2890Y1404D03*
X2890Y1504D03*
X2890Y1604D03*
X2890Y1704D03*
X2890Y1804D03*
X2890Y1904D03*
X2890Y2004D03*
X2890Y2104D03*
G54D13*
X3528Y2829D03*
X3253Y2829D03*
G54D10*
X3465Y2741D03*
X3315Y2741D03*
G54D13*
X3702Y304D03*
X252Y304D03*
G54D14*
X1215Y2856D03*
X2715Y2856D03*
G54D12*
X2515Y2854D03*
X2415Y2864D03*
X2315Y2854D03*
X2215Y2864D03*
X2115Y2854D03*
X2015Y2864D03*
X1915Y2854D03*
X1815Y2864D03*
X1715Y2854D03*
X1615Y2864D03*
X1515Y2854D03*
X1415Y2864D03*
G04 End of Mask0*
M02*