G04 MADE WITH FRITZING*
G04 WWW.FRITZING.ORG*
G04 DOUBLE SIDED*
G04 HOLES PLATED*
G04 CONTOUR ON CENTER OF CONTOUR VECTOR*
%ASAXBY*%
%FSLAX23Y23*%
%MOIN*%
%OFA0B0*%
%SFA1.0B1.0*%
%ADD10C,0.033622*%
%ADD11C,0.293464*%
%ADD12C,0.045433*%
%ADD13C,0.076929*%
%ADD14C,0.088740*%
%ADD15C,0.135984*%
%ADD16R,0.037559X0.069055*%
%ADD17R,0.049370X0.033622*%
%ADD18R,0.049370X0.041496*%
%ADD19R,0.071024X0.061181*%
%ADD20R,0.057244X0.053307*%
%ADD21R,0.112362X0.112362*%
%ADD22C,0.010000*%
%LNMASK1*%
G90*
G70*
G54D10*
X2265Y2966D03*
X2327Y2966D03*
X1677Y2966D03*
X1615Y2966D03*
G54D11*
X202Y2741D03*
X3740Y2741D03*
G54D12*
X507Y2823D03*
X625Y2823D03*
X507Y2823D03*
X625Y2823D03*
G54D13*
X1065Y1404D03*
X1065Y1504D03*
X1065Y1604D03*
X1065Y1704D03*
X1065Y1804D03*
X1065Y1904D03*
X1065Y2004D03*
X1065Y2104D03*
X2890Y1404D03*
X2890Y1504D03*
X2890Y1604D03*
X2890Y1704D03*
X2890Y1804D03*
X2890Y1904D03*
X2890Y2004D03*
X2890Y2104D03*
G54D14*
X3528Y2829D03*
X3253Y2829D03*
G54D10*
X3465Y2741D03*
X3315Y2741D03*
G54D14*
X3702Y304D03*
X252Y304D03*
G54D15*
X1215Y2856D03*
X2715Y2856D03*
G54D13*
X2515Y2854D03*
X2415Y2864D03*
X2315Y2854D03*
X2215Y2864D03*
X2115Y2854D03*
X2015Y2864D03*
X1915Y2854D03*
X1815Y2864D03*
X1715Y2854D03*
X1615Y2864D03*
X1515Y2854D03*
X1415Y2864D03*
G54D16*
X477Y2754D03*
X536Y2754D03*
X654Y2754D03*
G54D17*
X422Y2862D03*
G54D18*
X422Y2779D03*
G54D17*
X710Y2862D03*
G54D18*
X710Y2779D03*
G54D19*
X3878Y2393D03*
X3565Y2393D03*
X3878Y2216D03*
X3565Y2216D03*
X452Y2064D03*
X765Y2064D03*
X452Y2241D03*
X765Y2241D03*
X252Y1814D03*
X565Y1814D03*
X252Y1991D03*
X565Y1991D03*
X52Y2064D03*
X365Y2064D03*
X52Y2241D03*
X365Y2241D03*
X3515Y2093D03*
X3202Y2093D03*
X3515Y1916D03*
X3202Y1916D03*
X252Y2314D03*
X565Y2314D03*
X252Y2491D03*
X565Y2491D03*
G54D20*
X2185Y1904D03*
X2252Y1904D03*
X2185Y2004D03*
X2252Y2004D03*
G54D21*
X1853Y1874D03*
G54D22*
G36*
X1898Y1957D02*
X1898Y1988D01*
X1909Y1988D01*
X1909Y1957D01*
X1898Y1957D01*
G37*
D02*
G36*
X1937Y1819D02*
X1937Y1831D01*
X1968Y1831D01*
X1968Y1819D01*
X1937Y1819D01*
G37*
D02*
G36*
X1799Y1760D02*
X1799Y1792D01*
X1810Y1792D01*
X1810Y1760D01*
X1799Y1760D01*
G37*
D02*
G36*
X1878Y1957D02*
X1878Y1988D01*
X1889Y1988D01*
X1889Y1957D01*
X1878Y1957D01*
G37*
D02*
G36*
X1878Y1760D02*
X1878Y1792D01*
X1889Y1792D01*
X1889Y1760D01*
X1878Y1760D01*
G37*
D02*
G36*
X1858Y1957D02*
X1858Y1988D01*
X1869Y1988D01*
X1869Y1957D01*
X1858Y1957D01*
G37*
D02*
G36*
X1937Y1898D02*
X1937Y1909D01*
X1968Y1909D01*
X1968Y1898D01*
X1937Y1898D01*
G37*
D02*
G36*
X1838Y1957D02*
X1838Y1988D01*
X1850Y1988D01*
X1850Y1957D01*
X1838Y1957D01*
G37*
D02*
G36*
X1838Y1760D02*
X1838Y1792D01*
X1850Y1792D01*
X1850Y1760D01*
X1838Y1760D01*
G37*
D02*
G36*
X1819Y1957D02*
X1819Y1988D01*
X1830Y1988D01*
X1830Y1957D01*
X1819Y1957D01*
G37*
D02*
G36*
X1917Y1760D02*
X1917Y1792D01*
X1928Y1792D01*
X1928Y1760D01*
X1917Y1760D01*
G37*
D02*
G36*
X1799Y1957D02*
X1799Y1988D01*
X1810Y1988D01*
X1810Y1957D01*
X1799Y1957D01*
G37*
D02*
G36*
X1937Y1859D02*
X1937Y1870D01*
X1968Y1870D01*
X1968Y1859D01*
X1937Y1859D01*
G37*
D02*
G36*
X1779Y1957D02*
X1779Y1988D01*
X1791Y1988D01*
X1791Y1957D01*
X1779Y1957D01*
G37*
D02*
G36*
X1937Y1938D02*
X1937Y1949D01*
X1968Y1949D01*
X1968Y1938D01*
X1937Y1938D01*
G37*
D02*
G36*
X1740Y1938D02*
X1740Y1949D01*
X1771Y1949D01*
X1771Y1938D01*
X1740Y1938D01*
G37*
D02*
G36*
X1819Y1760D02*
X1819Y1792D01*
X1830Y1792D01*
X1830Y1760D01*
X1819Y1760D01*
G37*
D02*
G36*
X1740Y1918D02*
X1740Y1929D01*
X1771Y1929D01*
X1771Y1918D01*
X1740Y1918D01*
G37*
D02*
G36*
X1858Y1760D02*
X1858Y1792D01*
X1869Y1792D01*
X1869Y1760D01*
X1858Y1760D01*
G37*
D02*
G36*
X1740Y1898D02*
X1740Y1909D01*
X1771Y1909D01*
X1771Y1898D01*
X1740Y1898D01*
G37*
D02*
G36*
X1898Y1760D02*
X1898Y1792D01*
X1909Y1792D01*
X1909Y1760D01*
X1898Y1760D01*
G37*
D02*
G36*
X1740Y1878D02*
X1740Y1890D01*
X1771Y1890D01*
X1771Y1878D01*
X1740Y1878D01*
G37*
D02*
G36*
X1937Y1800D02*
X1937Y1811D01*
X1968Y1811D01*
X1968Y1800D01*
X1937Y1800D01*
G37*
D02*
G36*
X1740Y1859D02*
X1740Y1870D01*
X1771Y1870D01*
X1771Y1859D01*
X1740Y1859D01*
G37*
D02*
G36*
X1937Y1839D02*
X1937Y1850D01*
X1968Y1850D01*
X1968Y1839D01*
X1937Y1839D01*
G37*
D02*
G36*
X1740Y1839D02*
X1740Y1850D01*
X1771Y1850D01*
X1771Y1839D01*
X1740Y1839D01*
G37*
D02*
G36*
X1937Y1878D02*
X1937Y1890D01*
X1968Y1890D01*
X1968Y1878D01*
X1937Y1878D01*
G37*
D02*
G36*
X1740Y1819D02*
X1740Y1831D01*
X1771Y1831D01*
X1771Y1819D01*
X1740Y1819D01*
G37*
D02*
G36*
X1937Y1918D02*
X1937Y1929D01*
X1968Y1929D01*
X1968Y1918D01*
X1937Y1918D01*
G37*
D02*
G36*
X1740Y1800D02*
X1740Y1811D01*
X1771Y1811D01*
X1771Y1800D01*
X1740Y1800D01*
G37*
D02*
G36*
X1779Y1760D02*
X1779Y1792D01*
X1791Y1792D01*
X1791Y1760D01*
X1779Y1760D01*
G37*
D02*
G36*
X1917Y1957D02*
X1917Y1988D01*
X1928Y1988D01*
X1928Y1957D01*
X1917Y1957D01*
G37*
D02*
G36*
X3434Y2676D02*
X3434Y2731D01*
X3447Y2731D01*
X3447Y2676D01*
X3434Y2676D01*
G37*
D02*
G36*
X3331Y2676D02*
X3331Y2731D01*
X3345Y2731D01*
X3345Y2676D01*
X3331Y2676D01*
G37*
D02*
G36*
X3408Y2676D02*
X3408Y2731D01*
X3422Y2731D01*
X3422Y2676D01*
X3408Y2676D01*
G37*
D02*
G36*
X3382Y2676D02*
X3382Y2731D01*
X3396Y2731D01*
X3396Y2676D01*
X3382Y2676D01*
G37*
D02*
G36*
X3357Y2676D02*
X3357Y2731D01*
X3371Y2731D01*
X3371Y2676D01*
X3357Y2676D01*
G37*
D02*
G36*
X3511Y2771D02*
X3511Y2845D01*
X3582Y2845D01*
X3582Y2771D01*
X3511Y2771D01*
G37*
D02*
G36*
X3196Y2771D02*
X3196Y2845D01*
X3267Y2845D01*
X3267Y2771D01*
X3196Y2771D01*
G37*
D02*
G04 End of Mask1*
M02*