; NON-PLATED HOLES START AT T1
; THROUGH (PLATED) HOLES START AT T100
M48
INCH
T1C0.035433
T2C0.023622
T100C0.047244
T101C0.039370
T102C0.086614
T103C0.015748
T104C0.035433
T105C0.204724
%
T1
X005068Y028226
X006249Y028226
T2
X022648Y029662
X034648Y027412
X033148Y027412
X016773Y029662
X016148Y029662
X023273Y029662
T100
X037023Y003037
X002523Y003037
T101
X035279Y028287
X032529Y028287
T102
X012148Y028562
X027148Y028562
T103
X026398Y021037
X027148Y020037
X033023Y026287
X012648Y021037
X012648Y019537
X018440Y018726
T104
X019148Y028537
X010648Y019037
X028898Y021037
X028898Y014037
X010648Y020037
X014148Y028637
X028898Y020037
X016148Y028637
X010648Y014037
X022148Y028637
X025148Y028537
X010648Y017037
X018148Y028637
X028898Y019037
X028898Y016037
X021148Y028537
X010648Y021037
X010648Y016037
X010648Y015037
X017148Y028537
X028898Y015037
X020148Y028637
X024148Y028637
X015148Y028537
X023148Y028537
X028898Y018037
X010648Y018037
X028898Y017037
T105
X037398Y027412
X002023Y027412
T00
M30
