G04 MADE WITH FRITZING*
G04 WWW.FRITZING.ORG*
G04 DOUBLE SIDED*
G04 HOLES PLATED*
G04 CONTOUR ON CENTER OF CONTOUR VECTOR*
%ASAXBY*%
%FSLAX23Y23*%
%MOIN*%
%OFA0B0*%
%SFA1.0B1.0*%
%ADD10C,0.008*%
%LNCONTOUR*%
G90*
G70*
G54D10*
X1721Y3247D02*
X1722Y3247D01*
X1723Y3247D01*
X1724Y3247D01*
X1725Y3247D01*
X1726Y3247D01*
X1727Y3247D01*
X1728Y3247D01*
X1729Y3247D01*
X1730Y3247D01*
X1731Y3247D01*
X1732Y3247D01*
X1733Y3247D01*
X1734Y3247D01*
X1735Y3247D01*
X1736Y3247D01*
X1737Y3247D01*
X1738Y3247D01*
X1739Y3247D01*
X1740Y3247D01*
X1741Y3247D01*
X1742Y3247D01*
X1743Y3247D01*
X1744Y3247D01*
X1745Y3247D01*
X1746Y3247D01*
X1747Y3247D01*
X1748Y3247D01*
X1749Y3247D01*
X1750Y3247D01*
X1751Y3247D01*
X1752Y3247D01*
X1753Y3247D01*
X1754Y3247D01*
X1755Y3247D01*
X1756Y3247D01*
X1757Y3247D01*
X1758Y3247D01*
X1759Y3247D01*
X1760Y3247D01*
X1761Y3247D01*
X1762Y3247D01*
X1763Y3247D01*
X1764Y3247D01*
X1765Y3247D01*
X1766Y3247D01*
X1767Y3247D01*
X1768Y3247D01*
X1769Y3247D01*
X1770Y3247D01*
X1771Y3247D01*
X1772Y3247D01*
X1773Y3247D01*
X1774Y3247D01*
X1775Y3247D01*
X1776Y3247D01*
X1777Y3247D01*
X1778Y3247D01*
X1779Y3247D01*
X1780Y3247D01*
X1781Y3247D01*
X1782Y3247D01*
X1783Y3247D01*
X1784Y3247D01*
X1785Y3247D01*
X1786Y3247D01*
X1787Y3247D01*
X1788Y3247D01*
X1789Y3247D01*
X1790Y3247D01*
X1791Y3247D01*
X1792Y3247D01*
X1793Y3247D01*
X1794Y3247D01*
X1795Y3247D01*
X1796Y3247D01*
X1797Y3247D01*
X1798Y3247D01*
X1799Y3247D01*
X1800Y3247D01*
X1801Y3247D01*
X1802Y3247D01*
X1803Y3247D01*
X1804Y3247D01*
X1805Y3247D01*
X1806Y3247D01*
X1807Y3247D01*
X1808Y3247D01*
X1809Y3247D01*
X1810Y3247D01*
X1811Y3247D01*
X1812Y3247D01*
X1813Y3247D01*
X1814Y3247D01*
X1815Y3247D01*
X1816Y3247D01*
X1817Y3247D01*
X1818Y3247D01*
X1819Y3247D01*
X1820Y3247D01*
X1821Y3247D01*
X1822Y3247D01*
X1823Y3247D01*
X1824Y3247D01*
X1825Y3247D01*
X1826Y3247D01*
X1827Y3247D01*
X1828Y3247D01*
X1829Y3247D01*
X1830Y3247D01*
X1831Y3247D01*
X1832Y3247D01*
X1833Y3247D01*
X1834Y3247D01*
X1835Y3247D01*
X1836Y3247D01*
X1837Y3247D01*
X1838Y3247D01*
X1839Y3247D01*
X1840Y3247D01*
X1841Y3247D01*
X1842Y3247D01*
X1843Y3247D01*
X1844Y3247D01*
X1845Y3247D01*
X1846Y3247D01*
X1847Y3247D01*
X1848Y3247D01*
X1849Y3247D01*
X1850Y3247D01*
X1851Y3247D01*
X1852Y3247D01*
X1853Y3247D01*
X1854Y3247D01*
X1855Y3247D01*
X1856Y3247D01*
X1857Y3247D01*
X1858Y3247D01*
X1859Y3247D01*
X1860Y3247D01*
X1861Y3247D01*
X1862Y3247D01*
X1863Y3247D01*
X1864Y3247D01*
X1865Y3247D01*
X1866Y3247D01*
X1867Y3247D01*
X1868Y3247D01*
X1869Y3247D01*
X1870Y3247D01*
X1871Y3247D01*
X1872Y3247D01*
X1873Y3247D01*
X1874Y3247D01*
X1875Y3247D01*
X1876Y3247D01*
X1877Y3247D01*
X1878Y3247D01*
X1879Y3247D01*
X1880Y3247D01*
X1881Y3247D01*
X1882Y3247D01*
X1883Y3247D01*
X1884Y3247D01*
X1885Y3247D01*
X1886Y3247D01*
X1887Y3247D01*
X1888Y3247D01*
X1889Y3247D01*
X1890Y3247D01*
X1891Y3247D01*
X1892Y3247D01*
X1893Y3247D01*
X1894Y3247D01*
X1895Y3247D01*
X1896Y3247D01*
X1897Y3247D01*
X1898Y3247D01*
X1899Y3247D01*
X1900Y3247D01*
X1901Y3247D01*
X1902Y3247D01*
X1903Y3247D01*
X1904Y3247D01*
X1905Y3247D01*
X1906Y3247D01*
X1907Y3247D01*
X1908Y3247D01*
X1909Y3247D01*
X1910Y3247D01*
X1911Y3247D01*
X1912Y3247D01*
X1913Y3247D01*
X1914Y3247D01*
X1915Y3247D01*
X1916Y3247D01*
X1917Y3247D01*
X1918Y3247D01*
X1919Y3247D01*
X1920Y3247D01*
X1921Y3247D01*
X1922Y3247D01*
X1923Y3247D01*
X1924Y3247D01*
X1925Y3247D01*
X1926Y3247D01*
X1927Y3247D01*
X1928Y3247D01*
X1929Y3247D01*
X1930Y3247D01*
X1931Y3247D01*
X1932Y3247D01*
X1933Y3247D01*
X1934Y3247D01*
X1935Y3247D01*
X1936Y3247D01*
X1937Y3247D01*
X1938Y3247D01*
X1939Y3247D01*
X1940Y3247D01*
X1941Y3247D01*
X1942Y3247D01*
X1943Y3247D01*
X1944Y3247D01*
X1945Y3247D01*
X1946Y3247D01*
X1947Y3247D01*
X1948Y3247D01*
X1949Y3247D01*
X1950Y3247D01*
X1951Y3247D01*
X1952Y3247D01*
X1953Y3247D01*
X1954Y3247D01*
X1955Y3247D01*
X1956Y3247D01*
X1957Y3247D01*
X1958Y3247D01*
X1959Y3247D01*
X1960Y3247D01*
X1961Y3247D01*
X1962Y3247D01*
X1963Y3247D01*
X1964Y3247D01*
X1965Y3247D01*
X1966Y3247D01*
X1967Y3247D01*
X1968Y3247D01*
X1969Y3247D01*
X1970Y3247D01*
X1971Y3247D01*
X1972Y3247D01*
X1973Y3247D01*
X1974Y3247D01*
X1975Y3247D01*
X1976Y3247D01*
X1977Y3247D01*
X1978Y3247D01*
X1979Y3247D01*
X1980Y3247D01*
X1981Y3247D01*
X1982Y3247D01*
X1983Y3247D01*
X1984Y3247D01*
X1985Y3247D01*
X1986Y3247D01*
X1987Y3247D01*
X1988Y3247D01*
X1989Y3247D01*
X1990Y3247D01*
X1991Y3247D01*
X1992Y3247D01*
X1993Y3247D01*
X1994Y3247D01*
X1995Y3247D01*
X1996Y3247D01*
X1997Y3247D01*
X1998Y3247D01*
X1999Y3247D01*
X2000Y3247D01*
X2001Y3247D01*
X2002Y3247D01*
X2003Y3247D01*
X2004Y3247D01*
X2005Y3247D01*
X2006Y3247D01*
X2007Y3247D01*
X2008Y3247D01*
X2009Y3247D01*
X2010Y3247D01*
X2011Y3247D01*
X2012Y3247D01*
X2013Y3247D01*
X2014Y3247D01*
X2015Y3247D01*
X2016Y3247D01*
X2017Y3247D01*
X2018Y3247D01*
X2019Y3247D01*
X2020Y3247D01*
X2021Y3247D01*
X2022Y3247D01*
X2023Y3247D01*
X2024Y3247D01*
X2025Y3247D01*
X2026Y3247D01*
X2027Y3247D01*
X2028Y3247D01*
X2029Y3247D01*
X2030Y3247D01*
X2031Y3247D01*
X2032Y3247D01*
X2033Y3247D01*
X2034Y3247D01*
X2035Y3247D01*
X2036Y3247D01*
X2037Y3247D01*
X2038Y3247D01*
X2039Y3247D01*
X2040Y3247D01*
X2041Y3247D01*
X2042Y3247D01*
X2043Y3247D01*
X2044Y3247D01*
X2045Y3247D01*
X2046Y3247D01*
X2047Y3247D01*
X2048Y3247D01*
X2049Y3247D01*
X2050Y3247D01*
X2051Y3247D01*
X2052Y3247D01*
X2053Y3247D01*
X2054Y3247D01*
X2055Y3247D01*
X2056Y3247D01*
X2057Y3247D01*
X2058Y3247D01*
X2059Y3247D01*
X2060Y3247D01*
X2061Y3247D01*
X2062Y3247D01*
X2063Y3247D01*
X2064Y3247D01*
X2065Y3247D01*
X2066Y3247D01*
X2067Y3247D01*
X2068Y3247D01*
X2069Y3247D01*
X2070Y3247D01*
X2071Y3247D01*
X2072Y3247D01*
X2073Y3247D01*
X2074Y3247D01*
X2075Y3247D01*
X2076Y3247D01*
X2077Y3247D01*
X2078Y3247D01*
X2079Y3247D01*
X2080Y3247D01*
X2081Y3247D01*
X2082Y3247D01*
X2083Y3247D01*
X2084Y3247D01*
X2085Y3247D01*
X2086Y3247D01*
X2087Y3247D01*
X2088Y3247D01*
X2089Y3247D01*
X2090Y3247D01*
X2091Y3247D01*
X2092Y3247D01*
X2093Y3247D01*
X2094Y3247D01*
X2095Y3247D01*
X2096Y3247D01*
X2097Y3247D01*
X2098Y3247D01*
X2099Y3247D01*
X2100Y3247D01*
X2101Y3247D01*
X2102Y3247D01*
X2103Y3247D01*
X2104Y3247D01*
X2105Y3247D01*
X2106Y3247D01*
X2107Y3247D01*
X2108Y3247D01*
X2109Y3247D01*
X2110Y3247D01*
X2111Y3247D01*
X2112Y3247D01*
X2113Y3247D01*
X2114Y3247D01*
X2115Y3247D01*
X2116Y3247D01*
X2117Y3247D01*
X2118Y3247D01*
X2119Y3247D01*
X2120Y3247D01*
X2121Y3247D01*
X2122Y3247D01*
X2123Y3247D01*
X2124Y3247D01*
X2125Y3247D01*
X2126Y3247D01*
X2127Y3247D01*
X2128Y3247D01*
X2129Y3247D01*
X2130Y3247D01*
X2131Y3247D01*
X2132Y3247D01*
X2133Y3247D01*
X2134Y3247D01*
X2135Y3247D01*
X2136Y3247D01*
X2137Y3247D01*
X2138Y3247D01*
X2139Y3247D01*
X2140Y3247D01*
X2141Y3247D01*
X2142Y3247D01*
X2143Y3247D01*
X2144Y3247D01*
X2145Y3247D01*
X2146Y3247D01*
X2147Y3247D01*
X2148Y3247D01*
X2149Y3247D01*
X2150Y3247D01*
X2151Y3247D01*
X2152Y3247D01*
X2153Y3247D01*
X2154Y3247D01*
X2155Y3247D01*
X2156Y3247D01*
X2157Y3247D01*
X2158Y3247D01*
X2159Y3247D01*
X2160Y3247D01*
X2161Y3247D01*
X2162Y3247D01*
X2163Y3247D01*
X2164Y3247D01*
X2165Y3247D01*
X2166Y3247D01*
X2167Y3247D01*
X2168Y3247D01*
X2169Y3247D01*
X2170Y3247D01*
X2171Y3247D01*
X2172Y3247D01*
X2173Y3247D01*
X2174Y3247D01*
X2175Y3247D01*
X2176Y3247D01*
X2177Y3247D01*
X2178Y3247D01*
X2179Y3247D01*
X2180Y3247D01*
X2181Y3247D01*
X2182Y3247D01*
X2183Y3247D01*
X2184Y3247D01*
X2185Y3247D01*
X2186Y3247D01*
X2187Y3247D01*
X2188Y3247D01*
X2189Y3247D01*
X2190Y3247D01*
X2191Y3247D01*
X2192Y3247D01*
X2193Y3247D01*
X2194Y3247D01*
X2195Y3247D01*
X2196Y3247D01*
X2197Y3247D01*
X2198Y3247D01*
X2199Y3247D01*
X2200Y3247D01*
X2201Y3247D01*
X2202Y3247D01*
X2203Y3247D01*
X2204Y3247D01*
X2205Y3247D01*
X2206Y3247D01*
X2207Y3247D01*
X2208Y3247D01*
X2209Y3247D01*
X2210Y3247D01*
X2211Y3247D01*
X2212Y3247D01*
X2213Y3247D01*
X2214Y3247D01*
X2215Y3247D01*
X2216Y3247D01*
X2217Y3246D01*
X2218Y3246D01*
X2219Y3246D01*
X2220Y3246D01*
X2221Y3246D01*
X2222Y3246D01*
X2223Y3246D01*
X2224Y3246D01*
X2225Y3246D01*
X2226Y3246D01*
X2227Y3245D01*
X2228Y3245D01*
X2229Y3245D01*
X2230Y3245D01*
X2231Y3245D01*
X2232Y3245D01*
X2233Y3244D01*
X2234Y3244D01*
X2235Y3244D01*
X2236Y3244D01*
X2237Y3244D01*
X2238Y3243D01*
X2239Y3243D01*
X2240Y3243D01*
X2241Y3243D01*
X2242Y3243D01*
X2243Y3242D01*
X2244Y3242D01*
X2245Y3242D01*
X2246Y3242D01*
X2247Y3241D01*
X2248Y3241D01*
X2249Y3241D01*
X2250Y3240D01*
X2251Y3240D01*
X2252Y3240D01*
X2253Y3239D01*
X2254Y3239D01*
X2255Y3239D01*
X2256Y3238D01*
X2257Y3238D01*
X2258Y3238D01*
X2259Y3237D01*
X2260Y3237D01*
X2261Y3237D01*
X2262Y3236D01*
X2263Y3236D01*
X2264Y3236D01*
X2265Y3235D01*
X2266Y3235D01*
X2267Y3234D01*
X2268Y3234D01*
X2269Y3233D01*
X2270Y3233D01*
X2271Y3232D01*
X2272Y3232D01*
X2273Y3232D01*
X2274Y3231D01*
X2275Y3231D01*
X2276Y3230D01*
X2277Y3230D01*
X2278Y3229D01*
X2279Y3229D01*
X2280Y3228D01*
X2281Y3227D01*
X2282Y3227D01*
X2283Y3226D01*
X2284Y3226D01*
X2285Y3225D01*
X2286Y3225D01*
X2287Y3224D01*
X2288Y3223D01*
X2289Y3223D01*
X2290Y3222D01*
X2291Y3221D01*
X2292Y3221D01*
X2293Y3220D01*
X2294Y3219D01*
X2295Y3219D01*
X2296Y3218D01*
X2297Y3217D01*
X2298Y3217D01*
X2299Y3216D01*
X2300Y3215D01*
X2301Y3214D01*
X2302Y3214D01*
X2303Y3213D01*
X2304Y3212D01*
X2305Y3211D01*
X2306Y3210D01*
X2307Y3210D01*
X2308Y3209D01*
X2309Y3208D01*
X2310Y3207D01*
X2311Y3206D01*
X2312Y3205D01*
X2313Y3204D01*
X2314Y3203D01*
X2315Y3202D01*
X2316Y3201D01*
X2317Y3200D01*
X2318Y3199D01*
X2319Y3198D01*
X2320Y3197D01*
X2321Y3196D01*
X2322Y3195D01*
X2323Y3194D01*
X2324Y3193D01*
X2325Y3192D01*
X2325Y3191D01*
X2326Y3190D01*
X2327Y3189D01*
X2328Y3188D01*
X2329Y3187D01*
X2329Y3186D01*
X2330Y3185D01*
X2331Y3184D01*
X2332Y3183D01*
X2332Y3182D01*
X2333Y3181D01*
X2334Y3180D01*
X2334Y3179D01*
X2335Y3178D01*
X2336Y3177D01*
X2336Y3176D01*
X2337Y3175D01*
X2338Y3174D01*
X2338Y3173D01*
X2339Y3172D01*
X2340Y3171D01*
X2340Y3170D01*
X2341Y3169D01*
X2341Y3168D01*
X2342Y3167D01*
X2342Y3166D01*
X2343Y3165D01*
X2344Y3164D01*
X2344Y3163D01*
X2345Y3162D01*
X2345Y3161D01*
X2346Y3160D01*
X2346Y3159D01*
X2347Y3158D01*
X2347Y3156D01*
X2348Y3155D01*
X2348Y3154D01*
X2349Y3153D01*
X2349Y3152D01*
X2350Y3151D01*
X2350Y3150D01*
X2351Y3149D01*
X2351Y3147D01*
X2352Y3146D01*
X2352Y3144D01*
X2353Y3143D01*
X2353Y3141D01*
X2354Y3140D01*
X2354Y3138D01*
X2355Y3137D01*
X2355Y3135D01*
X2356Y3134D01*
X2356Y3131D01*
X2357Y3130D01*
X2357Y3127D01*
X2358Y3126D01*
X2358Y3123D01*
X2359Y3122D01*
X2359Y3117D01*
X2360Y3116D01*
X2360Y3110D01*
X2361Y3109D01*
X2361Y3098D01*
X2362Y3097D01*
X2362Y3070D01*
X2361Y3069D01*
X2361Y2953D01*
X2362Y2952D01*
X2363Y2952D01*
X2364Y2952D01*
X2365Y2952D01*
X2366Y2952D01*
X2367Y2952D01*
X2368Y2952D01*
X2369Y2952D01*
X2370Y2952D01*
X2371Y2952D01*
X2372Y2952D01*
X2373Y2952D01*
X2374Y2952D01*
X2375Y2952D01*
X2376Y2952D01*
X2377Y2952D01*
X2378Y2952D01*
X2379Y2952D01*
X2380Y2952D01*
X2381Y2952D01*
X2382Y2952D01*
X2383Y2952D01*
X2384Y2952D01*
X2385Y2952D01*
X2386Y2952D01*
X2387Y2952D01*
X2388Y2952D01*
X2389Y2952D01*
X2390Y2952D01*
X2391Y2952D01*
X2392Y2952D01*
X2393Y2952D01*
X2394Y2952D01*
X2395Y2952D01*
X2396Y2952D01*
X2397Y2952D01*
X2398Y2952D01*
X2399Y2952D01*
X2400Y2952D01*
X2401Y2952D01*
X2402Y2952D01*
X2403Y2952D01*
X2404Y2952D01*
X2405Y2952D01*
X2406Y2952D01*
X2407Y2952D01*
X2408Y2952D01*
X2409Y2952D01*
X2410Y2952D01*
X2411Y2952D01*
X2412Y2952D01*
X2413Y2952D01*
X2414Y2952D01*
X2415Y2952D01*
X2416Y2952D01*
X2417Y2952D01*
X2418Y2952D01*
X2419Y2952D01*
X2420Y2952D01*
X2421Y2952D01*
X2422Y2952D01*
X2423Y2952D01*
X2424Y2952D01*
X2425Y2952D01*
X2426Y2952D01*
X2427Y2952D01*
X2428Y2952D01*
X2429Y2952D01*
X2430Y2952D01*
X2431Y2952D01*
X2432Y2952D01*
X2433Y2952D01*
X2434Y2952D01*
X2435Y2952D01*
X2436Y2952D01*
X2437Y2952D01*
X2438Y2952D01*
X2439Y2952D01*
X2440Y2952D01*
X2441Y2952D01*
X2442Y2952D01*
X2443Y2952D01*
X2444Y2952D01*
X2445Y2952D01*
X2446Y2952D01*
X2447Y2952D01*
X2448Y2952D01*
X2449Y2952D01*
X2450Y2952D01*
X2451Y2952D01*
X2452Y2952D01*
X2453Y2952D01*
X2454Y2952D01*
X2455Y2952D01*
X2456Y2952D01*
X2457Y2952D01*
X2458Y2952D01*
X2459Y2952D01*
X2460Y2952D01*
X2461Y2952D01*
X2462Y2952D01*
X2463Y2952D01*
X2464Y2952D01*
X2465Y2952D01*
X2466Y2952D01*
X2467Y2952D01*
X2468Y2952D01*
X2469Y2952D01*
X2470Y2952D01*
X2471Y2952D01*
X2472Y2952D01*
X2473Y2952D01*
X2474Y2952D01*
X2475Y2952D01*
X2476Y2952D01*
X2477Y2952D01*
X2478Y2952D01*
X2479Y2952D01*
X2480Y2952D01*
X2481Y2952D01*
X2482Y2952D01*
X2483Y2952D01*
X2484Y2952D01*
X2485Y2952D01*
X2486Y2952D01*
X2487Y2952D01*
X2488Y2952D01*
X2489Y2952D01*
X2490Y2952D01*
X2491Y2952D01*
X2492Y2952D01*
X2493Y2952D01*
X2494Y2952D01*
X2495Y2952D01*
X2496Y2952D01*
X2497Y2952D01*
X2498Y2952D01*
X2499Y2952D01*
X2500Y2952D01*
X2501Y2952D01*
X2502Y2952D01*
X2503Y2952D01*
X2504Y2952D01*
X2505Y2952D01*
X2506Y2952D01*
X2507Y2952D01*
X2508Y2952D01*
X2509Y2952D01*
X2510Y2952D01*
X2511Y2952D01*
X2512Y2952D01*
X2513Y2952D01*
X2514Y2952D01*
X2515Y2952D01*
X2516Y2952D01*
X2517Y2952D01*
X2518Y2952D01*
X2519Y2952D01*
X2520Y2952D01*
X2521Y2952D01*
X2522Y2952D01*
X2523Y2952D01*
X2524Y2952D01*
X2525Y2952D01*
X2526Y2952D01*
X2527Y2952D01*
X2528Y2952D01*
X2529Y2952D01*
X2530Y2952D01*
X2531Y2952D01*
X2532Y2952D01*
X2533Y2952D01*
X2534Y2952D01*
X2535Y2952D01*
X2536Y2952D01*
X2537Y2952D01*
X2538Y2952D01*
X2539Y2952D01*
X2540Y2952D01*
X2541Y2952D01*
X2542Y2952D01*
X2543Y2952D01*
X2544Y2952D01*
X2545Y2952D01*
X2546Y2952D01*
X2547Y2952D01*
X2548Y2952D01*
X2549Y2952D01*
X2550Y2952D01*
X2551Y2952D01*
X2552Y2952D01*
X2553Y2952D01*
X2554Y2952D01*
X2555Y2952D01*
X2556Y2952D01*
X2557Y2952D01*
X2558Y2952D01*
X2559Y2952D01*
X2560Y2952D01*
X2561Y2952D01*
X2562Y2952D01*
X2563Y2952D01*
X2564Y2952D01*
X2565Y2952D01*
X2566Y2952D01*
X2567Y2952D01*
X2568Y2952D01*
X2569Y2952D01*
X2570Y2952D01*
X2571Y2952D01*
X2572Y2952D01*
X2573Y2952D01*
X2574Y2952D01*
X2575Y2952D01*
X2576Y2952D01*
X2577Y2952D01*
X2578Y2952D01*
X2579Y2952D01*
X2580Y2952D01*
X2581Y2952D01*
X2582Y2952D01*
X2583Y2952D01*
X2584Y2952D01*
X2585Y2952D01*
X2586Y2952D01*
X2587Y2952D01*
X2588Y2952D01*
X2589Y2952D01*
X2590Y2952D01*
X2591Y2952D01*
X2592Y2952D01*
X2593Y2952D01*
X2594Y2952D01*
X2595Y2952D01*
X2596Y2952D01*
X2597Y2952D01*
X2598Y2952D01*
X2599Y2952D01*
X2600Y2952D01*
X2601Y2952D01*
X2602Y2952D01*
X2603Y2952D01*
X2604Y2952D01*
X2605Y2952D01*
X2606Y2952D01*
X2607Y2952D01*
X2608Y2952D01*
X2609Y2952D01*
X2610Y2952D01*
X2611Y2952D01*
X2612Y2952D01*
X2613Y2952D01*
X2614Y2952D01*
X2615Y2952D01*
X2616Y2952D01*
X2617Y2952D01*
X2618Y2952D01*
X2619Y2952D01*
X2620Y2952D01*
X2621Y2952D01*
X2622Y2952D01*
X2623Y2952D01*
X2624Y2952D01*
X2625Y2952D01*
X2626Y2952D01*
X2627Y2952D01*
X2628Y2952D01*
X2629Y2952D01*
X2630Y2952D01*
X2631Y2952D01*
X2632Y2952D01*
X2633Y2952D01*
X2634Y2952D01*
X2635Y2952D01*
X2636Y2952D01*
X2637Y2952D01*
X2638Y2952D01*
X2639Y2952D01*
X2640Y2952D01*
X2641Y2952D01*
X2642Y2952D01*
X2643Y2952D01*
X2644Y2952D01*
X2645Y2952D01*
X2646Y2952D01*
X2647Y2952D01*
X2648Y2952D01*
X2649Y2952D01*
X2650Y2952D01*
X2651Y2952D01*
X2652Y2952D01*
X2653Y2952D01*
X2654Y2952D01*
X2655Y2952D01*
X2656Y2952D01*
X2657Y2952D01*
X2658Y2952D01*
X2659Y2952D01*
X2660Y2952D01*
X2661Y2952D01*
X2662Y2952D01*
X2663Y2952D01*
X2664Y2952D01*
X2665Y2952D01*
X2666Y2952D01*
X2667Y2952D01*
X2668Y2952D01*
X2669Y2952D01*
X2670Y2952D01*
X2671Y2952D01*
X2672Y2952D01*
X2673Y2952D01*
X2674Y2952D01*
X2675Y2952D01*
X2676Y2952D01*
X2677Y2952D01*
X2678Y2952D01*
X2679Y2952D01*
X2680Y2952D01*
X2681Y2952D01*
X2682Y2952D01*
X2683Y2952D01*
X2684Y2952D01*
X2685Y2952D01*
X2686Y2952D01*
X2687Y2952D01*
X2688Y2952D01*
X2689Y2952D01*
X2690Y2952D01*
X2691Y2952D01*
X2692Y2952D01*
X2693Y2952D01*
X2694Y2952D01*
X2695Y2952D01*
X2696Y2952D01*
X2697Y2952D01*
X2698Y2952D01*
X2699Y2952D01*
X2700Y2952D01*
X2701Y2952D01*
X2702Y2952D01*
X2703Y2952D01*
X2704Y2952D01*
X2705Y2952D01*
X2706Y2952D01*
X2707Y2952D01*
X2708Y2952D01*
X2709Y2952D01*
X2710Y2952D01*
X2711Y2952D01*
X2712Y2952D01*
X2713Y2952D01*
X2714Y2952D01*
X2715Y2952D01*
X2716Y2952D01*
X2717Y2952D01*
X2718Y2952D01*
X2719Y2952D01*
X2720Y2952D01*
X2721Y2952D01*
X2722Y2952D01*
X2723Y2952D01*
X2724Y2952D01*
X2725Y2952D01*
X2726Y2952D01*
X2727Y2952D01*
X2728Y2952D01*
X2729Y2952D01*
X2730Y2952D01*
X2731Y2952D01*
X2732Y2952D01*
X2733Y2952D01*
X2734Y2952D01*
X2735Y2952D01*
X2736Y2952D01*
X2737Y2952D01*
X2738Y2952D01*
X2739Y2952D01*
X2740Y2952D01*
X2741Y2952D01*
X2742Y2952D01*
X2743Y2952D01*
X2744Y2952D01*
X2745Y2952D01*
X2746Y2952D01*
X2747Y2952D01*
X2748Y2952D01*
X2749Y2952D01*
X2750Y2952D01*
X2751Y2952D01*
X2752Y2952D01*
X2753Y2952D01*
X2754Y2952D01*
X2755Y2952D01*
X2756Y2952D01*
X2757Y2952D01*
X2758Y2952D01*
X2759Y2952D01*
X2760Y2952D01*
X2761Y2952D01*
X2762Y2952D01*
X2763Y2952D01*
X2764Y2952D01*
X2765Y2952D01*
X2766Y2952D01*
X2767Y2952D01*
X2768Y2952D01*
X2769Y2952D01*
X2770Y2952D01*
X2771Y2952D01*
X2772Y2952D01*
X2773Y2952D01*
X2774Y2952D01*
X2775Y2952D01*
X2776Y2952D01*
X2777Y2952D01*
X2778Y2952D01*
X2779Y2952D01*
X2780Y2952D01*
X2781Y2952D01*
X2782Y2952D01*
X2783Y2952D01*
X2784Y2952D01*
X2785Y2952D01*
X2786Y2952D01*
X2787Y2952D01*
X2788Y2952D01*
X2789Y2952D01*
X2790Y2952D01*
X2791Y2952D01*
X2792Y2952D01*
X2793Y2952D01*
X2794Y2952D01*
X2795Y2952D01*
X2796Y2952D01*
X2797Y2952D01*
X2798Y2952D01*
X2799Y2952D01*
X2800Y2952D01*
X2801Y2952D01*
X2802Y2952D01*
X2803Y2952D01*
X2804Y2952D01*
X2805Y2952D01*
X2806Y2952D01*
X2807Y2952D01*
X2808Y2952D01*
X2809Y2952D01*
X2810Y2952D01*
X2811Y2952D01*
X2812Y2952D01*
X2813Y2952D01*
X2814Y2952D01*
X2815Y2952D01*
X2816Y2952D01*
X2817Y2952D01*
X2818Y2952D01*
X2819Y2952D01*
X2820Y2952D01*
X2821Y2952D01*
X2822Y2952D01*
X2823Y2952D01*
X2824Y2952D01*
X2825Y2952D01*
X2826Y2952D01*
X2827Y2952D01*
X2828Y2952D01*
X2829Y2952D01*
X2830Y2952D01*
X2831Y2952D01*
X2832Y2952D01*
X2833Y2952D01*
X2834Y2952D01*
X2835Y2952D01*
X2836Y2952D01*
X2837Y2952D01*
X2838Y2952D01*
X2839Y2952D01*
X2840Y2952D01*
X2841Y2952D01*
X2842Y2952D01*
X2843Y2952D01*
X2844Y2952D01*
X2845Y2952D01*
X2846Y2952D01*
X2847Y2952D01*
X2848Y2952D01*
X2849Y2952D01*
X2850Y2952D01*
X2851Y2952D01*
X2852Y2952D01*
X2853Y2952D01*
X2854Y2952D01*
X2855Y2952D01*
X2856Y2952D01*
X2857Y2952D01*
X2858Y2952D01*
X2859Y2952D01*
X2860Y2952D01*
X2861Y2952D01*
X2862Y2952D01*
X2863Y2952D01*
X2864Y2952D01*
X2865Y2952D01*
X2866Y2952D01*
X2867Y2952D01*
X2868Y2952D01*
X2869Y2952D01*
X2870Y2952D01*
X2871Y2952D01*
X2872Y2952D01*
X2873Y2952D01*
X2874Y2952D01*
X2875Y2952D01*
X2876Y2952D01*
X2877Y2952D01*
X2878Y2952D01*
X2879Y2952D01*
X2880Y2952D01*
X2881Y2952D01*
X2882Y2952D01*
X2883Y2952D01*
X2884Y2952D01*
X2885Y2952D01*
X2886Y2952D01*
X2887Y2952D01*
X2888Y2952D01*
X2889Y2952D01*
X2890Y2952D01*
X2891Y2952D01*
X2892Y2952D01*
X2893Y2952D01*
X2894Y2952D01*
X2895Y2952D01*
X2896Y2952D01*
X2897Y2952D01*
X2898Y2952D01*
X2899Y2952D01*
X2900Y2952D01*
X2901Y2952D01*
X2902Y2952D01*
X2903Y2952D01*
X2904Y2952D01*
X2905Y2952D01*
X2906Y2952D01*
X2907Y2952D01*
X2908Y2952D01*
X2909Y2952D01*
X2910Y2952D01*
X2911Y2952D01*
X2912Y2952D01*
X2913Y2952D01*
X2914Y2952D01*
X2915Y2952D01*
X2916Y2952D01*
X2917Y2952D01*
X2918Y2952D01*
X2919Y2952D01*
X2920Y2952D01*
X2921Y2952D01*
X2922Y2952D01*
X2923Y2952D01*
X2924Y2952D01*
X2925Y2952D01*
X2926Y2952D01*
X2927Y2952D01*
X2928Y2952D01*
X2929Y2952D01*
X2930Y2952D01*
X2931Y2952D01*
X2932Y2952D01*
X2933Y2952D01*
X2934Y2952D01*
X2935Y2952D01*
X2936Y2952D01*
X2937Y2952D01*
X2938Y2952D01*
X2939Y2952D01*
X2940Y2952D01*
X2941Y2952D01*
X2942Y2952D01*
X2943Y2952D01*
X2944Y2952D01*
X2945Y2952D01*
X2946Y2952D01*
X2947Y2952D01*
X2948Y2952D01*
X2949Y2952D01*
X2950Y2952D01*
X2951Y2952D01*
X2952Y2952D01*
X2953Y2952D01*
X2954Y2952D01*
X2955Y2952D01*
X2956Y2952D01*
X2957Y2952D01*
X2958Y2952D01*
X2959Y2952D01*
X2960Y2952D01*
X2961Y2952D01*
X2962Y2952D01*
X2963Y2952D01*
X2964Y2952D01*
X2965Y2952D01*
X2966Y2952D01*
X2967Y2952D01*
X2968Y2952D01*
X2969Y2952D01*
X2970Y2952D01*
X2971Y2952D01*
X2972Y2952D01*
X2973Y2952D01*
X2974Y2952D01*
X2975Y2952D01*
X2976Y2952D01*
X2977Y2952D01*
X2978Y2952D01*
X2979Y2952D01*
X2980Y2952D01*
X2981Y2952D01*
X2982Y2952D01*
X2983Y2952D01*
X2984Y2952D01*
X2985Y2952D01*
X2986Y2952D01*
X2987Y2952D01*
X2988Y2952D01*
X2989Y2952D01*
X2990Y2952D01*
X2991Y2952D01*
X2992Y2952D01*
X2993Y2952D01*
X2994Y2952D01*
X2995Y2952D01*
X2996Y2952D01*
X2997Y2952D01*
X2998Y2952D01*
X2999Y2952D01*
X3000Y2952D01*
X3001Y2952D01*
X3002Y2952D01*
X3003Y2952D01*
X3004Y2952D01*
X3005Y2952D01*
X3006Y2952D01*
X3007Y2952D01*
X3008Y2952D01*
X3009Y2952D01*
X3010Y2952D01*
X3011Y2952D01*
X3012Y2952D01*
X3013Y2952D01*
X3014Y2952D01*
X3015Y2952D01*
X3016Y2952D01*
X3017Y2952D01*
X3018Y2952D01*
X3019Y2952D01*
X3020Y2952D01*
X3021Y2952D01*
X3022Y2952D01*
X3023Y2952D01*
X3024Y2952D01*
X3025Y2952D01*
X3026Y2952D01*
X3027Y2952D01*
X3028Y2952D01*
X3029Y2952D01*
X3030Y2952D01*
X3031Y2952D01*
X3032Y2952D01*
X3033Y2952D01*
X3034Y2952D01*
X3035Y2952D01*
X3036Y2952D01*
X3037Y2952D01*
X3038Y2952D01*
X3039Y2952D01*
X3040Y2952D01*
X3041Y2952D01*
X3042Y2952D01*
X3043Y2952D01*
X3044Y2952D01*
X3045Y2952D01*
X3046Y2952D01*
X3047Y2952D01*
X3048Y2952D01*
X3049Y2952D01*
X3050Y2952D01*
X3051Y2952D01*
X3052Y2952D01*
X3053Y2952D01*
X3054Y2952D01*
X3055Y2952D01*
X3056Y2952D01*
X3057Y2952D01*
X3058Y2952D01*
X3059Y2952D01*
X3060Y2952D01*
X3061Y2952D01*
X3062Y2952D01*
X3063Y2952D01*
X3064Y2952D01*
X3065Y2952D01*
X3066Y2952D01*
X3067Y2952D01*
X3068Y2952D01*
X3069Y2952D01*
X3070Y2952D01*
X3071Y2952D01*
X3072Y2952D01*
X3073Y2952D01*
X3074Y2952D01*
X3075Y2952D01*
X3076Y2952D01*
X3077Y2952D01*
X3078Y2952D01*
X3079Y2952D01*
X3080Y2952D01*
X3081Y2952D01*
X3082Y2952D01*
X3083Y2952D01*
X3084Y2952D01*
X3085Y2952D01*
X3086Y2952D01*
X3087Y2952D01*
X3088Y2952D01*
X3089Y2952D01*
X3090Y2952D01*
X3091Y2952D01*
X3092Y2952D01*
X3093Y2952D01*
X3094Y2952D01*
X3095Y2952D01*
X3096Y2952D01*
X3097Y2952D01*
X3098Y2952D01*
X3099Y2952D01*
X3100Y2952D01*
X3101Y2952D01*
X3102Y2952D01*
X3103Y2952D01*
X3104Y2952D01*
X3105Y2952D01*
X3106Y2952D01*
X3107Y2952D01*
X3108Y2952D01*
X3109Y2952D01*
X3110Y2952D01*
X3111Y2952D01*
X3112Y2952D01*
X3113Y2952D01*
X3114Y2952D01*
X3115Y2952D01*
X3116Y2952D01*
X3117Y2952D01*
X3118Y2952D01*
X3119Y2952D01*
X3120Y2952D01*
X3121Y2952D01*
X3122Y2952D01*
X3123Y2952D01*
X3124Y2952D01*
X3125Y2952D01*
X3126Y2952D01*
X3127Y2952D01*
X3128Y2952D01*
X3129Y2952D01*
X3130Y2952D01*
X3131Y2952D01*
X3132Y2952D01*
X3133Y2952D01*
X3134Y2952D01*
X3135Y2952D01*
X3136Y2952D01*
X3137Y2952D01*
X3138Y2952D01*
X3139Y2952D01*
X3140Y2952D01*
X3141Y2952D01*
X3142Y2952D01*
X3143Y2952D01*
X3144Y2952D01*
X3145Y2952D01*
X3146Y2952D01*
X3147Y2952D01*
X3148Y2952D01*
X3149Y2952D01*
X3150Y2952D01*
X3151Y2952D01*
X3152Y2952D01*
X3153Y2952D01*
X3154Y2952D01*
X3155Y2952D01*
X3156Y2952D01*
X3157Y2952D01*
X3158Y2952D01*
X3159Y2952D01*
X3160Y2952D01*
X3161Y2952D01*
X3162Y2952D01*
X3163Y2952D01*
X3164Y2952D01*
X3165Y2952D01*
X3166Y2952D01*
X3167Y2952D01*
X3168Y2952D01*
X3169Y2952D01*
X3170Y2952D01*
X3171Y2952D01*
X3172Y2952D01*
X3173Y2952D01*
X3174Y2952D01*
X3175Y2952D01*
X3176Y2952D01*
X3177Y2952D01*
X3178Y2952D01*
X3179Y2952D01*
X3180Y2952D01*
X3181Y2952D01*
X3182Y2952D01*
X3183Y2952D01*
X3184Y2952D01*
X3185Y2952D01*
X3186Y2952D01*
X3187Y2952D01*
X3188Y2952D01*
X3189Y2952D01*
X3190Y2952D01*
X3191Y2952D01*
X3192Y2952D01*
X3193Y2952D01*
X3194Y2952D01*
X3195Y2952D01*
X3196Y2952D01*
X3197Y2952D01*
X3198Y2952D01*
X3199Y2952D01*
X3200Y2952D01*
X3201Y2952D01*
X3202Y2952D01*
X3203Y2952D01*
X3204Y2952D01*
X3205Y2952D01*
X3206Y2952D01*
X3207Y2952D01*
X3208Y2952D01*
X3209Y2952D01*
X3210Y2952D01*
X3211Y2952D01*
X3212Y2952D01*
X3213Y2952D01*
X3214Y2952D01*
X3215Y2952D01*
X3216Y2952D01*
X3217Y2952D01*
X3218Y2952D01*
X3219Y2952D01*
X3220Y2952D01*
X3221Y2952D01*
X3222Y2952D01*
X3223Y2952D01*
X3224Y2952D01*
X3225Y2952D01*
X3226Y2952D01*
X3227Y2952D01*
X3228Y2952D01*
X3229Y2952D01*
X3230Y2952D01*
X3231Y2952D01*
X3232Y2952D01*
X3233Y2952D01*
X3234Y2952D01*
X3235Y2952D01*
X3236Y2952D01*
X3237Y2952D01*
X3238Y2952D01*
X3239Y2952D01*
X3240Y2952D01*
X3241Y2952D01*
X3242Y2952D01*
X3243Y2952D01*
X3244Y2952D01*
X3245Y2952D01*
X3246Y2952D01*
X3247Y2952D01*
X3248Y2952D01*
X3249Y2952D01*
X3250Y2952D01*
X3251Y2952D01*
X3252Y2952D01*
X3253Y2952D01*
X3254Y2952D01*
X3255Y2952D01*
X3256Y2952D01*
X3257Y2952D01*
X3258Y2952D01*
X3259Y2952D01*
X3260Y2952D01*
X3261Y2952D01*
X3262Y2952D01*
X3263Y2952D01*
X3264Y2952D01*
X3265Y2952D01*
X3266Y2952D01*
X3267Y2952D01*
X3268Y2952D01*
X3269Y2952D01*
X3270Y2952D01*
X3271Y2952D01*
X3272Y2952D01*
X3273Y2952D01*
X3274Y2952D01*
X3275Y2952D01*
X3276Y2952D01*
X3277Y2952D01*
X3278Y2952D01*
X3279Y2952D01*
X3280Y2952D01*
X3281Y2952D01*
X3282Y2952D01*
X3283Y2952D01*
X3284Y2952D01*
X3285Y2952D01*
X3286Y2952D01*
X3287Y2952D01*
X3288Y2952D01*
X3289Y2952D01*
X3290Y2952D01*
X3291Y2952D01*
X3292Y2952D01*
X3293Y2952D01*
X3294Y2952D01*
X3295Y2952D01*
X3296Y2952D01*
X3297Y2952D01*
X3298Y2952D01*
X3299Y2952D01*
X3300Y2952D01*
X3301Y2952D01*
X3302Y2952D01*
X3303Y2952D01*
X3304Y2952D01*
X3305Y2952D01*
X3306Y2952D01*
X3307Y2952D01*
X3308Y2952D01*
X3309Y2952D01*
X3310Y2952D01*
X3311Y2952D01*
X3312Y2952D01*
X3313Y2952D01*
X3314Y2952D01*
X3315Y2952D01*
X3316Y2952D01*
X3317Y2952D01*
X3318Y2952D01*
X3319Y2952D01*
X3320Y2952D01*
X3321Y2952D01*
X3322Y2952D01*
X3323Y2952D01*
X3324Y2952D01*
X3325Y2952D01*
X3326Y2952D01*
X3327Y2952D01*
X3328Y2952D01*
X3329Y2952D01*
X3330Y2952D01*
X3331Y2952D01*
X3332Y2952D01*
X3333Y2952D01*
X3334Y2952D01*
X3335Y2952D01*
X3336Y2952D01*
X3337Y2952D01*
X3338Y2952D01*
X3339Y2952D01*
X3340Y2952D01*
X3341Y2952D01*
X3342Y2952D01*
X3343Y2952D01*
X3344Y2952D01*
X3345Y2952D01*
X3346Y2952D01*
X3347Y2952D01*
X3348Y2952D01*
X3349Y2952D01*
X3350Y2952D01*
X3351Y2952D01*
X3352Y2952D01*
X3353Y2952D01*
X3354Y2952D01*
X3355Y2952D01*
X3356Y2952D01*
X3357Y2952D01*
X3358Y2952D01*
X3359Y2952D01*
X3360Y2952D01*
X3361Y2952D01*
X3362Y2952D01*
X3363Y2952D01*
X3364Y2952D01*
X3365Y2952D01*
X3366Y2952D01*
X3367Y2952D01*
X3368Y2952D01*
X3369Y2952D01*
X3370Y2952D01*
X3371Y2952D01*
X3372Y2952D01*
X3373Y2952D01*
X3374Y2952D01*
X3375Y2952D01*
X3376Y2952D01*
X3377Y2952D01*
X3378Y2952D01*
X3379Y2952D01*
X3380Y2952D01*
X3381Y2952D01*
X3382Y2952D01*
X3383Y2952D01*
X3384Y2952D01*
X3385Y2952D01*
X3386Y2952D01*
X3387Y2952D01*
X3388Y2952D01*
X3389Y2952D01*
X3390Y2952D01*
X3391Y2952D01*
X3392Y2952D01*
X3393Y2952D01*
X3394Y2952D01*
X3395Y2952D01*
X3396Y2952D01*
X3397Y2952D01*
X3398Y2952D01*
X3399Y2952D01*
X3400Y2952D01*
X3401Y2952D01*
X3402Y2952D01*
X3403Y2952D01*
X3404Y2952D01*
X3405Y2952D01*
X3406Y2952D01*
X3407Y2952D01*
X3408Y2952D01*
X3409Y2952D01*
X3410Y2952D01*
X3411Y2952D01*
X3412Y2952D01*
X3413Y2952D01*
X3414Y2952D01*
X3415Y2952D01*
X3416Y2952D01*
X3417Y2952D01*
X3418Y2952D01*
X3419Y2952D01*
X3420Y2952D01*
X3421Y2952D01*
X3422Y2952D01*
X3423Y2952D01*
X3424Y2952D01*
X3425Y2952D01*
X3426Y2952D01*
X3427Y2952D01*
X3428Y2952D01*
X3429Y2952D01*
X3430Y2952D01*
X3431Y2952D01*
X3432Y2952D01*
X3433Y2952D01*
X3434Y2952D01*
X3435Y2952D01*
X3436Y2952D01*
X3437Y2952D01*
X3438Y2952D01*
X3439Y2952D01*
X3440Y2952D01*
X3441Y2952D01*
X3442Y2952D01*
X3443Y2952D01*
X3444Y2952D01*
X3445Y2952D01*
X3446Y2952D01*
X3447Y2952D01*
X3448Y2952D01*
X3449Y2952D01*
X3450Y2952D01*
X3451Y2952D01*
X3452Y2952D01*
X3453Y2952D01*
X3454Y2952D01*
X3455Y2952D01*
X3456Y2952D01*
X3457Y2952D01*
X3458Y2952D01*
X3459Y2952D01*
X3460Y2952D01*
X3461Y2952D01*
X3462Y2952D01*
X3463Y2952D01*
X3464Y2952D01*
X3465Y2952D01*
X3466Y2952D01*
X3467Y2952D01*
X3468Y2952D01*
X3469Y2952D01*
X3470Y2952D01*
X3471Y2952D01*
X3472Y2952D01*
X3473Y2952D01*
X3474Y2952D01*
X3475Y2952D01*
X3476Y2952D01*
X3477Y2952D01*
X3478Y2952D01*
X3479Y2952D01*
X3480Y2952D01*
X3481Y2952D01*
X3482Y2952D01*
X3483Y2952D01*
X3484Y2952D01*
X3485Y2952D01*
X3486Y2952D01*
X3487Y2952D01*
X3488Y2952D01*
X3489Y2952D01*
X3490Y2952D01*
X3491Y2952D01*
X3492Y2952D01*
X3493Y2952D01*
X3494Y2952D01*
X3495Y2952D01*
X3496Y2952D01*
X3497Y2952D01*
X3498Y2952D01*
X3499Y2952D01*
X3500Y2952D01*
X3501Y2952D01*
X3502Y2952D01*
X3503Y2952D01*
X3504Y2952D01*
X3505Y2952D01*
X3506Y2952D01*
X3507Y2952D01*
X3508Y2952D01*
X3509Y2952D01*
X3510Y2952D01*
X3511Y2952D01*
X3512Y2952D01*
X3513Y2952D01*
X3514Y2952D01*
X3515Y2952D01*
X3516Y2952D01*
X3517Y2952D01*
X3518Y2952D01*
X3519Y2952D01*
X3520Y2952D01*
X3521Y2952D01*
X3522Y2952D01*
X3523Y2952D01*
X3524Y2952D01*
X3525Y2952D01*
X3526Y2952D01*
X3527Y2952D01*
X3528Y2952D01*
X3529Y2952D01*
X3530Y2952D01*
X3531Y2952D01*
X3532Y2952D01*
X3533Y2952D01*
X3534Y2952D01*
X3535Y2952D01*
X3536Y2952D01*
X3537Y2952D01*
X3538Y2952D01*
X3539Y2952D01*
X3540Y2952D01*
X3541Y2952D01*
X3542Y2952D01*
X3543Y2952D01*
X3544Y2952D01*
X3545Y2952D01*
X3546Y2952D01*
X3547Y2952D01*
X3548Y2952D01*
X3549Y2952D01*
X3550Y2952D01*
X3551Y2952D01*
X3552Y2952D01*
X3553Y2952D01*
X3554Y2952D01*
X3555Y2952D01*
X3556Y2952D01*
X3557Y2952D01*
X3558Y2952D01*
X3559Y2952D01*
X3560Y2952D01*
X3561Y2952D01*
X3562Y2952D01*
X3563Y2952D01*
X3564Y2952D01*
X3565Y2952D01*
X3566Y2952D01*
X3567Y2952D01*
X3568Y2952D01*
X3569Y2952D01*
X3570Y2952D01*
X3571Y2952D01*
X3572Y2952D01*
X3573Y2952D01*
X3574Y2952D01*
X3575Y2952D01*
X3576Y2952D01*
X3577Y2952D01*
X3578Y2952D01*
X3579Y2952D01*
X3580Y2952D01*
X3581Y2952D01*
X3582Y2952D01*
X3583Y2952D01*
X3584Y2952D01*
X3585Y2952D01*
X3586Y2952D01*
X3587Y2952D01*
X3588Y2952D01*
X3589Y2952D01*
X3590Y2952D01*
X3591Y2952D01*
X3592Y2952D01*
X3593Y2952D01*
X3594Y2952D01*
X3595Y2952D01*
X3596Y2952D01*
X3597Y2952D01*
X3598Y2952D01*
X3599Y2952D01*
X3600Y2952D01*
X3601Y2952D01*
X3602Y2952D01*
X3603Y2952D01*
X3604Y2952D01*
X3605Y2952D01*
X3606Y2952D01*
X3607Y2952D01*
X3608Y2952D01*
X3609Y2952D01*
X3610Y2952D01*
X3611Y2952D01*
X3612Y2952D01*
X3613Y2952D01*
X3614Y2952D01*
X3615Y2952D01*
X3616Y2952D01*
X3617Y2952D01*
X3618Y2952D01*
X3619Y2952D01*
X3620Y2952D01*
X3621Y2952D01*
X3622Y2952D01*
X3623Y2952D01*
X3624Y2952D01*
X3625Y2952D01*
X3626Y2952D01*
X3627Y2952D01*
X3628Y2952D01*
X3629Y2952D01*
X3630Y2952D01*
X3631Y2952D01*
X3632Y2952D01*
X3633Y2952D01*
X3634Y2952D01*
X3635Y2952D01*
X3636Y2952D01*
X3637Y2952D01*
X3638Y2952D01*
X3639Y2952D01*
X3640Y2952D01*
X3641Y2952D01*
X3642Y2952D01*
X3643Y2952D01*
X3644Y2952D01*
X3645Y2952D01*
X3646Y2952D01*
X3647Y2952D01*
X3648Y2952D01*
X3649Y2952D01*
X3650Y2952D01*
X3651Y2952D01*
X3652Y2952D01*
X3653Y2952D01*
X3654Y2952D01*
X3655Y2952D01*
X3656Y2952D01*
X3657Y2952D01*
X3658Y2952D01*
X3659Y2952D01*
X3660Y2952D01*
X3661Y2952D01*
X3662Y2952D01*
X3663Y2952D01*
X3664Y2952D01*
X3665Y2952D01*
X3666Y2952D01*
X3667Y2952D01*
X3668Y2952D01*
X3669Y2952D01*
X3670Y2952D01*
X3671Y2952D01*
X3672Y2952D01*
X3673Y2952D01*
X3674Y2952D01*
X3675Y2952D01*
X3676Y2952D01*
X3677Y2952D01*
X3678Y2952D01*
X3679Y2952D01*
X3680Y2952D01*
X3681Y2952D01*
X3682Y2952D01*
X3683Y2952D01*
X3684Y2952D01*
X3685Y2952D01*
X3686Y2952D01*
X3687Y2952D01*
X3688Y2952D01*
X3689Y2952D01*
X3690Y2952D01*
X3691Y2952D01*
X3692Y2952D01*
X3693Y2952D01*
X3694Y2952D01*
X3695Y2952D01*
X3696Y2952D01*
X3697Y2952D01*
X3698Y2952D01*
X3699Y2952D01*
X3700Y2952D01*
X3701Y2952D01*
X3702Y2952D01*
X3703Y2952D01*
X3704Y2952D01*
X3705Y2952D01*
X3706Y2952D01*
X3707Y2952D01*
X3708Y2952D01*
X3709Y2952D01*
X3710Y2952D01*
X3711Y2952D01*
X3712Y2952D01*
X3713Y2952D01*
X3714Y2952D01*
X3715Y2952D01*
X3716Y2952D01*
X3717Y2952D01*
X3718Y2952D01*
X3719Y2952D01*
X3720Y2952D01*
X3721Y2952D01*
X3722Y2952D01*
X3723Y2952D01*
X3724Y2952D01*
X3725Y2952D01*
X3726Y2952D01*
X3727Y2952D01*
X3728Y2952D01*
X3729Y2952D01*
X3730Y2952D01*
X3731Y2952D01*
X3732Y2952D01*
X3733Y2952D01*
X3734Y2952D01*
X3735Y2952D01*
X3736Y2952D01*
X3737Y2952D01*
X3738Y2952D01*
X3739Y2952D01*
X3740Y2952D01*
X3741Y2952D01*
X3742Y2952D01*
X3743Y2952D01*
X3744Y2952D01*
X3745Y2952D01*
X3746Y2952D01*
X3747Y2952D01*
X3748Y2952D01*
X3749Y2952D01*
X3750Y2952D01*
X3751Y2952D01*
X3752Y2952D01*
X3753Y2952D01*
X3754Y2952D01*
X3755Y2952D01*
X3756Y2952D01*
X3757Y2952D01*
X3758Y2952D01*
X3759Y2952D01*
X3760Y2951D01*
X3761Y2951D01*
X3762Y2951D01*
X3763Y2951D01*
X3764Y2951D01*
X3765Y2951D01*
X3766Y2951D01*
X3767Y2951D01*
X3768Y2950D01*
X3769Y2950D01*
X3770Y2950D01*
X3771Y2950D01*
X3772Y2950D01*
X3773Y2950D01*
X3774Y2949D01*
X3775Y2949D01*
X3776Y2949D01*
X3777Y2949D01*
X3778Y2949D01*
X3779Y2949D01*
X3780Y2948D01*
X3781Y2948D01*
X3782Y2948D01*
X3783Y2948D01*
X3784Y2947D01*
X3785Y2947D01*
X3786Y2947D01*
X3787Y2947D01*
X3788Y2947D01*
X3789Y2946D01*
X3790Y2946D01*
X3791Y2946D01*
X3792Y2945D01*
X3793Y2945D01*
X3794Y2945D01*
X3795Y2945D01*
X3796Y2944D01*
X3797Y2944D01*
X3798Y2944D01*
X3799Y2943D01*
X3800Y2943D01*
X3801Y2943D01*
X3802Y2942D01*
X3803Y2942D01*
X3804Y2942D01*
X3805Y2941D01*
X3806Y2941D01*
X3807Y2941D01*
X3808Y2940D01*
X3809Y2940D01*
X3810Y2940D01*
X3811Y2939D01*
X3812Y2939D01*
X3813Y2938D01*
X3814Y2938D01*
X3815Y2938D01*
X3816Y2937D01*
X3817Y2937D01*
X3818Y2936D01*
X3819Y2936D01*
X3820Y2935D01*
X3821Y2935D01*
X3822Y2935D01*
X3823Y2934D01*
X3824Y2934D01*
X3825Y2933D01*
X3826Y2933D01*
X3827Y2932D01*
X3828Y2932D01*
X3829Y2931D01*
X3830Y2931D01*
X3831Y2930D01*
X3832Y2930D01*
X3833Y2929D01*
X3834Y2929D01*
X3835Y2928D01*
X3836Y2927D01*
X3837Y2927D01*
X3838Y2926D01*
X3839Y2926D01*
X3840Y2925D01*
X3841Y2925D01*
X3842Y2924D01*
X3843Y2923D01*
X3844Y2923D01*
X3845Y2922D01*
X3846Y2921D01*
X3847Y2921D01*
X3848Y2920D01*
X3849Y2920D01*
X3850Y2919D01*
X3851Y2918D01*
X3852Y2917D01*
X3853Y2917D01*
X3854Y2916D01*
X3855Y2915D01*
X3856Y2915D01*
X3857Y2914D01*
X3858Y2913D01*
X3859Y2912D01*
X3860Y2912D01*
X3861Y2911D01*
X3862Y2910D01*
X3863Y2909D01*
X3864Y2908D01*
X3865Y2908D01*
X3866Y2907D01*
X3867Y2906D01*
X3868Y2905D01*
X3869Y2904D01*
X3870Y2903D01*
X3871Y2902D01*
X3872Y2902D01*
X3873Y2901D01*
X3874Y2900D01*
X3875Y2899D01*
X3876Y2898D01*
X3877Y2897D01*
X3878Y2896D01*
X3879Y2895D01*
X3880Y2894D01*
X3881Y2893D01*
X3882Y2892D01*
X3883Y2891D01*
X3884Y2890D01*
X3885Y2889D01*
X3886Y2888D01*
X3886Y2887D01*
X3887Y2886D01*
X3888Y2885D01*
X3889Y2884D01*
X3890Y2883D01*
X3891Y2882D01*
X3892Y2881D01*
X3892Y2880D01*
X3893Y2879D01*
X3894Y2878D01*
X3895Y2877D01*
X3895Y2876D01*
X3896Y2875D01*
X3897Y2874D01*
X3898Y2873D01*
X3898Y2872D01*
X3899Y2871D01*
X3900Y2870D01*
X3901Y2869D01*
X3901Y2868D01*
X3902Y2867D01*
X3903Y2866D01*
X3903Y2865D01*
X3904Y2864D01*
X3905Y2863D01*
X3905Y2862D01*
X3906Y2861D01*
X3907Y2860D01*
X3907Y2859D01*
X3908Y2858D01*
X3908Y2857D01*
X3909Y2856D01*
X3910Y2855D01*
X3910Y2854D01*
X3911Y2853D01*
X3911Y2852D01*
X3912Y2851D01*
X3912Y2850D01*
X3913Y2849D01*
X3913Y2848D01*
X3914Y2847D01*
X3914Y2846D01*
X3915Y2845D01*
X3915Y2844D01*
X3916Y2843D01*
X3916Y2842D01*
X3917Y2841D01*
X3917Y2840D01*
X3918Y2839D01*
X3918Y2838D01*
X3919Y2837D01*
X3919Y2836D01*
X3920Y2835D01*
X3920Y2834D01*
X3921Y2833D01*
X3921Y2831D01*
X3922Y2830D01*
X3922Y2829D01*
X3923Y2828D01*
X3923Y2826D01*
X3924Y2825D01*
X3924Y2823D01*
X3925Y2822D01*
X3925Y2820D01*
X3926Y2819D01*
X3926Y2817D01*
X3927Y2816D01*
X3927Y2814D01*
X3928Y2813D01*
X3928Y2811D01*
X3929Y2810D01*
X3929Y2807D01*
X3930Y2806D01*
X3930Y2803D01*
X3931Y2802D01*
X3931Y2799D01*
X3932Y2798D01*
X3932Y2794D01*
X3933Y2793D01*
X3933Y2788D01*
X3934Y2787D01*
X3934Y2781D01*
X3935Y2780D01*
X3935Y2770D01*
X3936Y2769D01*
X3936Y184D01*
X3935Y183D01*
X3935Y174D01*
X3934Y173D01*
X3934Y166D01*
X3933Y165D01*
X3933Y161D01*
X3932Y160D01*
X3932Y156D01*
X3931Y155D01*
X3931Y151D01*
X3930Y150D01*
X3930Y147D01*
X3929Y146D01*
X3929Y144D01*
X3928Y143D01*
X3928Y140D01*
X3927Y139D01*
X3927Y137D01*
X3926Y136D01*
X3926Y134D01*
X3925Y133D01*
X3925Y131D01*
X3924Y130D01*
X3924Y129D01*
X3923Y128D01*
X3923Y126D01*
X3922Y125D01*
X3922Y123D01*
X3921Y122D01*
X3921Y121D01*
X3920Y120D01*
X3920Y119D01*
X3919Y118D01*
X3919Y116D01*
X3918Y115D01*
X3918Y114D01*
X3917Y113D01*
X3917Y112D01*
X3916Y111D01*
X3916Y110D01*
X3915Y109D01*
X3915Y108D01*
X3914Y107D01*
X3914Y106D01*
X3913Y105D01*
X3913Y104D01*
X3912Y103D01*
X3912Y102D01*
X3911Y101D01*
X3910Y100D01*
X3910Y99D01*
X3909Y98D01*
X3909Y97D01*
X3908Y96D01*
X3907Y95D01*
X3907Y94D01*
X3906Y93D01*
X3906Y92D01*
X3905Y91D01*
X3904Y90D01*
X3904Y89D01*
X3903Y88D01*
X3902Y87D01*
X3902Y86D01*
X3901Y85D01*
X3900Y84D01*
X3900Y83D01*
X3899Y82D01*
X3898Y81D01*
X3897Y80D01*
X3897Y79D01*
X3896Y78D01*
X3895Y77D01*
X3894Y76D01*
X3894Y75D01*
X3893Y74D01*
X3892Y73D01*
X3891Y72D01*
X3890Y71D01*
X3889Y70D01*
X3889Y69D01*
X3888Y68D01*
X3887Y67D01*
X3886Y66D01*
X3885Y65D01*
X3884Y64D01*
X3883Y63D01*
X3882Y62D01*
X3881Y61D01*
X3880Y60D01*
X3879Y59D01*
X3878Y58D01*
X3877Y57D01*
X3876Y56D01*
X3875Y55D01*
X3874Y54D01*
X3873Y53D01*
X3872Y52D01*
X3871Y51D01*
X3870Y50D01*
X3869Y49D01*
X3868Y48D01*
X3867Y48D01*
X3866Y47D01*
X3865Y46D01*
X3864Y45D01*
X3863Y44D01*
X3862Y43D01*
X3861Y43D01*
X3860Y42D01*
X3859Y41D01*
X3858Y40D01*
X3857Y40D01*
X3856Y39D01*
X3855Y38D01*
X3854Y37D01*
X3853Y37D01*
X3852Y36D01*
X3851Y35D01*
X3850Y35D01*
X3849Y34D01*
X3848Y33D01*
X3847Y33D01*
X3846Y32D01*
X3845Y31D01*
X3844Y31D01*
X3843Y30D01*
X3842Y30D01*
X3841Y29D01*
X3840Y28D01*
X3839Y28D01*
X3838Y27D01*
X3837Y27D01*
X3836Y26D01*
X3835Y25D01*
X3834Y25D01*
X3833Y24D01*
X3832Y24D01*
X3831Y23D01*
X3830Y23D01*
X3829Y22D01*
X3828Y22D01*
X3827Y21D01*
X3826Y21D01*
X3825Y20D01*
X3824Y20D01*
X3823Y19D01*
X3822Y19D01*
X3821Y18D01*
X3820Y18D01*
X3819Y18D01*
X3818Y17D01*
X3817Y17D01*
X3816Y16D01*
X3815Y16D01*
X3814Y15D01*
X3813Y15D01*
X3812Y15D01*
X3811Y14D01*
X3810Y14D01*
X3809Y14D01*
X3808Y13D01*
X3807Y13D01*
X3806Y12D01*
X3805Y12D01*
X3804Y12D01*
X3803Y11D01*
X3802Y11D01*
X3801Y11D01*
X3800Y10D01*
X3799Y10D01*
X3798Y10D01*
X3797Y9D01*
X3796Y9D01*
X3795Y9D01*
X3794Y9D01*
X3793Y8D01*
X3792Y8D01*
X3791Y8D01*
X3790Y7D01*
X3789Y7D01*
X3788Y7D01*
X3787Y7D01*
X3786Y6D01*
X3785Y6D01*
X3784Y6D01*
X3783Y6D01*
X3782Y6D01*
X3781Y5D01*
X3780Y5D01*
X3779Y5D01*
X3778Y5D01*
X3777Y5D01*
X3776Y4D01*
X3775Y4D01*
X3774Y4D01*
X3773Y4D01*
X3772Y4D01*
X3771Y3D01*
X3770Y3D01*
X3769Y3D01*
X3768Y3D01*
X3767Y3D01*
X3766Y3D01*
X3765Y3D01*
X3764Y3D01*
X3763Y2D01*
X3762Y2D01*
X3761Y2D01*
X3760Y2D01*
X3759Y2D01*
X3758Y2D01*
X3757Y2D01*
X3756Y2D01*
X3755Y2D01*
X3754Y2D01*
X3753Y1D01*
X3752Y1D01*
X3751Y1D01*
X3750Y1D01*
X3749Y1D01*
X3748Y1D01*
X3747Y1D01*
X3746Y1D01*
X3745Y1D01*
X3744Y1D01*
X3743Y1D01*
X3742Y1D01*
X3741Y1D01*
X3740Y1D01*
X3739Y1D01*
X3738Y1D01*
X3737Y1D01*
X3736Y1D01*
X3735Y1D01*
X3734Y1D01*
X3733Y1D01*
X3732Y1D01*
X3731Y1D01*
X3730Y1D01*
X3729Y1D01*
X3728Y1D01*
X3727Y1D01*
X3726Y1D01*
X3725Y1D01*
X3724Y1D01*
X3723Y1D01*
X3722Y1D01*
X3721Y1D01*
X3720Y1D01*
X3719Y1D01*
X3718Y1D01*
X3717Y1D01*
X3716Y1D01*
X3715Y1D01*
X3714Y1D01*
X3713Y1D01*
X3712Y1D01*
X3711Y1D01*
X3710Y1D01*
X3709Y1D01*
X3708Y1D01*
X3707Y1D01*
X3706Y1D01*
X3705Y1D01*
X3704Y1D01*
X3703Y1D01*
X3702Y1D01*
X3701Y1D01*
X3700Y1D01*
X3699Y1D01*
X3698Y1D01*
X3697Y1D01*
X3696Y1D01*
X3695Y1D01*
X3694Y1D01*
X3693Y1D01*
X3692Y1D01*
X3691Y1D01*
X3690Y1D01*
X3689Y1D01*
X3688Y1D01*
X3687Y1D01*
X3686Y1D01*
X3685Y1D01*
X3684Y1D01*
X3683Y1D01*
X3682Y1D01*
X3681Y1D01*
X3680Y1D01*
X3679Y1D01*
X3678Y1D01*
X3677Y1D01*
X3676Y1D01*
X3675Y1D01*
X3674Y1D01*
X3673Y1D01*
X3672Y1D01*
X3671Y1D01*
X3670Y1D01*
X3669Y1D01*
X3668Y1D01*
X3667Y1D01*
X3666Y1D01*
X3665Y1D01*
X3664Y1D01*
X3663Y1D01*
X3662Y1D01*
X3661Y1D01*
X3660Y1D01*
X3659Y1D01*
X3658Y1D01*
X3657Y1D01*
X3656Y1D01*
X3655Y1D01*
X3654Y1D01*
X3653Y1D01*
X3652Y1D01*
X3651Y1D01*
X3650Y1D01*
X3649Y1D01*
X3648Y1D01*
X3647Y1D01*
X3646Y1D01*
X3645Y1D01*
X3644Y1D01*
X3643Y1D01*
X3642Y1D01*
X3641Y1D01*
X3640Y1D01*
X3639Y1D01*
X3638Y1D01*
X3637Y1D01*
X3636Y1D01*
X3635Y1D01*
X3634Y1D01*
X3633Y1D01*
X3632Y1D01*
X3631Y1D01*
X3630Y1D01*
X3629Y1D01*
X3628Y1D01*
X3627Y1D01*
X3626Y1D01*
X3625Y1D01*
X3624Y1D01*
X3623Y1D01*
X3622Y1D01*
X3621Y1D01*
X3620Y1D01*
X3619Y1D01*
X3618Y1D01*
X3617Y1D01*
X3616Y1D01*
X3615Y1D01*
X3614Y1D01*
X3613Y1D01*
X3612Y1D01*
X3611Y1D01*
X3610Y1D01*
X3609Y1D01*
X3608Y1D01*
X3607Y1D01*
X3606Y1D01*
X3605Y1D01*
X3604Y1D01*
X3603Y1D01*
X3602Y1D01*
X3601Y1D01*
X3600Y1D01*
X3599Y1D01*
X3598Y1D01*
X3597Y1D01*
X3596Y1D01*
X3595Y1D01*
X3594Y1D01*
X3593Y1D01*
X3592Y1D01*
X3591Y1D01*
X3590Y1D01*
X3589Y1D01*
X3588Y1D01*
X3587Y1D01*
X3586Y1D01*
X3585Y1D01*
X3584Y1D01*
X3583Y1D01*
X3582Y1D01*
X3581Y1D01*
X3580Y1D01*
X3579Y1D01*
X3578Y1D01*
X3577Y1D01*
X3576Y1D01*
X3575Y1D01*
X3574Y1D01*
X3573Y1D01*
X3572Y1D01*
X3571Y1D01*
X3570Y1D01*
X3569Y1D01*
X3568Y1D01*
X3567Y1D01*
X3566Y1D01*
X3565Y1D01*
X3564Y1D01*
X3563Y1D01*
X3562Y1D01*
X3561Y1D01*
X3560Y1D01*
X3559Y1D01*
X3558Y1D01*
X3557Y1D01*
X3556Y1D01*
X3555Y1D01*
X3554Y1D01*
X3553Y1D01*
X3552Y1D01*
X3551Y1D01*
X3550Y1D01*
X3549Y1D01*
X3548Y1D01*
X3547Y1D01*
X3546Y1D01*
X3545Y1D01*
X3544Y1D01*
X3543Y1D01*
X3542Y1D01*
X3541Y1D01*
X3540Y1D01*
X3539Y1D01*
X3538Y1D01*
X3537Y1D01*
X3536Y1D01*
X3535Y1D01*
X3534Y1D01*
X3533Y1D01*
X3532Y1D01*
X3531Y1D01*
X3530Y1D01*
X3529Y1D01*
X3528Y1D01*
X3527Y1D01*
X3526Y1D01*
X3525Y1D01*
X3524Y1D01*
X3523Y1D01*
X3522Y1D01*
X3521Y1D01*
X3520Y1D01*
X3519Y1D01*
X3518Y1D01*
X3517Y1D01*
X3516Y1D01*
X3515Y1D01*
X3514Y1D01*
X3513Y1D01*
X3512Y1D01*
X3511Y1D01*
X3510Y1D01*
X3509Y1D01*
X3508Y1D01*
X3507Y1D01*
X3506Y1D01*
X3505Y1D01*
X3504Y1D01*
X3503Y1D01*
X3502Y1D01*
X3501Y1D01*
X3500Y1D01*
X3499Y1D01*
X3498Y1D01*
X3497Y1D01*
X3496Y1D01*
X3495Y1D01*
X3494Y1D01*
X3493Y1D01*
X3492Y1D01*
X3491Y1D01*
X3490Y1D01*
X3489Y1D01*
X3488Y1D01*
X3487Y1D01*
X3486Y1D01*
X3485Y1D01*
X3484Y1D01*
X3483Y1D01*
X3482Y1D01*
X3481Y1D01*
X3480Y1D01*
X3479Y1D01*
X3478Y1D01*
X3477Y1D01*
X3476Y1D01*
X3475Y1D01*
X3474Y1D01*
X3473Y1D01*
X3472Y1D01*
X3471Y1D01*
X3470Y1D01*
X3469Y1D01*
X3468Y1D01*
X3467Y1D01*
X3466Y1D01*
X3465Y1D01*
X3464Y1D01*
X3463Y1D01*
X3462Y1D01*
X3461Y1D01*
X3460Y1D01*
X3459Y1D01*
X3458Y1D01*
X3457Y1D01*
X3456Y1D01*
X3455Y1D01*
X3454Y1D01*
X3453Y1D01*
X3452Y1D01*
X3451Y1D01*
X3450Y1D01*
X3449Y1D01*
X3448Y1D01*
X3447Y1D01*
X3446Y1D01*
X3445Y1D01*
X3444Y1D01*
X3443Y1D01*
X3442Y1D01*
X3441Y1D01*
X3440Y1D01*
X3439Y1D01*
X3438Y1D01*
X3437Y1D01*
X3436Y1D01*
X3435Y1D01*
X3434Y1D01*
X3433Y1D01*
X3432Y1D01*
X3431Y1D01*
X3430Y1D01*
X3429Y1D01*
X3428Y1D01*
X3427Y1D01*
X3426Y1D01*
X3425Y1D01*
X3424Y1D01*
X3423Y1D01*
X3422Y1D01*
X3421Y1D01*
X3420Y1D01*
X3419Y1D01*
X3418Y1D01*
X3417Y1D01*
X3416Y1D01*
X3415Y1D01*
X3414Y1D01*
X3413Y1D01*
X3412Y1D01*
X3411Y1D01*
X3410Y1D01*
X3409Y1D01*
X3408Y1D01*
X3407Y1D01*
X3406Y1D01*
X3405Y1D01*
X3404Y1D01*
X3403Y1D01*
X3402Y1D01*
X3401Y1D01*
X3400Y1D01*
X3399Y1D01*
X3398Y1D01*
X3397Y1D01*
X3396Y1D01*
X3395Y1D01*
X3394Y1D01*
X3393Y1D01*
X3392Y1D01*
X3391Y1D01*
X3390Y1D01*
X3389Y1D01*
X3388Y1D01*
X3387Y1D01*
X3386Y1D01*
X3385Y1D01*
X3384Y1D01*
X3383Y1D01*
X3382Y1D01*
X3381Y1D01*
X3380Y1D01*
X3379Y1D01*
X3378Y1D01*
X3377Y1D01*
X3376Y1D01*
X3375Y1D01*
X3374Y1D01*
X3373Y1D01*
X3372Y1D01*
X3371Y1D01*
X3370Y1D01*
X3369Y1D01*
X3368Y1D01*
X3367Y1D01*
X3366Y1D01*
X3365Y1D01*
X3364Y1D01*
X3363Y1D01*
X3362Y1D01*
X3361Y1D01*
X3360Y1D01*
X3359Y1D01*
X3358Y1D01*
X3357Y1D01*
X3356Y1D01*
X3355Y1D01*
X3354Y1D01*
X3353Y1D01*
X3352Y1D01*
X3351Y1D01*
X3350Y1D01*
X3349Y1D01*
X3348Y1D01*
X3347Y1D01*
X3346Y1D01*
X3345Y1D01*
X3344Y1D01*
X3343Y1D01*
X3342Y1D01*
X3341Y1D01*
X3340Y1D01*
X3339Y1D01*
X3338Y1D01*
X3337Y1D01*
X3336Y1D01*
X3335Y1D01*
X3334Y1D01*
X3333Y1D01*
X3332Y1D01*
X3331Y1D01*
X3330Y1D01*
X3329Y1D01*
X3328Y1D01*
X3327Y1D01*
X3326Y1D01*
X3325Y1D01*
X3324Y1D01*
X3323Y1D01*
X3322Y1D01*
X3321Y1D01*
X3320Y1D01*
X3319Y1D01*
X3318Y1D01*
X3317Y1D01*
X3316Y1D01*
X3315Y1D01*
X3314Y1D01*
X3313Y1D01*
X3312Y1D01*
X3311Y1D01*
X3310Y1D01*
X3309Y1D01*
X3308Y1D01*
X3307Y1D01*
X3306Y1D01*
X3305Y1D01*
X3304Y1D01*
X3303Y1D01*
X3302Y1D01*
X3301Y1D01*
X3300Y1D01*
X3299Y1D01*
X3298Y1D01*
X3297Y1D01*
X3296Y1D01*
X3295Y1D01*
X3294Y1D01*
X3293Y1D01*
X3292Y1D01*
X3291Y1D01*
X3290Y1D01*
X3289Y1D01*
X3288Y1D01*
X3287Y1D01*
X3286Y1D01*
X3285Y1D01*
X3284Y1D01*
X3283Y1D01*
X3282Y1D01*
X3281Y1D01*
X3280Y1D01*
X3279Y1D01*
X3278Y1D01*
X3277Y1D01*
X3276Y1D01*
X3275Y1D01*
X3274Y1D01*
X3273Y1D01*
X3272Y1D01*
X3271Y1D01*
X3270Y1D01*
X3269Y1D01*
X3268Y1D01*
X3267Y1D01*
X3266Y1D01*
X3265Y1D01*
X3264Y1D01*
X3263Y1D01*
X3262Y1D01*
X3261Y1D01*
X3260Y1D01*
X3259Y1D01*
X3258Y1D01*
X3257Y1D01*
X3256Y1D01*
X3255Y1D01*
X3254Y1D01*
X3253Y1D01*
X3252Y1D01*
X3251Y1D01*
X3250Y1D01*
X3249Y1D01*
X3248Y1D01*
X3247Y1D01*
X3246Y1D01*
X3245Y1D01*
X3244Y1D01*
X3243Y1D01*
X3242Y1D01*
X3241Y1D01*
X3240Y1D01*
X3239Y1D01*
X3238Y1D01*
X3237Y1D01*
X3236Y1D01*
X3235Y1D01*
X3234Y1D01*
X3233Y1D01*
X3232Y1D01*
X3231Y1D01*
X3230Y1D01*
X3229Y1D01*
X3228Y1D01*
X3227Y1D01*
X3226Y1D01*
X3225Y1D01*
X3224Y1D01*
X3223Y1D01*
X3222Y1D01*
X3221Y1D01*
X3220Y1D01*
X3219Y1D01*
X3218Y1D01*
X3217Y1D01*
X3216Y1D01*
X3215Y1D01*
X3214Y1D01*
X3213Y1D01*
X3212Y1D01*
X3211Y1D01*
X3210Y1D01*
X3209Y1D01*
X3208Y1D01*
X3207Y1D01*
X3206Y1D01*
X3205Y1D01*
X3204Y1D01*
X3203Y1D01*
X3202Y1D01*
X3201Y1D01*
X3200Y1D01*
X3199Y1D01*
X3198Y1D01*
X3197Y1D01*
X3196Y1D01*
X3195Y1D01*
X3194Y1D01*
X3193Y1D01*
X3192Y1D01*
X3191Y1D01*
X3190Y1D01*
X3189Y1D01*
X3188Y1D01*
X3187Y1D01*
X3186Y1D01*
X3185Y1D01*
X3184Y1D01*
X3183Y1D01*
X3182Y1D01*
X3181Y1D01*
X3180Y1D01*
X3179Y1D01*
X3178Y1D01*
X3177Y1D01*
X3176Y1D01*
X3175Y1D01*
X3174Y1D01*
X3173Y1D01*
X3172Y1D01*
X3171Y1D01*
X3170Y1D01*
X3169Y1D01*
X3168Y1D01*
X3167Y1D01*
X3166Y1D01*
X3165Y1D01*
X3164Y1D01*
X3163Y1D01*
X3162Y1D01*
X3161Y1D01*
X3160Y1D01*
X3159Y1D01*
X3158Y1D01*
X3157Y1D01*
X3156Y1D01*
X3155Y1D01*
X3154Y1D01*
X3153Y1D01*
X3152Y1D01*
X3151Y1D01*
X3150Y1D01*
X3149Y1D01*
X3148Y1D01*
X3147Y1D01*
X3146Y1D01*
X3145Y1D01*
X3144Y1D01*
X3143Y1D01*
X3142Y1D01*
X3141Y1D01*
X3140Y1D01*
X3139Y1D01*
X3138Y1D01*
X3137Y1D01*
X3136Y1D01*
X3135Y1D01*
X3134Y1D01*
X3133Y1D01*
X3132Y1D01*
X3131Y1D01*
X3130Y1D01*
X3129Y1D01*
X3128Y1D01*
X3127Y1D01*
X3126Y1D01*
X3125Y1D01*
X3124Y1D01*
X3123Y1D01*
X3122Y1D01*
X3121Y1D01*
X3120Y1D01*
X3119Y1D01*
X3118Y1D01*
X3117Y1D01*
X3116Y1D01*
X3115Y1D01*
X3114Y1D01*
X3113Y1D01*
X3112Y1D01*
X3111Y1D01*
X3110Y1D01*
X3109Y1D01*
X3108Y1D01*
X3107Y1D01*
X3106Y1D01*
X3105Y1D01*
X3104Y1D01*
X3103Y1D01*
X3102Y1D01*
X3101Y1D01*
X3100Y1D01*
X3099Y1D01*
X3098Y1D01*
X3097Y1D01*
X3096Y1D01*
X3095Y1D01*
X3094Y1D01*
X3093Y1D01*
X3092Y1D01*
X3091Y1D01*
X3090Y1D01*
X3089Y1D01*
X3088Y1D01*
X3087Y1D01*
X3086Y1D01*
X3085Y1D01*
X3084Y1D01*
X3083Y1D01*
X3082Y1D01*
X3081Y1D01*
X3080Y1D01*
X3079Y1D01*
X3078Y1D01*
X3077Y1D01*
X3076Y1D01*
X3075Y1D01*
X3074Y1D01*
X3073Y1D01*
X3072Y1D01*
X3071Y1D01*
X3070Y1D01*
X3069Y1D01*
X3068Y1D01*
X3067Y1D01*
X3066Y1D01*
X3065Y1D01*
X3064Y1D01*
X3063Y1D01*
X3062Y1D01*
X3061Y1D01*
X3060Y1D01*
X3059Y1D01*
X3058Y1D01*
X3057Y1D01*
X3056Y1D01*
X3055Y1D01*
X3054Y1D01*
X3053Y1D01*
X3052Y1D01*
X3051Y1D01*
X3050Y1D01*
X3049Y1D01*
X3048Y1D01*
X3047Y1D01*
X3046Y1D01*
X3045Y1D01*
X3044Y1D01*
X3043Y1D01*
X3042Y1D01*
X3041Y1D01*
X3040Y1D01*
X3039Y1D01*
X3038Y1D01*
X3037Y1D01*
X3036Y1D01*
X3035Y1D01*
X3034Y1D01*
X3033Y1D01*
X3032Y1D01*
X3031Y1D01*
X3030Y1D01*
X3029Y1D01*
X3028Y1D01*
X3027Y1D01*
X3026Y1D01*
X3025Y1D01*
X3024Y1D01*
X3023Y1D01*
X3022Y1D01*
X3021Y1D01*
X3020Y1D01*
X3019Y1D01*
X3018Y1D01*
X3017Y1D01*
X3016Y1D01*
X3015Y1D01*
X3014Y1D01*
X3013Y1D01*
X3012Y1D01*
X3011Y1D01*
X3010Y1D01*
X3009Y1D01*
X3008Y1D01*
X3007Y1D01*
X3006Y1D01*
X3005Y1D01*
X3004Y1D01*
X3003Y1D01*
X3002Y1D01*
X3001Y1D01*
X3000Y1D01*
X2999Y1D01*
X2998Y1D01*
X2997Y1D01*
X2996Y1D01*
X2995Y1D01*
X2994Y1D01*
X2993Y1D01*
X2992Y1D01*
X2991Y1D01*
X2990Y1D01*
X2989Y1D01*
X2988Y1D01*
X2987Y1D01*
X2986Y1D01*
X2985Y1D01*
X2984Y1D01*
X2983Y1D01*
X2982Y1D01*
X2981Y1D01*
X2980Y1D01*
X2979Y1D01*
X2978Y1D01*
X2977Y1D01*
X2976Y1D01*
X2975Y1D01*
X2974Y1D01*
X2973Y1D01*
X2972Y1D01*
X2971Y1D01*
X2970Y1D01*
X2969Y1D01*
X2968Y1D01*
X2967Y1D01*
X2966Y1D01*
X2965Y1D01*
X2964Y1D01*
X2963Y1D01*
X2962Y1D01*
X2961Y1D01*
X2960Y1D01*
X2959Y1D01*
X2958Y1D01*
X2957Y1D01*
X2956Y1D01*
X2955Y1D01*
X2954Y1D01*
X2953Y1D01*
X2952Y1D01*
X2951Y1D01*
X2950Y1D01*
X2949Y1D01*
X2948Y1D01*
X2947Y1D01*
X2946Y1D01*
X2945Y1D01*
X2944Y1D01*
X2943Y1D01*
X2942Y1D01*
X2941Y1D01*
X2940Y1D01*
X2939Y1D01*
X2938Y1D01*
X2937Y1D01*
X2936Y1D01*
X2935Y1D01*
X2934Y1D01*
X2933Y1D01*
X2932Y1D01*
X2931Y1D01*
X2930Y1D01*
X2929Y1D01*
X2928Y1D01*
X2927Y1D01*
X2926Y1D01*
X2925Y1D01*
X2924Y1D01*
X2923Y1D01*
X2922Y1D01*
X2921Y1D01*
X2920Y1D01*
X2919Y1D01*
X2918Y1D01*
X2917Y1D01*
X2916Y1D01*
X2915Y1D01*
X2914Y1D01*
X2913Y1D01*
X2912Y1D01*
X2911Y1D01*
X2910Y1D01*
X2909Y1D01*
X2908Y1D01*
X2907Y1D01*
X2906Y1D01*
X2905Y1D01*
X2904Y1D01*
X2903Y1D01*
X2902Y1D01*
X2901Y1D01*
X2900Y1D01*
X2899Y1D01*
X2898Y1D01*
X2897Y1D01*
X2896Y1D01*
X2895Y1D01*
X2894Y1D01*
X2893Y1D01*
X2892Y1D01*
X2891Y1D01*
X2890Y1D01*
X2889Y1D01*
X2888Y1D01*
X2887Y1D01*
X2886Y1D01*
X2885Y1D01*
X2884Y1D01*
X2883Y1D01*
X2882Y1D01*
X2881Y1D01*
X2880Y1D01*
X2879Y1D01*
X2878Y1D01*
X2877Y1D01*
X2876Y1D01*
X2875Y1D01*
X2874Y1D01*
X2873Y1D01*
X2872Y1D01*
X2871Y1D01*
X2870Y1D01*
X2869Y1D01*
X2868Y1D01*
X2867Y1D01*
X2866Y1D01*
X2865Y1D01*
X2864Y1D01*
X2863Y1D01*
X2862Y1D01*
X2861Y1D01*
X2860Y1D01*
X2859Y1D01*
X2858Y1D01*
X2857Y1D01*
X2856Y1D01*
X2855Y1D01*
X2854Y1D01*
X2853Y1D01*
X2852Y1D01*
X2851Y1D01*
X2850Y1D01*
X2849Y1D01*
X2848Y1D01*
X2847Y1D01*
X2846Y1D01*
X2845Y1D01*
X2844Y1D01*
X2843Y1D01*
X2842Y1D01*
X2841Y1D01*
X2840Y1D01*
X2839Y1D01*
X2838Y1D01*
X2837Y1D01*
X2836Y1D01*
X2835Y1D01*
X2834Y1D01*
X2833Y1D01*
X2832Y1D01*
X2831Y1D01*
X2830Y1D01*
X2829Y1D01*
X2828Y1D01*
X2827Y1D01*
X2826Y1D01*
X2825Y1D01*
X2824Y1D01*
X2823Y1D01*
X2822Y1D01*
X2821Y1D01*
X2820Y1D01*
X2819Y1D01*
X2818Y1D01*
X2817Y1D01*
X2816Y1D01*
X2815Y1D01*
X2814Y1D01*
X2813Y1D01*
X2812Y1D01*
X2811Y1D01*
X2810Y1D01*
X2809Y1D01*
X2808Y1D01*
X2807Y1D01*
X2806Y1D01*
X2805Y1D01*
X2804Y1D01*
X2803Y1D01*
X2802Y1D01*
X2801Y1D01*
X2800Y1D01*
X2799Y1D01*
X2798Y1D01*
X2797Y1D01*
X2796Y1D01*
X2795Y1D01*
X2794Y1D01*
X2793Y1D01*
X2792Y1D01*
X2791Y1D01*
X2790Y1D01*
X2789Y1D01*
X2788Y1D01*
X2787Y1D01*
X2786Y1D01*
X2785Y1D01*
X2784Y1D01*
X2783Y1D01*
X2782Y1D01*
X2781Y1D01*
X2780Y1D01*
X2779Y1D01*
X2778Y1D01*
X2777Y1D01*
X2776Y1D01*
X2775Y1D01*
X2774Y1D01*
X2773Y1D01*
X2772Y1D01*
X2771Y1D01*
X2770Y1D01*
X2769Y1D01*
X2768Y1D01*
X2767Y1D01*
X2766Y1D01*
X2765Y1D01*
X2764Y1D01*
X2763Y1D01*
X2762Y1D01*
X2761Y1D01*
X2760Y1D01*
X2759Y1D01*
X2758Y1D01*
X2757Y1D01*
X2756Y1D01*
X2755Y1D01*
X2754Y1D01*
X2753Y1D01*
X2752Y1D01*
X2751Y1D01*
X2750Y1D01*
X2749Y1D01*
X2748Y1D01*
X2747Y1D01*
X2746Y1D01*
X2745Y1D01*
X2744Y1D01*
X2743Y1D01*
X2742Y1D01*
X2741Y1D01*
X2740Y1D01*
X2739Y1D01*
X2738Y1D01*
X2737Y1D01*
X2736Y1D01*
X2735Y1D01*
X2734Y1D01*
X2733Y1D01*
X2732Y1D01*
X2731Y1D01*
X2730Y1D01*
X2729Y1D01*
X2728Y1D01*
X2727Y1D01*
X2726Y1D01*
X2725Y1D01*
X2724Y1D01*
X2723Y1D01*
X2722Y1D01*
X2721Y1D01*
X2720Y1D01*
X2719Y1D01*
X2718Y1D01*
X2717Y1D01*
X2716Y1D01*
X2715Y1D01*
X2714Y1D01*
X2713Y1D01*
X2712Y1D01*
X2711Y1D01*
X2710Y1D01*
X2709Y1D01*
X2708Y1D01*
X2707Y1D01*
X2706Y1D01*
X2705Y1D01*
X2704Y1D01*
X2703Y1D01*
X2702Y1D01*
X2701Y1D01*
X2700Y1D01*
X2699Y1D01*
X2698Y1D01*
X2697Y1D01*
X2696Y1D01*
X2695Y1D01*
X2694Y1D01*
X2693Y1D01*
X2692Y1D01*
X2691Y1D01*
X2690Y1D01*
X2689Y1D01*
X2688Y1D01*
X2687Y1D01*
X2686Y1D01*
X2685Y1D01*
X2684Y1D01*
X2683Y1D01*
X2682Y1D01*
X2681Y1D01*
X2680Y1D01*
X2679Y1D01*
X2678Y1D01*
X2677Y1D01*
X2676Y1D01*
X2675Y1D01*
X2674Y1D01*
X2673Y1D01*
X2672Y1D01*
X2671Y1D01*
X2670Y1D01*
X2669Y1D01*
X2668Y1D01*
X2667Y1D01*
X2666Y1D01*
X2665Y1D01*
X2664Y1D01*
X2663Y1D01*
X2662Y1D01*
X2661Y1D01*
X2660Y1D01*
X2659Y1D01*
X2658Y1D01*
X2657Y1D01*
X2656Y1D01*
X2655Y1D01*
X2654Y1D01*
X2653Y1D01*
X2652Y1D01*
X2651Y1D01*
X2650Y1D01*
X2649Y1D01*
X2648Y1D01*
X2647Y1D01*
X2646Y1D01*
X2645Y1D01*
X2644Y1D01*
X2643Y1D01*
X2642Y1D01*
X2641Y1D01*
X2640Y1D01*
X2639Y1D01*
X2638Y1D01*
X2637Y1D01*
X2636Y1D01*
X2635Y1D01*
X2634Y1D01*
X2633Y1D01*
X2632Y1D01*
X2631Y1D01*
X2630Y1D01*
X2629Y1D01*
X2628Y1D01*
X2627Y1D01*
X2626Y1D01*
X2625Y1D01*
X2624Y1D01*
X2623Y1D01*
X2622Y1D01*
X2621Y1D01*
X2620Y1D01*
X2619Y1D01*
X2618Y1D01*
X2617Y1D01*
X2616Y1D01*
X2615Y1D01*
X2614Y1D01*
X2613Y1D01*
X2612Y1D01*
X2611Y1D01*
X2610Y1D01*
X2609Y1D01*
X2608Y1D01*
X2607Y1D01*
X2606Y1D01*
X2605Y1D01*
X2604Y1D01*
X2603Y1D01*
X2602Y1D01*
X2601Y1D01*
X2600Y1D01*
X2599Y1D01*
X2598Y1D01*
X2597Y1D01*
X2596Y1D01*
X2595Y1D01*
X2594Y1D01*
X2593Y1D01*
X2592Y1D01*
X2591Y1D01*
X2590Y1D01*
X2589Y1D01*
X2588Y1D01*
X2587Y1D01*
X2586Y1D01*
X2585Y1D01*
X2584Y1D01*
X2583Y1D01*
X2582Y1D01*
X2581Y1D01*
X2580Y1D01*
X2579Y1D01*
X2578Y1D01*
X2577Y1D01*
X2576Y1D01*
X2575Y1D01*
X2574Y1D01*
X2573Y1D01*
X2572Y1D01*
X2571Y1D01*
X2570Y1D01*
X2569Y1D01*
X2568Y1D01*
X2567Y1D01*
X2566Y1D01*
X2565Y1D01*
X2564Y1D01*
X2563Y1D01*
X2562Y1D01*
X2561Y1D01*
X2560Y1D01*
X2559Y1D01*
X2558Y1D01*
X2557Y1D01*
X2556Y1D01*
X2555Y1D01*
X2554Y1D01*
X2553Y1D01*
X2552Y1D01*
X2551Y1D01*
X2550Y1D01*
X2549Y1D01*
X2548Y1D01*
X2547Y1D01*
X2546Y1D01*
X2545Y1D01*
X2544Y1D01*
X2543Y1D01*
X2542Y1D01*
X2541Y1D01*
X2540Y1D01*
X2539Y1D01*
X2538Y1D01*
X2537Y1D01*
X2536Y1D01*
X2535Y1D01*
X2534Y1D01*
X2533Y1D01*
X2532Y1D01*
X2531Y1D01*
X2530Y1D01*
X2529Y1D01*
X2528Y1D01*
X2527Y1D01*
X2526Y1D01*
X2525Y1D01*
X2524Y1D01*
X2523Y1D01*
X2522Y1D01*
X2521Y1D01*
X2520Y1D01*
X2519Y1D01*
X2518Y1D01*
X2517Y1D01*
X2516Y1D01*
X2515Y1D01*
X2514Y1D01*
X2513Y1D01*
X2512Y1D01*
X2511Y1D01*
X2510Y1D01*
X2509Y1D01*
X2508Y1D01*
X2507Y1D01*
X2506Y1D01*
X2505Y1D01*
X2504Y1D01*
X2503Y1D01*
X2502Y1D01*
X2501Y1D01*
X2500Y1D01*
X2499Y1D01*
X2498Y1D01*
X2497Y1D01*
X2496Y1D01*
X2495Y1D01*
X2494Y1D01*
X2493Y1D01*
X2492Y1D01*
X2491Y1D01*
X2490Y1D01*
X2489Y1D01*
X2488Y1D01*
X2487Y1D01*
X2486Y1D01*
X2485Y1D01*
X2484Y1D01*
X2483Y1D01*
X2482Y1D01*
X2481Y1D01*
X2480Y1D01*
X2479Y1D01*
X2478Y1D01*
X2477Y1D01*
X2476Y1D01*
X2475Y1D01*
X2474Y1D01*
X2473Y1D01*
X2472Y1D01*
X2471Y1D01*
X2470Y1D01*
X2469Y1D01*
X2468Y1D01*
X2467Y1D01*
X2466Y1D01*
X2465Y1D01*
X2464Y1D01*
X2463Y1D01*
X2462Y1D01*
X2461Y1D01*
X2460Y1D01*
X2459Y1D01*
X2458Y1D01*
X2457Y1D01*
X2456Y1D01*
X2455Y1D01*
X2454Y1D01*
X2453Y1D01*
X2452Y1D01*
X2451Y1D01*
X2450Y1D01*
X2449Y1D01*
X2448Y1D01*
X2447Y1D01*
X2446Y1D01*
X2445Y1D01*
X2444Y1D01*
X2443Y1D01*
X2442Y1D01*
X2441Y1D01*
X2440Y1D01*
X2439Y1D01*
X2438Y1D01*
X2437Y1D01*
X2436Y1D01*
X2435Y1D01*
X2434Y1D01*
X2433Y1D01*
X2432Y1D01*
X2431Y1D01*
X2430Y1D01*
X2429Y1D01*
X2428Y1D01*
X2427Y1D01*
X2426Y1D01*
X2425Y1D01*
X2424Y1D01*
X2423Y1D01*
X2422Y1D01*
X2421Y1D01*
X2420Y1D01*
X2419Y1D01*
X2418Y1D01*
X2417Y1D01*
X2416Y1D01*
X2415Y1D01*
X2414Y1D01*
X2413Y1D01*
X2412Y1D01*
X2411Y1D01*
X2410Y1D01*
X2409Y1D01*
X2408Y1D01*
X2407Y1D01*
X2406Y1D01*
X2405Y1D01*
X2404Y1D01*
X2403Y1D01*
X2402Y1D01*
X2401Y1D01*
X2400Y1D01*
X2399Y1D01*
X2398Y1D01*
X2397Y1D01*
X2396Y1D01*
X2395Y1D01*
X2394Y1D01*
X2393Y1D01*
X2392Y1D01*
X2391Y1D01*
X2390Y1D01*
X2389Y1D01*
X2388Y1D01*
X2387Y1D01*
X2386Y1D01*
X2385Y1D01*
X2384Y1D01*
X2383Y1D01*
X2382Y1D01*
X2381Y1D01*
X2380Y1D01*
X2379Y1D01*
X2378Y1D01*
X2377Y1D01*
X2376Y1D01*
X2375Y1D01*
X2374Y1D01*
X2373Y1D01*
X2372Y1D01*
X2371Y1D01*
X2370Y1D01*
X2369Y1D01*
X2368Y1D01*
X2367Y1D01*
X2366Y1D01*
X2365Y1D01*
X2364Y1D01*
X2363Y1D01*
X2362Y1D01*
X2361Y1D01*
X2360Y1D01*
X2359Y1D01*
X2358Y1D01*
X2357Y1D01*
X2356Y1D01*
X2355Y1D01*
X2354Y1D01*
X2353Y1D01*
X2352Y1D01*
X2351Y1D01*
X2350Y1D01*
X2349Y1D01*
X2348Y1D01*
X2347Y1D01*
X2346Y1D01*
X2345Y1D01*
X2344Y1D01*
X2343Y1D01*
X2342Y1D01*
X2341Y1D01*
X2340Y1D01*
X2339Y1D01*
X2338Y1D01*
X2337Y1D01*
X2336Y1D01*
X2335Y1D01*
X2334Y1D01*
X2333Y1D01*
X2332Y1D01*
X2331Y1D01*
X2330Y1D01*
X2329Y1D01*
X2328Y1D01*
X2327Y1D01*
X2326Y1D01*
X2325Y1D01*
X2324Y1D01*
X2323Y1D01*
X2322Y1D01*
X2321Y1D01*
X2320Y1D01*
X2319Y1D01*
X2318Y1D01*
X2317Y1D01*
X2316Y1D01*
X2315Y1D01*
X2314Y1D01*
X2313Y1D01*
X2312Y1D01*
X2311Y1D01*
X2310Y1D01*
X2309Y1D01*
X2308Y1D01*
X2307Y1D01*
X2306Y1D01*
X2305Y1D01*
X2304Y1D01*
X2303Y1D01*
X2302Y1D01*
X2301Y1D01*
X2300Y1D01*
X2299Y1D01*
X2298Y1D01*
X2297Y1D01*
X2296Y1D01*
X2295Y1D01*
X2294Y1D01*
X2293Y1D01*
X2292Y1D01*
X2291Y1D01*
X2290Y1D01*
X2289Y1D01*
X2288Y1D01*
X2287Y1D01*
X2286Y1D01*
X2285Y1D01*
X2284Y1D01*
X2283Y1D01*
X2282Y1D01*
X2281Y1D01*
X2280Y1D01*
X2279Y1D01*
X2278Y1D01*
X2277Y1D01*
X2276Y1D01*
X2275Y1D01*
X2274Y1D01*
X2273Y1D01*
X2272Y1D01*
X2271Y1D01*
X2270Y1D01*
X2269Y1D01*
X2268Y1D01*
X2267Y1D01*
X2266Y1D01*
X2265Y1D01*
X2264Y1D01*
X2263Y1D01*
X2262Y1D01*
X2261Y1D01*
X2260Y1D01*
X2259Y1D01*
X2258Y1D01*
X2257Y1D01*
X2256Y1D01*
X2255Y1D01*
X2254Y1D01*
X2253Y1D01*
X2252Y1D01*
X2251Y1D01*
X2250Y1D01*
X2249Y1D01*
X2248Y1D01*
X2247Y1D01*
X2246Y1D01*
X2245Y1D01*
X2244Y1D01*
X2243Y1D01*
X2242Y1D01*
X2241Y1D01*
X2240Y1D01*
X2239Y1D01*
X2238Y1D01*
X2237Y1D01*
X2236Y1D01*
X2235Y1D01*
X2234Y1D01*
X2233Y1D01*
X2232Y1D01*
X2231Y1D01*
X2230Y1D01*
X2229Y1D01*
X2228Y1D01*
X2227Y1D01*
X2226Y1D01*
X2225Y1D01*
X2224Y1D01*
X2223Y1D01*
X2222Y1D01*
X2221Y1D01*
X2220Y1D01*
X2219Y1D01*
X2218Y1D01*
X2217Y1D01*
X2216Y1D01*
X2215Y1D01*
X2214Y1D01*
X2213Y1D01*
X2212Y1D01*
X2211Y1D01*
X2210Y1D01*
X2209Y1D01*
X2208Y1D01*
X2207Y1D01*
X2206Y1D01*
X2205Y1D01*
X2204Y1D01*
X2203Y1D01*
X2202Y1D01*
X2201Y1D01*
X2200Y1D01*
X2199Y1D01*
X2198Y1D01*
X2197Y1D01*
X2196Y1D01*
X2195Y1D01*
X2194Y1D01*
X2193Y1D01*
X2192Y1D01*
X2191Y1D01*
X2190Y1D01*
X2189Y1D01*
X2188Y1D01*
X2187Y1D01*
X2186Y1D01*
X2185Y1D01*
X2184Y1D01*
X2183Y1D01*
X2182Y1D01*
X2181Y1D01*
X2180Y1D01*
X2179Y1D01*
X2178Y1D01*
X2177Y1D01*
X2176Y1D01*
X2175Y1D01*
X2174Y1D01*
X2173Y1D01*
X2172Y1D01*
X2171Y1D01*
X2170Y1D01*
X2169Y1D01*
X2168Y1D01*
X2167Y1D01*
X2166Y1D01*
X2165Y1D01*
X2164Y1D01*
X2163Y1D01*
X2162Y1D01*
X2161Y1D01*
X2160Y1D01*
X2159Y1D01*
X2158Y1D01*
X2157Y1D01*
X2156Y1D01*
X2155Y1D01*
X2154Y1D01*
X2153Y1D01*
X2152Y1D01*
X2151Y1D01*
X2150Y1D01*
X2149Y1D01*
X2148Y1D01*
X2147Y1D01*
X2146Y1D01*
X2145Y1D01*
X2144Y1D01*
X2143Y1D01*
X2142Y1D01*
X2141Y1D01*
X2140Y1D01*
X2139Y1D01*
X2138Y1D01*
X2137Y1D01*
X2136Y1D01*
X2135Y1D01*
X2134Y1D01*
X2133Y1D01*
X2132Y1D01*
X2131Y1D01*
X2130Y1D01*
X2129Y1D01*
X2128Y1D01*
X2127Y1D01*
X2126Y1D01*
X2125Y1D01*
X2124Y1D01*
X2123Y1D01*
X2122Y1D01*
X2121Y1D01*
X2120Y1D01*
X2119Y1D01*
X2118Y1D01*
X2117Y1D01*
X2116Y1D01*
X2115Y1D01*
X2114Y1D01*
X2113Y1D01*
X2112Y1D01*
X2111Y1D01*
X2110Y1D01*
X2109Y1D01*
X2108Y1D01*
X2107Y1D01*
X2106Y1D01*
X2105Y1D01*
X2104Y1D01*
X2103Y1D01*
X2102Y1D01*
X2101Y1D01*
X2100Y1D01*
X2099Y1D01*
X2098Y1D01*
X2097Y1D01*
X2096Y1D01*
X2095Y1D01*
X2094Y1D01*
X2093Y1D01*
X2092Y1D01*
X2091Y1D01*
X2090Y1D01*
X2089Y1D01*
X2088Y1D01*
X2087Y1D01*
X2086Y1D01*
X2085Y1D01*
X2084Y1D01*
X2083Y1D01*
X2082Y1D01*
X2081Y1D01*
X2080Y1D01*
X2079Y1D01*
X2078Y1D01*
X2077Y1D01*
X2076Y1D01*
X2075Y1D01*
X2074Y1D01*
X2073Y1D01*
X2072Y1D01*
X2071Y1D01*
X2070Y1D01*
X2069Y1D01*
X2068Y1D01*
X2067Y1D01*
X2066Y1D01*
X2065Y1D01*
X2064Y1D01*
X2063Y1D01*
X2062Y1D01*
X2061Y1D01*
X2060Y1D01*
X2059Y1D01*
X2058Y1D01*
X2057Y1D01*
X2056Y1D01*
X2055Y1D01*
X2054Y1D01*
X2053Y1D01*
X2052Y1D01*
X2051Y1D01*
X2050Y1D01*
X2049Y1D01*
X2048Y1D01*
X2047Y1D01*
X2046Y1D01*
X2045Y1D01*
X2044Y1D01*
X2043Y1D01*
X2042Y1D01*
X2041Y1D01*
X2040Y1D01*
X2039Y1D01*
X2038Y1D01*
X2037Y1D01*
X2036Y1D01*
X2035Y1D01*
X2034Y1D01*
X2033Y1D01*
X2032Y1D01*
X2031Y1D01*
X2030Y1D01*
X2029Y1D01*
X2028Y1D01*
X2027Y1D01*
X2026Y1D01*
X2025Y1D01*
X2024Y1D01*
X2023Y1D01*
X2022Y1D01*
X2021Y1D01*
X2020Y1D01*
X2019Y1D01*
X2018Y1D01*
X2017Y1D01*
X2016Y1D01*
X2015Y1D01*
X2014Y1D01*
X2013Y1D01*
X2012Y1D01*
X2011Y1D01*
X2010Y1D01*
X2009Y1D01*
X2008Y1D01*
X2007Y1D01*
X2006Y1D01*
X2005Y1D01*
X2004Y1D01*
X2003Y1D01*
X2002Y1D01*
X2001Y1D01*
X2000Y1D01*
X1999Y1D01*
X1998Y1D01*
X1997Y1D01*
X1996Y1D01*
X1995Y1D01*
X1994Y1D01*
X1993Y1D01*
X1992Y1D01*
X1991Y1D01*
X1990Y1D01*
X1989Y1D01*
X1988Y1D01*
X1987Y1D01*
X1986Y1D01*
X1985Y1D01*
X1984Y1D01*
X1983Y1D01*
X1982Y1D01*
X1981Y1D01*
X1980Y1D01*
X1979Y1D01*
X1978Y1D01*
X1977Y1D01*
X1976Y1D01*
X1975Y1D01*
X1974Y1D01*
X1973Y1D01*
X1972Y1D01*
X1971Y1D01*
X1970Y1D01*
X1969Y1D01*
X1968Y1D01*
X1967Y1D01*
X1966Y1D01*
X1965Y1D01*
X1964Y1D01*
X1963Y1D01*
X1962Y1D01*
X1961Y1D01*
X1960Y1D01*
X1959Y1D01*
X1958Y1D01*
X1957Y1D01*
X1956Y1D01*
X1955Y1D01*
X1954Y1D01*
X1953Y1D01*
X1952Y1D01*
X1951Y1D01*
X1950Y1D01*
X1949Y1D01*
X1948Y1D01*
X1947Y1D01*
X1946Y1D01*
X1945Y1D01*
X1944Y1D01*
X1943Y1D01*
X1942Y1D01*
X1941Y1D01*
X1940Y1D01*
X1939Y1D01*
X1938Y1D01*
X1937Y1D01*
X1936Y1D01*
X1935Y1D01*
X1934Y1D01*
X1933Y1D01*
X1932Y1D01*
X1931Y1D01*
X1930Y1D01*
X1929Y1D01*
X1928Y1D01*
X1927Y1D01*
X1926Y1D01*
X1925Y1D01*
X1924Y1D01*
X1923Y1D01*
X1922Y1D01*
X1921Y1D01*
X1920Y1D01*
X1919Y1D01*
X1918Y1D01*
X1917Y1D01*
X1916Y1D01*
X1915Y1D01*
X1914Y1D01*
X1913Y1D01*
X1912Y1D01*
X1911Y1D01*
X1910Y1D01*
X1909Y1D01*
X1908Y1D01*
X1907Y1D01*
X1906Y1D01*
X1905Y1D01*
X1904Y1D01*
X1903Y1D01*
X1902Y1D01*
X1901Y1D01*
X1900Y1D01*
X1899Y1D01*
X1898Y1D01*
X1897Y1D01*
X1896Y1D01*
X1895Y1D01*
X1894Y1D01*
X1893Y1D01*
X1892Y1D01*
X1891Y1D01*
X1890Y1D01*
X1889Y1D01*
X1888Y1D01*
X1887Y1D01*
X1886Y1D01*
X1885Y1D01*
X1884Y1D01*
X1883Y1D01*
X1882Y1D01*
X1881Y1D01*
X1880Y1D01*
X1879Y1D01*
X1878Y1D01*
X1877Y1D01*
X1876Y1D01*
X1875Y1D01*
X1874Y1D01*
X1873Y1D01*
X1872Y1D01*
X1871Y1D01*
X1870Y1D01*
X1869Y1D01*
X1868Y1D01*
X1867Y1D01*
X1866Y1D01*
X1865Y1D01*
X1864Y1D01*
X1863Y1D01*
X1862Y1D01*
X1861Y1D01*
X1860Y1D01*
X1859Y1D01*
X1858Y1D01*
X1857Y1D01*
X1856Y1D01*
X1855Y1D01*
X1854Y1D01*
X1853Y1D01*
X1852Y1D01*
X1851Y1D01*
X1850Y1D01*
X1849Y1D01*
X1848Y1D01*
X1847Y1D01*
X1846Y1D01*
X1845Y1D01*
X1844Y1D01*
X1843Y1D01*
X1842Y1D01*
X1841Y1D01*
X1840Y1D01*
X1839Y1D01*
X1838Y1D01*
X1837Y1D01*
X1836Y1D01*
X1835Y1D01*
X1834Y1D01*
X1833Y1D01*
X1832Y1D01*
X1831Y1D01*
X1830Y1D01*
X1829Y1D01*
X1828Y1D01*
X1827Y1D01*
X1826Y1D01*
X1825Y1D01*
X1824Y1D01*
X1823Y1D01*
X1822Y1D01*
X1821Y1D01*
X1820Y1D01*
X1819Y1D01*
X1818Y1D01*
X1817Y1D01*
X1816Y1D01*
X1815Y1D01*
X1814Y1D01*
X1813Y1D01*
X1812Y1D01*
X1811Y1D01*
X1810Y1D01*
X1809Y1D01*
X1808Y1D01*
X1807Y1D01*
X1806Y1D01*
X1805Y1D01*
X1804Y1D01*
X1803Y1D01*
X1802Y1D01*
X1801Y1D01*
X1800Y1D01*
X1799Y1D01*
X1798Y1D01*
X1797Y1D01*
X1796Y1D01*
X1795Y1D01*
X1794Y1D01*
X1793Y1D01*
X1792Y1D01*
X1791Y1D01*
X1790Y1D01*
X1789Y1D01*
X1788Y1D01*
X1787Y1D01*
X1786Y1D01*
X1785Y1D01*
X1784Y1D01*
X1783Y1D01*
X1782Y1D01*
X1781Y1D01*
X1780Y1D01*
X1779Y1D01*
X1778Y1D01*
X1777Y1D01*
X1776Y1D01*
X1775Y1D01*
X1774Y1D01*
X1773Y1D01*
X1772Y1D01*
X1771Y1D01*
X1770Y1D01*
X1769Y1D01*
X1768Y1D01*
X1767Y1D01*
X1766Y1D01*
X1765Y1D01*
X1764Y1D01*
X1763Y1D01*
X1762Y1D01*
X1761Y1D01*
X1760Y1D01*
X1759Y1D01*
X1758Y1D01*
X1757Y1D01*
X1756Y1D01*
X1755Y1D01*
X1754Y1D01*
X1753Y1D01*
X1752Y1D01*
X1751Y1D01*
X1750Y1D01*
X1749Y1D01*
X1748Y1D01*
X1747Y1D01*
X1746Y1D01*
X1745Y1D01*
X1744Y1D01*
X1743Y1D01*
X1742Y1D01*
X1741Y1D01*
X1740Y1D01*
X1739Y1D01*
X1738Y1D01*
X1737Y1D01*
X1736Y1D01*
X1735Y1D01*
X1734Y1D01*
X1733Y1D01*
X1732Y1D01*
X1731Y1D01*
X1730Y1D01*
X1729Y1D01*
X1728Y1D01*
X1727Y1D01*
X1726Y1D01*
X1725Y1D01*
X1724Y1D01*
X1723Y1D01*
X1722Y1D01*
X1721Y1D01*
X1720Y1D01*
X1719Y1D01*
X1718Y1D01*
X1717Y1D01*
X1716Y1D01*
X1715Y1D01*
X1714Y1D01*
X1713Y1D01*
X1712Y1D01*
X1711Y1D01*
X1710Y1D01*
X1709Y1D01*
X1708Y1D01*
X1707Y1D01*
X1706Y1D01*
X1705Y1D01*
X1704Y1D01*
X1703Y1D01*
X1702Y1D01*
X1701Y1D01*
X1700Y1D01*
X1699Y1D01*
X1698Y1D01*
X1697Y1D01*
X1696Y1D01*
X1695Y1D01*
X1694Y1D01*
X1693Y1D01*
X1692Y1D01*
X1691Y1D01*
X1690Y1D01*
X1689Y1D01*
X1688Y1D01*
X1687Y1D01*
X1686Y1D01*
X1685Y1D01*
X1684Y1D01*
X1683Y1D01*
X1682Y1D01*
X1681Y1D01*
X1680Y1D01*
X1679Y1D01*
X1678Y1D01*
X1677Y1D01*
X1676Y1D01*
X1675Y1D01*
X1674Y1D01*
X1673Y1D01*
X1672Y1D01*
X1671Y1D01*
X1670Y1D01*
X1669Y1D01*
X1668Y1D01*
X1667Y1D01*
X1666Y1D01*
X1665Y1D01*
X1664Y1D01*
X1663Y1D01*
X1662Y1D01*
X1661Y1D01*
X1660Y1D01*
X1659Y1D01*
X1658Y1D01*
X1657Y1D01*
X1656Y1D01*
X1655Y1D01*
X1654Y1D01*
X1653Y1D01*
X1652Y1D01*
X1651Y1D01*
X1650Y1D01*
X1649Y1D01*
X1648Y1D01*
X1647Y1D01*
X1646Y1D01*
X1645Y1D01*
X1644Y1D01*
X1643Y1D01*
X1642Y1D01*
X1641Y1D01*
X1640Y1D01*
X1639Y1D01*
X1638Y1D01*
X1637Y1D01*
X1636Y1D01*
X1635Y1D01*
X1634Y1D01*
X1633Y1D01*
X1632Y1D01*
X1631Y1D01*
X1630Y1D01*
X1629Y1D01*
X1628Y1D01*
X1627Y1D01*
X1626Y1D01*
X1625Y1D01*
X1624Y1D01*
X1623Y1D01*
X1622Y1D01*
X1621Y1D01*
X1620Y1D01*
X1619Y1D01*
X1618Y1D01*
X1617Y1D01*
X1616Y1D01*
X1615Y1D01*
X1614Y1D01*
X1613Y1D01*
X1612Y1D01*
X1611Y1D01*
X1610Y1D01*
X1609Y1D01*
X1608Y1D01*
X1607Y1D01*
X1606Y1D01*
X1605Y1D01*
X1604Y1D01*
X1603Y1D01*
X1602Y1D01*
X1601Y1D01*
X1600Y1D01*
X1599Y1D01*
X1598Y1D01*
X1597Y1D01*
X1596Y1D01*
X1595Y1D01*
X1594Y1D01*
X1593Y1D01*
X1592Y1D01*
X1591Y1D01*
X1590Y1D01*
X1589Y1D01*
X1588Y1D01*
X1587Y1D01*
X1586Y1D01*
X1585Y1D01*
X1584Y1D01*
X1583Y1D01*
X1582Y1D01*
X1581Y1D01*
X1580Y1D01*
X1579Y1D01*
X1578Y1D01*
X1577Y1D01*
X1576Y1D01*
X1575Y1D01*
X1574Y1D01*
X1573Y1D01*
X1572Y1D01*
X1571Y1D01*
X1570Y1D01*
X1569Y1D01*
X1568Y1D01*
X1567Y1D01*
X1566Y1D01*
X1565Y1D01*
X1564Y1D01*
X1563Y1D01*
X1562Y1D01*
X1561Y1D01*
X1560Y1D01*
X1559Y1D01*
X1558Y1D01*
X1557Y1D01*
X1556Y1D01*
X1555Y1D01*
X1554Y1D01*
X1553Y1D01*
X1552Y1D01*
X1551Y1D01*
X1550Y1D01*
X1549Y1D01*
X1548Y1D01*
X1547Y1D01*
X1546Y1D01*
X1545Y1D01*
X1544Y1D01*
X1543Y1D01*
X1542Y1D01*
X1541Y1D01*
X1540Y1D01*
X1539Y1D01*
X1538Y1D01*
X1537Y1D01*
X1536Y1D01*
X1535Y1D01*
X1534Y1D01*
X1533Y1D01*
X1532Y1D01*
X1531Y1D01*
X1530Y1D01*
X1529Y1D01*
X1528Y1D01*
X1527Y1D01*
X1526Y1D01*
X1525Y1D01*
X1524Y1D01*
X1523Y1D01*
X1522Y1D01*
X1521Y1D01*
X1520Y1D01*
X1519Y1D01*
X1518Y1D01*
X1517Y1D01*
X1516Y1D01*
X1515Y1D01*
X1514Y1D01*
X1513Y1D01*
X1512Y1D01*
X1511Y1D01*
X1510Y1D01*
X1509Y1D01*
X1508Y1D01*
X1507Y1D01*
X1506Y1D01*
X1505Y1D01*
X1504Y1D01*
X1503Y1D01*
X1502Y1D01*
X1501Y1D01*
X1500Y1D01*
X1499Y1D01*
X1498Y1D01*
X1497Y1D01*
X1496Y1D01*
X1495Y1D01*
X1494Y1D01*
X1493Y1D01*
X1492Y1D01*
X1491Y1D01*
X1490Y1D01*
X1489Y1D01*
X1488Y1D01*
X1487Y1D01*
X1486Y1D01*
X1485Y1D01*
X1484Y1D01*
X1483Y1D01*
X1482Y1D01*
X1481Y1D01*
X1480Y1D01*
X1479Y1D01*
X1478Y1D01*
X1477Y1D01*
X1476Y1D01*
X1475Y1D01*
X1474Y1D01*
X1473Y1D01*
X1472Y1D01*
X1471Y1D01*
X1470Y1D01*
X1469Y1D01*
X1468Y1D01*
X1467Y1D01*
X1466Y1D01*
X1465Y1D01*
X1464Y1D01*
X1463Y1D01*
X1462Y1D01*
X1461Y1D01*
X1460Y1D01*
X1459Y1D01*
X1458Y1D01*
X1457Y1D01*
X1456Y1D01*
X1455Y1D01*
X1454Y1D01*
X1453Y1D01*
X1452Y1D01*
X1451Y1D01*
X1450Y1D01*
X1449Y1D01*
X1448Y1D01*
X1447Y1D01*
X1446Y1D01*
X1445Y1D01*
X1444Y1D01*
X1443Y1D01*
X1442Y1D01*
X1441Y1D01*
X1440Y1D01*
X1439Y1D01*
X1438Y1D01*
X1437Y1D01*
X1436Y1D01*
X1435Y1D01*
X1434Y1D01*
X1433Y1D01*
X1432Y1D01*
X1431Y1D01*
X1430Y1D01*
X1429Y1D01*
X1428Y1D01*
X1427Y1D01*
X1426Y1D01*
X1425Y1D01*
X1424Y1D01*
X1423Y1D01*
X1422Y1D01*
X1421Y1D01*
X1420Y1D01*
X1419Y1D01*
X1418Y1D01*
X1417Y1D01*
X1416Y1D01*
X1415Y1D01*
X1414Y1D01*
X1413Y1D01*
X1412Y1D01*
X1411Y1D01*
X1410Y1D01*
X1409Y1D01*
X1408Y1D01*
X1407Y1D01*
X1406Y1D01*
X1405Y1D01*
X1404Y1D01*
X1403Y1D01*
X1402Y1D01*
X1401Y1D01*
X1400Y1D01*
X1399Y1D01*
X1398Y1D01*
X1397Y1D01*
X1396Y1D01*
X1395Y1D01*
X1394Y1D01*
X1393Y1D01*
X1392Y1D01*
X1391Y1D01*
X1390Y1D01*
X1389Y1D01*
X1388Y1D01*
X1387Y1D01*
X1386Y1D01*
X1385Y1D01*
X1384Y1D01*
X1383Y1D01*
X1382Y1D01*
X1381Y1D01*
X1380Y1D01*
X1379Y1D01*
X1378Y1D01*
X1377Y1D01*
X1376Y1D01*
X1375Y1D01*
X1374Y1D01*
X1373Y1D01*
X1372Y1D01*
X1371Y1D01*
X1370Y1D01*
X1369Y1D01*
X1368Y1D01*
X1367Y1D01*
X1366Y1D01*
X1365Y1D01*
X1364Y1D01*
X1363Y1D01*
X1362Y1D01*
X1361Y1D01*
X1360Y1D01*
X1359Y1D01*
X1358Y1D01*
X1357Y1D01*
X1356Y1D01*
X1355Y1D01*
X1354Y1D01*
X1353Y1D01*
X1352Y1D01*
X1351Y1D01*
X1350Y1D01*
X1349Y1D01*
X1348Y1D01*
X1347Y1D01*
X1346Y1D01*
X1345Y1D01*
X1344Y1D01*
X1343Y1D01*
X1342Y1D01*
X1341Y1D01*
X1340Y1D01*
X1339Y1D01*
X1338Y1D01*
X1337Y1D01*
X1336Y1D01*
X1335Y1D01*
X1334Y1D01*
X1333Y1D01*
X1332Y1D01*
X1331Y1D01*
X1330Y1D01*
X1329Y1D01*
X1328Y1D01*
X1327Y1D01*
X1326Y1D01*
X1325Y1D01*
X1324Y1D01*
X1323Y1D01*
X1322Y1D01*
X1321Y1D01*
X1320Y1D01*
X1319Y1D01*
X1318Y1D01*
X1317Y1D01*
X1316Y1D01*
X1315Y1D01*
X1314Y1D01*
X1313Y1D01*
X1312Y1D01*
X1311Y1D01*
X1310Y1D01*
X1309Y1D01*
X1308Y1D01*
X1307Y1D01*
X1306Y1D01*
X1305Y1D01*
X1304Y1D01*
X1303Y1D01*
X1302Y1D01*
X1301Y1D01*
X1300Y1D01*
X1299Y1D01*
X1298Y1D01*
X1297Y1D01*
X1296Y1D01*
X1295Y1D01*
X1294Y1D01*
X1293Y1D01*
X1292Y1D01*
X1291Y1D01*
X1290Y1D01*
X1289Y1D01*
X1288Y1D01*
X1287Y1D01*
X1286Y1D01*
X1285Y1D01*
X1284Y1D01*
X1283Y1D01*
X1282Y1D01*
X1281Y1D01*
X1280Y1D01*
X1279Y1D01*
X1278Y1D01*
X1277Y1D01*
X1276Y1D01*
X1275Y1D01*
X1274Y1D01*
X1273Y1D01*
X1272Y1D01*
X1271Y1D01*
X1270Y1D01*
X1269Y1D01*
X1268Y1D01*
X1267Y1D01*
X1266Y1D01*
X1265Y1D01*
X1264Y1D01*
X1263Y1D01*
X1262Y1D01*
X1261Y1D01*
X1260Y1D01*
X1259Y1D01*
X1258Y1D01*
X1257Y1D01*
X1256Y1D01*
X1255Y1D01*
X1254Y1D01*
X1253Y1D01*
X1252Y1D01*
X1251Y1D01*
X1250Y1D01*
X1249Y1D01*
X1248Y1D01*
X1247Y1D01*
X1246Y1D01*
X1245Y1D01*
X1244Y1D01*
X1243Y1D01*
X1242Y1D01*
X1241Y1D01*
X1240Y1D01*
X1239Y1D01*
X1238Y1D01*
X1237Y1D01*
X1236Y1D01*
X1235Y1D01*
X1234Y1D01*
X1233Y1D01*
X1232Y1D01*
X1231Y1D01*
X1230Y1D01*
X1229Y1D01*
X1228Y1D01*
X1227Y1D01*
X1226Y1D01*
X1225Y1D01*
X1224Y1D01*
X1223Y1D01*
X1222Y1D01*
X1221Y1D01*
X1220Y1D01*
X1219Y1D01*
X1218Y1D01*
X1217Y1D01*
X1216Y1D01*
X1215Y1D01*
X1214Y1D01*
X1213Y1D01*
X1212Y1D01*
X1211Y1D01*
X1210Y1D01*
X1209Y1D01*
X1208Y1D01*
X1207Y1D01*
X1206Y1D01*
X1205Y1D01*
X1204Y1D01*
X1203Y1D01*
X1202Y1D01*
X1201Y1D01*
X1200Y1D01*
X1199Y1D01*
X1198Y1D01*
X1197Y1D01*
X1196Y1D01*
X1195Y1D01*
X1194Y1D01*
X1193Y1D01*
X1192Y1D01*
X1191Y1D01*
X1190Y1D01*
X1189Y1D01*
X1188Y1D01*
X1187Y1D01*
X1186Y1D01*
X1185Y1D01*
X1184Y1D01*
X1183Y1D01*
X1182Y1D01*
X1181Y1D01*
X1180Y1D01*
X1179Y1D01*
X1178Y1D01*
X1177Y1D01*
X1176Y1D01*
X1175Y1D01*
X1174Y1D01*
X1173Y1D01*
X1172Y1D01*
X1171Y1D01*
X1170Y1D01*
X1169Y1D01*
X1168Y1D01*
X1167Y1D01*
X1166Y1D01*
X1165Y1D01*
X1164Y1D01*
X1163Y1D01*
X1162Y1D01*
X1161Y1D01*
X1160Y1D01*
X1159Y1D01*
X1158Y1D01*
X1157Y1D01*
X1156Y1D01*
X1155Y1D01*
X1154Y1D01*
X1153Y1D01*
X1152Y1D01*
X1151Y1D01*
X1150Y1D01*
X1149Y1D01*
X1148Y1D01*
X1147Y1D01*
X1146Y1D01*
X1145Y1D01*
X1144Y1D01*
X1143Y1D01*
X1142Y1D01*
X1141Y1D01*
X1140Y1D01*
X1139Y1D01*
X1138Y1D01*
X1137Y1D01*
X1136Y1D01*
X1135Y1D01*
X1134Y1D01*
X1133Y1D01*
X1132Y1D01*
X1131Y1D01*
X1130Y1D01*
X1129Y1D01*
X1128Y1D01*
X1127Y1D01*
X1126Y1D01*
X1125Y1D01*
X1124Y1D01*
X1123Y1D01*
X1122Y1D01*
X1121Y1D01*
X1120Y1D01*
X1119Y1D01*
X1118Y1D01*
X1117Y1D01*
X1116Y1D01*
X1115Y1D01*
X1114Y1D01*
X1113Y1D01*
X1112Y1D01*
X1111Y1D01*
X1110Y1D01*
X1109Y1D01*
X1108Y1D01*
X1107Y1D01*
X1106Y1D01*
X1105Y1D01*
X1104Y1D01*
X1103Y1D01*
X1102Y1D01*
X1101Y1D01*
X1100Y1D01*
X1099Y1D01*
X1098Y1D01*
X1097Y1D01*
X1096Y1D01*
X1095Y1D01*
X1094Y1D01*
X1093Y1D01*
X1092Y1D01*
X1091Y1D01*
X1090Y1D01*
X1089Y1D01*
X1088Y1D01*
X1087Y1D01*
X1086Y1D01*
X1085Y1D01*
X1084Y1D01*
X1083Y1D01*
X1082Y1D01*
X1081Y1D01*
X1080Y1D01*
X1079Y1D01*
X1078Y1D01*
X1077Y1D01*
X1076Y1D01*
X1075Y1D01*
X1074Y1D01*
X1073Y1D01*
X1072Y1D01*
X1071Y1D01*
X1070Y1D01*
X1069Y1D01*
X1068Y1D01*
X1067Y1D01*
X1066Y1D01*
X1065Y1D01*
X1064Y1D01*
X1063Y1D01*
X1062Y1D01*
X1061Y1D01*
X1060Y1D01*
X1059Y1D01*
X1058Y1D01*
X1057Y1D01*
X1056Y1D01*
X1055Y1D01*
X1054Y1D01*
X1053Y1D01*
X1052Y1D01*
X1051Y1D01*
X1050Y1D01*
X1049Y1D01*
X1048Y1D01*
X1047Y1D01*
X1046Y1D01*
X1045Y1D01*
X1044Y1D01*
X1043Y1D01*
X1042Y1D01*
X1041Y1D01*
X1040Y1D01*
X1039Y1D01*
X1038Y1D01*
X1037Y1D01*
X1036Y1D01*
X1035Y1D01*
X1034Y1D01*
X1033Y1D01*
X1032Y1D01*
X1031Y1D01*
X1030Y1D01*
X1029Y1D01*
X1028Y1D01*
X1027Y1D01*
X1026Y1D01*
X1025Y1D01*
X1024Y1D01*
X1023Y1D01*
X1022Y1D01*
X1021Y1D01*
X1020Y1D01*
X1019Y1D01*
X1018Y1D01*
X1017Y1D01*
X1016Y1D01*
X1015Y1D01*
X1014Y1D01*
X1013Y1D01*
X1012Y1D01*
X1011Y1D01*
X1010Y1D01*
X1009Y1D01*
X1008Y1D01*
X1007Y1D01*
X1006Y1D01*
X1005Y1D01*
X1004Y1D01*
X1003Y1D01*
X1002Y1D01*
X1001Y1D01*
X1000Y1D01*
X999Y1D01*
X998Y1D01*
X997Y1D01*
X996Y1D01*
X995Y1D01*
X994Y1D01*
X993Y1D01*
X992Y1D01*
X991Y1D01*
X990Y1D01*
X989Y1D01*
X988Y1D01*
X987Y1D01*
X986Y1D01*
X985Y1D01*
X984Y1D01*
X983Y1D01*
X982Y1D01*
X981Y1D01*
X980Y1D01*
X979Y1D01*
X978Y1D01*
X977Y1D01*
X976Y1D01*
X975Y1D01*
X974Y1D01*
X973Y1D01*
X972Y1D01*
X971Y1D01*
X970Y1D01*
X969Y1D01*
X968Y1D01*
X967Y1D01*
X966Y1D01*
X965Y1D01*
X964Y1D01*
X963Y1D01*
X962Y1D01*
X961Y1D01*
X960Y1D01*
X959Y1D01*
X958Y1D01*
X957Y1D01*
X956Y1D01*
X955Y1D01*
X954Y1D01*
X953Y1D01*
X952Y1D01*
X951Y1D01*
X950Y1D01*
X949Y1D01*
X948Y1D01*
X947Y1D01*
X946Y1D01*
X945Y1D01*
X944Y1D01*
X943Y1D01*
X942Y1D01*
X941Y1D01*
X940Y1D01*
X939Y1D01*
X938Y1D01*
X937Y1D01*
X936Y1D01*
X935Y1D01*
X934Y1D01*
X933Y1D01*
X932Y1D01*
X931Y1D01*
X930Y1D01*
X929Y1D01*
X928Y1D01*
X927Y1D01*
X926Y1D01*
X925Y1D01*
X924Y1D01*
X923Y1D01*
X922Y1D01*
X921Y1D01*
X920Y1D01*
X919Y1D01*
X918Y1D01*
X917Y1D01*
X916Y1D01*
X915Y1D01*
X914Y1D01*
X913Y1D01*
X912Y1D01*
X911Y1D01*
X910Y1D01*
X909Y1D01*
X908Y1D01*
X907Y1D01*
X906Y1D01*
X905Y1D01*
X904Y1D01*
X903Y1D01*
X902Y1D01*
X901Y1D01*
X900Y1D01*
X899Y1D01*
X898Y1D01*
X897Y1D01*
X896Y1D01*
X895Y1D01*
X894Y1D01*
X893Y1D01*
X892Y1D01*
X891Y1D01*
X890Y1D01*
X889Y1D01*
X888Y1D01*
X887Y1D01*
X886Y1D01*
X885Y1D01*
X884Y1D01*
X883Y1D01*
X882Y1D01*
X881Y1D01*
X880Y1D01*
X879Y1D01*
X878Y1D01*
X877Y1D01*
X876Y1D01*
X875Y1D01*
X874Y1D01*
X873Y1D01*
X872Y1D01*
X871Y1D01*
X870Y1D01*
X869Y1D01*
X868Y1D01*
X867Y1D01*
X866Y1D01*
X865Y1D01*
X864Y1D01*
X863Y1D01*
X862Y1D01*
X861Y1D01*
X860Y1D01*
X859Y1D01*
X858Y1D01*
X857Y1D01*
X856Y1D01*
X855Y1D01*
X854Y1D01*
X853Y1D01*
X852Y1D01*
X851Y1D01*
X850Y1D01*
X849Y1D01*
X848Y1D01*
X847Y1D01*
X846Y1D01*
X845Y1D01*
X844Y1D01*
X843Y1D01*
X842Y1D01*
X841Y1D01*
X840Y1D01*
X839Y1D01*
X838Y1D01*
X837Y1D01*
X836Y1D01*
X835Y1D01*
X834Y1D01*
X833Y1D01*
X832Y1D01*
X831Y1D01*
X830Y1D01*
X829Y1D01*
X828Y1D01*
X827Y1D01*
X826Y1D01*
X825Y1D01*
X824Y1D01*
X823Y1D01*
X822Y1D01*
X821Y1D01*
X820Y1D01*
X819Y1D01*
X818Y1D01*
X817Y1D01*
X816Y1D01*
X815Y1D01*
X814Y1D01*
X813Y1D01*
X812Y1D01*
X811Y1D01*
X810Y1D01*
X809Y1D01*
X808Y1D01*
X807Y1D01*
X806Y1D01*
X805Y1D01*
X804Y1D01*
X803Y1D01*
X802Y1D01*
X801Y1D01*
X800Y1D01*
X799Y1D01*
X798Y1D01*
X797Y1D01*
X796Y1D01*
X795Y1D01*
X794Y1D01*
X793Y1D01*
X792Y1D01*
X791Y1D01*
X790Y1D01*
X789Y1D01*
X788Y1D01*
X787Y1D01*
X786Y1D01*
X785Y1D01*
X784Y1D01*
X783Y1D01*
X782Y1D01*
X781Y1D01*
X780Y1D01*
X779Y1D01*
X778Y1D01*
X777Y1D01*
X776Y1D01*
X775Y1D01*
X774Y1D01*
X773Y1D01*
X772Y1D01*
X771Y1D01*
X770Y1D01*
X769Y1D01*
X768Y1D01*
X767Y1D01*
X766Y1D01*
X765Y1D01*
X764Y1D01*
X763Y1D01*
X762Y1D01*
X761Y1D01*
X760Y1D01*
X759Y1D01*
X758Y1D01*
X757Y1D01*
X756Y1D01*
X755Y1D01*
X754Y1D01*
X753Y1D01*
X752Y1D01*
X751Y1D01*
X750Y1D01*
X749Y1D01*
X748Y1D01*
X747Y1D01*
X746Y1D01*
X745Y1D01*
X744Y1D01*
X743Y1D01*
X742Y1D01*
X741Y1D01*
X740Y1D01*
X739Y1D01*
X738Y1D01*
X737Y1D01*
X736Y1D01*
X735Y1D01*
X734Y1D01*
X733Y1D01*
X732Y1D01*
X731Y1D01*
X730Y1D01*
X729Y1D01*
X728Y1D01*
X727Y1D01*
X726Y1D01*
X725Y1D01*
X724Y1D01*
X723Y1D01*
X722Y1D01*
X721Y1D01*
X720Y1D01*
X719Y1D01*
X718Y1D01*
X717Y1D01*
X716Y1D01*
X715Y1D01*
X714Y1D01*
X713Y1D01*
X712Y1D01*
X711Y1D01*
X710Y1D01*
X709Y1D01*
X708Y1D01*
X707Y1D01*
X706Y1D01*
X705Y1D01*
X704Y1D01*
X703Y1D01*
X702Y1D01*
X701Y1D01*
X700Y1D01*
X699Y1D01*
X698Y1D01*
X697Y1D01*
X696Y1D01*
X695Y1D01*
X694Y1D01*
X693Y1D01*
X692Y1D01*
X691Y1D01*
X690Y1D01*
X689Y1D01*
X688Y1D01*
X687Y1D01*
X686Y1D01*
X685Y1D01*
X684Y1D01*
X683Y1D01*
X682Y1D01*
X681Y1D01*
X680Y1D01*
X679Y1D01*
X678Y1D01*
X677Y1D01*
X676Y1D01*
X675Y1D01*
X674Y1D01*
X673Y1D01*
X672Y1D01*
X671Y1D01*
X670Y1D01*
X669Y1D01*
X668Y1D01*
X667Y1D01*
X666Y1D01*
X665Y1D01*
X664Y1D01*
X663Y1D01*
X662Y1D01*
X661Y1D01*
X660Y1D01*
X659Y1D01*
X658Y1D01*
X657Y1D01*
X656Y1D01*
X655Y1D01*
X654Y1D01*
X653Y1D01*
X652Y1D01*
X651Y1D01*
X650Y1D01*
X649Y1D01*
X648Y1D01*
X647Y1D01*
X646Y1D01*
X645Y1D01*
X644Y1D01*
X643Y1D01*
X642Y1D01*
X641Y1D01*
X640Y1D01*
X639Y1D01*
X638Y1D01*
X637Y1D01*
X636Y1D01*
X635Y1D01*
X634Y1D01*
X633Y1D01*
X632Y1D01*
X631Y1D01*
X630Y1D01*
X629Y1D01*
X628Y1D01*
X627Y1D01*
X626Y1D01*
X625Y1D01*
X624Y1D01*
X623Y1D01*
X622Y1D01*
X621Y1D01*
X620Y1D01*
X619Y1D01*
X618Y1D01*
X617Y1D01*
X616Y1D01*
X615Y1D01*
X614Y1D01*
X613Y1D01*
X612Y1D01*
X611Y1D01*
X610Y1D01*
X609Y1D01*
X608Y1D01*
X607Y1D01*
X606Y1D01*
X605Y1D01*
X604Y1D01*
X603Y1D01*
X602Y1D01*
X601Y1D01*
X600Y1D01*
X599Y1D01*
X598Y1D01*
X597Y1D01*
X596Y1D01*
X595Y1D01*
X594Y1D01*
X593Y1D01*
X592Y1D01*
X591Y1D01*
X590Y1D01*
X589Y1D01*
X588Y1D01*
X587Y1D01*
X586Y1D01*
X585Y1D01*
X584Y1D01*
X583Y1D01*
X582Y1D01*
X581Y1D01*
X580Y1D01*
X579Y1D01*
X578Y1D01*
X577Y1D01*
X576Y1D01*
X575Y1D01*
X574Y1D01*
X573Y1D01*
X572Y1D01*
X571Y1D01*
X570Y1D01*
X569Y1D01*
X568Y1D01*
X567Y1D01*
X566Y1D01*
X565Y1D01*
X564Y1D01*
X563Y1D01*
X562Y1D01*
X561Y1D01*
X560Y1D01*
X559Y1D01*
X558Y1D01*
X557Y1D01*
X556Y1D01*
X555Y1D01*
X554Y1D01*
X553Y1D01*
X552Y1D01*
X551Y1D01*
X550Y1D01*
X549Y1D01*
X548Y1D01*
X547Y1D01*
X546Y1D01*
X545Y1D01*
X544Y1D01*
X543Y1D01*
X542Y1D01*
X541Y1D01*
X540Y1D01*
X539Y1D01*
X538Y1D01*
X537Y1D01*
X536Y1D01*
X535Y1D01*
X534Y1D01*
X533Y1D01*
X532Y1D01*
X531Y1D01*
X530Y1D01*
X529Y1D01*
X528Y1D01*
X527Y1D01*
X526Y1D01*
X525Y1D01*
X524Y1D01*
X523Y1D01*
X522Y1D01*
X521Y1D01*
X520Y1D01*
X519Y1D01*
X518Y1D01*
X517Y1D01*
X516Y1D01*
X515Y1D01*
X514Y1D01*
X513Y1D01*
X512Y1D01*
X511Y1D01*
X510Y1D01*
X509Y1D01*
X508Y1D01*
X507Y1D01*
X506Y1D01*
X505Y1D01*
X504Y1D01*
X503Y1D01*
X502Y1D01*
X501Y1D01*
X500Y1D01*
X499Y1D01*
X498Y1D01*
X497Y1D01*
X496Y1D01*
X495Y1D01*
X494Y1D01*
X493Y1D01*
X492Y1D01*
X491Y1D01*
X490Y1D01*
X489Y1D01*
X488Y1D01*
X487Y1D01*
X486Y1D01*
X485Y1D01*
X484Y1D01*
X483Y1D01*
X482Y1D01*
X481Y1D01*
X480Y1D01*
X479Y1D01*
X478Y1D01*
X477Y1D01*
X476Y1D01*
X475Y1D01*
X474Y1D01*
X473Y1D01*
X472Y1D01*
X471Y1D01*
X470Y1D01*
X469Y1D01*
X468Y1D01*
X467Y1D01*
X466Y1D01*
X465Y1D01*
X464Y1D01*
X463Y1D01*
X462Y1D01*
X461Y1D01*
X460Y1D01*
X459Y1D01*
X458Y1D01*
X457Y1D01*
X456Y1D01*
X455Y1D01*
X454Y1D01*
X453Y1D01*
X452Y1D01*
X451Y1D01*
X450Y1D01*
X449Y1D01*
X448Y1D01*
X447Y1D01*
X446Y1D01*
X445Y1D01*
X444Y1D01*
X443Y1D01*
X442Y1D01*
X441Y1D01*
X440Y1D01*
X439Y1D01*
X438Y1D01*
X437Y1D01*
X436Y1D01*
X435Y1D01*
X434Y1D01*
X433Y1D01*
X432Y1D01*
X431Y1D01*
X430Y1D01*
X429Y1D01*
X428Y1D01*
X427Y1D01*
X426Y1D01*
X425Y1D01*
X424Y1D01*
X423Y1D01*
X422Y1D01*
X421Y1D01*
X420Y1D01*
X419Y1D01*
X418Y1D01*
X417Y1D01*
X416Y1D01*
X415Y1D01*
X414Y1D01*
X413Y1D01*
X412Y1D01*
X411Y1D01*
X410Y1D01*
X409Y1D01*
X408Y1D01*
X407Y1D01*
X406Y1D01*
X405Y1D01*
X404Y1D01*
X403Y1D01*
X402Y1D01*
X401Y1D01*
X400Y1D01*
X399Y1D01*
X398Y1D01*
X397Y1D01*
X396Y1D01*
X395Y1D01*
X394Y1D01*
X393Y1D01*
X392Y1D01*
X391Y1D01*
X390Y1D01*
X389Y1D01*
X388Y1D01*
X387Y1D01*
X386Y1D01*
X385Y1D01*
X384Y1D01*
X383Y1D01*
X382Y1D01*
X381Y1D01*
X380Y1D01*
X379Y1D01*
X378Y1D01*
X377Y1D01*
X376Y1D01*
X375Y1D01*
X374Y1D01*
X373Y1D01*
X372Y1D01*
X371Y1D01*
X370Y1D01*
X369Y1D01*
X368Y1D01*
X367Y1D01*
X366Y1D01*
X365Y1D01*
X364Y1D01*
X363Y1D01*
X362Y1D01*
X361Y1D01*
X360Y1D01*
X359Y1D01*
X358Y1D01*
X357Y1D01*
X356Y1D01*
X355Y1D01*
X354Y1D01*
X353Y1D01*
X352Y1D01*
X351Y1D01*
X350Y1D01*
X349Y1D01*
X348Y1D01*
X347Y1D01*
X346Y1D01*
X345Y1D01*
X344Y1D01*
X343Y1D01*
X342Y1D01*
X341Y1D01*
X340Y1D01*
X339Y1D01*
X338Y1D01*
X337Y1D01*
X336Y1D01*
X335Y1D01*
X334Y1D01*
X333Y1D01*
X332Y1D01*
X331Y1D01*
X330Y1D01*
X329Y1D01*
X328Y1D01*
X327Y1D01*
X326Y1D01*
X325Y1D01*
X324Y1D01*
X323Y1D01*
X322Y1D01*
X321Y1D01*
X320Y1D01*
X319Y1D01*
X318Y1D01*
X317Y1D01*
X316Y1D01*
X315Y1D01*
X314Y1D01*
X313Y1D01*
X312Y1D01*
X311Y1D01*
X310Y1D01*
X309Y1D01*
X308Y1D01*
X307Y1D01*
X306Y1D01*
X305Y1D01*
X304Y1D01*
X303Y1D01*
X302Y1D01*
X301Y1D01*
X300Y1D01*
X299Y1D01*
X298Y1D01*
X297Y1D01*
X296Y1D01*
X295Y1D01*
X294Y1D01*
X293Y1D01*
X292Y1D01*
X291Y1D01*
X290Y1D01*
X289Y1D01*
X288Y1D01*
X287Y1D01*
X286Y1D01*
X285Y1D01*
X284Y1D01*
X283Y1D01*
X282Y1D01*
X281Y1D01*
X280Y1D01*
X279Y1D01*
X278Y1D01*
X277Y1D01*
X276Y1D01*
X275Y1D01*
X274Y1D01*
X273Y1D01*
X272Y1D01*
X271Y1D01*
X270Y1D01*
X269Y1D01*
X268Y1D01*
X267Y1D01*
X266Y1D01*
X265Y1D01*
X264Y1D01*
X263Y1D01*
X262Y1D01*
X261Y1D01*
X260Y1D01*
X259Y1D01*
X258Y1D01*
X257Y1D01*
X256Y1D01*
X255Y1D01*
X254Y1D01*
X253Y1D01*
X252Y1D01*
X251Y1D01*
X250Y1D01*
X249Y1D01*
X248Y1D01*
X247Y1D01*
X246Y1D01*
X245Y1D01*
X244Y1D01*
X243Y1D01*
X242Y1D01*
X241Y1D01*
X240Y1D01*
X239Y1D01*
X238Y1D01*
X237Y1D01*
X236Y1D01*
X235Y1D01*
X234Y1D01*
X233Y1D01*
X232Y1D01*
X231Y1D01*
X230Y1D01*
X229Y1D01*
X228Y1D01*
X227Y1D01*
X226Y1D01*
X225Y1D01*
X224Y1D01*
X223Y1D01*
X222Y1D01*
X221Y1D01*
X220Y1D01*
X219Y1D01*
X218Y1D01*
X217Y1D01*
X216Y1D01*
X215Y1D01*
X214Y1D01*
X213Y1D01*
X212Y1D01*
X211Y1D01*
X210Y1D01*
X209Y1D01*
X208Y1D01*
X207Y1D01*
X206Y1D01*
X205Y1D01*
X204Y1D01*
X203Y1D01*
X202Y1D01*
X201Y1D01*
X200Y1D01*
X199Y1D01*
X198Y1D01*
X197Y1D01*
X196Y1D01*
X195Y1D01*
X194Y1D01*
X193Y1D01*
X192Y1D01*
X191Y1D01*
X190Y1D01*
X189Y1D01*
X188Y1D01*
X187Y1D01*
X186Y1D01*
X185Y1D01*
X184Y1D01*
X183Y1D01*
X182Y2D01*
X181Y2D01*
X180Y2D01*
X179Y2D01*
X178Y2D01*
X177Y2D01*
X176Y2D01*
X175Y2D01*
X174Y2D01*
X173Y2D01*
X172Y3D01*
X171Y3D01*
X170Y3D01*
X169Y3D01*
X168Y3D01*
X167Y3D01*
X166Y3D01*
X165Y3D01*
X164Y4D01*
X163Y4D01*
X162Y4D01*
X161Y4D01*
X160Y4D01*
X159Y5D01*
X158Y5D01*
X157Y5D01*
X156Y5D01*
X155Y5D01*
X154Y6D01*
X153Y6D01*
X152Y6D01*
X151Y6D01*
X150Y6D01*
X149Y7D01*
X148Y7D01*
X147Y7D01*
X146Y7D01*
X145Y8D01*
X144Y8D01*
X143Y8D01*
X142Y9D01*
X141Y9D01*
X140Y9D01*
X139Y9D01*
X138Y10D01*
X137Y10D01*
X136Y10D01*
X135Y11D01*
X134Y11D01*
X133Y11D01*
X132Y12D01*
X131Y12D01*
X130Y12D01*
X129Y13D01*
X128Y13D01*
X127Y14D01*
X126Y14D01*
X125Y14D01*
X124Y15D01*
X123Y15D01*
X122Y15D01*
X121Y16D01*
X120Y16D01*
X119Y17D01*
X118Y17D01*
X117Y18D01*
X116Y18D01*
X115Y18D01*
X114Y19D01*
X113Y19D01*
X112Y20D01*
X111Y20D01*
X110Y21D01*
X109Y21D01*
X108Y22D01*
X107Y22D01*
X106Y23D01*
X105Y23D01*
X104Y24D01*
X103Y24D01*
X102Y25D01*
X101Y25D01*
X100Y26D01*
X99Y27D01*
X98Y27D01*
X97Y28D01*
X96Y28D01*
X95Y29D01*
X94Y30D01*
X93Y30D01*
X92Y31D01*
X91Y31D01*
X90Y32D01*
X89Y33D01*
X88Y33D01*
X87Y34D01*
X86Y35D01*
X85Y35D01*
X84Y36D01*
X83Y37D01*
X82Y37D01*
X81Y38D01*
X80Y39D01*
X79Y40D01*
X78Y40D01*
X77Y41D01*
X76Y42D01*
X75Y43D01*
X74Y43D01*
X73Y44D01*
X72Y45D01*
X71Y46D01*
X70Y47D01*
X69Y48D01*
X68Y48D01*
X67Y49D01*
X66Y50D01*
X65Y51D01*
X64Y52D01*
X63Y53D01*
X62Y54D01*
X61Y55D01*
X60Y56D01*
X59Y57D01*
X58Y58D01*
X57Y59D01*
X56Y60D01*
X55Y61D01*
X54Y62D01*
X53Y63D01*
X52Y64D01*
X51Y65D01*
X50Y66D01*
X49Y67D01*
X48Y68D01*
X47Y69D01*
X47Y70D01*
X46Y71D01*
X45Y72D01*
X44Y73D01*
X43Y74D01*
X42Y75D01*
X42Y76D01*
X41Y77D01*
X40Y78D01*
X39Y79D01*
X39Y80D01*
X38Y81D01*
X37Y82D01*
X36Y83D01*
X36Y84D01*
X35Y85D01*
X34Y86D01*
X34Y87D01*
X33Y88D01*
X32Y89D01*
X32Y90D01*
X31Y91D01*
X30Y92D01*
X30Y93D01*
X29Y94D01*
X29Y95D01*
X28Y96D01*
X27Y97D01*
X27Y98D01*
X26Y99D01*
X26Y100D01*
X25Y101D01*
X24Y102D01*
X24Y103D01*
X23Y104D01*
X23Y105D01*
X22Y106D01*
X22Y107D01*
X21Y108D01*
X21Y109D01*
X20Y110D01*
X20Y111D01*
X19Y112D01*
X19Y113D01*
X18Y114D01*
X18Y115D01*
X17Y116D01*
X17Y118D01*
X16Y119D01*
X16Y120D01*
X15Y121D01*
X15Y122D01*
X14Y123D01*
X14Y125D01*
X13Y126D01*
X13Y128D01*
X12Y129D01*
X12Y130D01*
X11Y131D01*
X11Y133D01*
X10Y134D01*
X10Y136D01*
X9Y137D01*
X9Y139D01*
X8Y140D01*
X8Y143D01*
X7Y144D01*
X7Y146D01*
X6Y147D01*
X6Y150D01*
X5Y151D01*
X5Y155D01*
X4Y156D01*
X4Y160D01*
X3Y161D01*
X3Y165D01*
X2Y166D01*
X2Y173D01*
X1Y174D01*
X1Y183D01*
X0Y184D01*
X0Y2769D01*
X1Y2770D01*
X1Y2780D01*
X2Y2781D01*
X2Y2787D01*
X3Y2788D01*
X3Y2793D01*
X4Y2794D01*
X4Y2798D01*
X5Y2799D01*
X5Y2802D01*
X6Y2803D01*
X6Y2806D01*
X7Y2807D01*
X7Y2810D01*
X8Y2811D01*
X8Y2813D01*
X9Y2814D01*
X9Y2816D01*
X10Y2817D01*
X10Y2819D01*
X11Y2820D01*
X11Y2822D01*
X12Y2823D01*
X12Y2825D01*
X13Y2826D01*
X13Y2828D01*
X14Y2829D01*
X14Y2830D01*
X15Y2831D01*
X15Y2833D01*
X16Y2834D01*
X16Y2835D01*
X17Y2836D01*
X17Y2837D01*
X18Y2838D01*
X18Y2839D01*
X19Y2840D01*
X19Y2841D01*
X20Y2842D01*
X20Y2843D01*
X21Y2844D01*
X21Y2845D01*
X22Y2846D01*
X22Y2847D01*
X23Y2848D01*
X23Y2849D01*
X24Y2850D01*
X24Y2851D01*
X25Y2852D01*
X25Y2853D01*
X26Y2854D01*
X26Y2855D01*
X27Y2856D01*
X28Y2857D01*
X28Y2858D01*
X29Y2859D01*
X29Y2860D01*
X30Y2861D01*
X31Y2862D01*
X31Y2863D01*
X32Y2864D01*
X33Y2865D01*
X33Y2866D01*
X34Y2867D01*
X35Y2868D01*
X35Y2869D01*
X36Y2870D01*
X37Y2871D01*
X38Y2872D01*
X38Y2873D01*
X39Y2874D01*
X40Y2875D01*
X41Y2876D01*
X41Y2877D01*
X42Y2878D01*
X43Y2879D01*
X44Y2880D01*
X44Y2881D01*
X45Y2882D01*
X46Y2883D01*
X47Y2884D01*
X48Y2885D01*
X49Y2886D01*
X50Y2887D01*
X50Y2888D01*
X51Y2889D01*
X52Y2890D01*
X53Y2891D01*
X54Y2892D01*
X55Y2893D01*
X56Y2894D01*
X57Y2895D01*
X58Y2896D01*
X59Y2897D01*
X60Y2898D01*
X61Y2899D01*
X62Y2900D01*
X63Y2901D01*
X64Y2902D01*
X65Y2902D01*
X66Y2903D01*
X67Y2904D01*
X68Y2905D01*
X69Y2906D01*
X70Y2907D01*
X71Y2908D01*
X72Y2908D01*
X73Y2909D01*
X74Y2910D01*
X75Y2911D01*
X76Y2912D01*
X77Y2912D01*
X78Y2913D01*
X79Y2914D01*
X80Y2915D01*
X81Y2915D01*
X82Y2916D01*
X83Y2917D01*
X84Y2917D01*
X85Y2918D01*
X86Y2919D01*
X87Y2920D01*
X88Y2920D01*
X89Y2921D01*
X90Y2921D01*
X91Y2922D01*
X92Y2923D01*
X93Y2923D01*
X94Y2924D01*
X95Y2925D01*
X96Y2925D01*
X97Y2926D01*
X98Y2926D01*
X99Y2927D01*
X100Y2927D01*
X101Y2928D01*
X102Y2929D01*
X103Y2929D01*
X104Y2930D01*
X105Y2930D01*
X106Y2931D01*
X107Y2931D01*
X108Y2932D01*
X109Y2932D01*
X110Y2933D01*
X111Y2933D01*
X112Y2934D01*
X113Y2934D01*
X114Y2935D01*
X115Y2935D01*
X116Y2935D01*
X117Y2936D01*
X118Y2936D01*
X119Y2937D01*
X120Y2937D01*
X121Y2938D01*
X122Y2938D01*
X123Y2938D01*
X124Y2939D01*
X125Y2939D01*
X126Y2940D01*
X127Y2940D01*
X128Y2940D01*
X129Y2941D01*
X130Y2941D01*
X131Y2941D01*
X132Y2942D01*
X133Y2942D01*
X134Y2942D01*
X135Y2943D01*
X136Y2943D01*
X137Y2943D01*
X138Y2944D01*
X139Y2944D01*
X140Y2944D01*
X141Y2945D01*
X142Y2945D01*
X143Y2945D01*
X144Y2945D01*
X145Y2946D01*
X146Y2946D01*
X147Y2946D01*
X148Y2947D01*
X149Y2947D01*
X150Y2947D01*
X151Y2947D01*
X152Y2947D01*
X153Y2948D01*
X154Y2948D01*
X155Y2948D01*
X156Y2948D01*
X157Y2949D01*
X158Y2949D01*
X159Y2949D01*
X160Y2949D01*
X161Y2949D01*
X162Y2949D01*
X163Y2950D01*
X164Y2950D01*
X165Y2950D01*
X166Y2950D01*
X167Y2950D01*
X168Y2950D01*
X169Y2951D01*
X170Y2951D01*
X171Y2951D01*
X172Y2951D01*
X173Y2951D01*
X174Y2951D01*
X175Y2951D01*
X176Y2951D01*
X177Y2952D01*
X178Y2952D01*
X179Y2952D01*
X180Y2952D01*
X181Y2952D01*
X182Y2952D01*
X183Y2952D01*
X184Y2952D01*
X185Y2952D01*
X186Y2952D01*
X187Y2952D01*
X188Y2952D01*
X189Y2952D01*
X190Y2952D01*
X191Y2952D01*
X192Y2952D01*
X193Y2952D01*
X194Y2952D01*
X195Y2952D01*
X196Y2952D01*
X197Y2952D01*
X198Y2952D01*
X199Y2952D01*
X200Y2952D01*
X201Y2952D01*
X202Y2952D01*
X203Y2952D01*
X204Y2952D01*
X205Y2952D01*
X206Y2952D01*
X207Y2952D01*
X208Y2952D01*
X209Y2952D01*
X210Y2952D01*
X211Y2952D01*
X212Y2952D01*
X213Y2952D01*
X214Y2952D01*
X215Y2952D01*
X216Y2952D01*
X217Y2952D01*
X218Y2952D01*
X219Y2952D01*
X220Y2952D01*
X221Y2952D01*
X222Y2952D01*
X223Y2952D01*
X224Y2952D01*
X225Y2952D01*
X226Y2952D01*
X227Y2952D01*
X228Y2952D01*
X229Y2952D01*
X230Y2952D01*
X231Y2952D01*
X232Y2952D01*
X233Y2952D01*
X234Y2952D01*
X235Y2952D01*
X236Y2952D01*
X237Y2952D01*
X238Y2952D01*
X239Y2952D01*
X240Y2952D01*
X241Y2952D01*
X242Y2952D01*
X243Y2952D01*
X244Y2952D01*
X245Y2952D01*
X246Y2952D01*
X247Y2952D01*
X248Y2952D01*
X249Y2952D01*
X250Y2952D01*
X251Y2952D01*
X252Y2952D01*
X253Y2952D01*
X254Y2952D01*
X255Y2952D01*
X256Y2952D01*
X257Y2952D01*
X258Y2952D01*
X259Y2952D01*
X260Y2952D01*
X261Y2952D01*
X262Y2952D01*
X263Y2952D01*
X264Y2952D01*
X265Y2952D01*
X266Y2952D01*
X267Y2952D01*
X268Y2952D01*
X269Y2952D01*
X270Y2952D01*
X271Y2952D01*
X272Y2952D01*
X273Y2952D01*
X274Y2952D01*
X275Y2952D01*
X276Y2952D01*
X277Y2952D01*
X278Y2952D01*
X279Y2952D01*
X280Y2952D01*
X281Y2952D01*
X282Y2952D01*
X283Y2952D01*
X284Y2952D01*
X285Y2952D01*
X286Y2952D01*
X287Y2952D01*
X288Y2952D01*
X289Y2952D01*
X290Y2952D01*
X291Y2952D01*
X292Y2952D01*
X293Y2952D01*
X294Y2952D01*
X295Y2952D01*
X296Y2952D01*
X297Y2952D01*
X298Y2952D01*
X299Y2952D01*
X300Y2952D01*
X301Y2952D01*
X302Y2952D01*
X303Y2952D01*
X304Y2952D01*
X305Y2952D01*
X306Y2952D01*
X307Y2952D01*
X308Y2952D01*
X309Y2952D01*
X310Y2952D01*
X311Y2952D01*
X312Y2952D01*
X313Y2952D01*
X314Y2952D01*
X315Y2952D01*
X316Y2952D01*
X317Y2952D01*
X318Y2952D01*
X319Y2952D01*
X320Y2952D01*
X321Y2952D01*
X322Y2952D01*
X323Y2952D01*
X324Y2952D01*
X325Y2952D01*
X326Y2952D01*
X327Y2952D01*
X328Y2952D01*
X329Y2952D01*
X330Y2952D01*
X331Y2952D01*
X332Y2952D01*
X333Y2952D01*
X334Y2952D01*
X335Y2952D01*
X336Y2952D01*
X337Y2952D01*
X338Y2952D01*
X339Y2952D01*
X340Y2952D01*
X341Y2952D01*
X342Y2952D01*
X343Y2952D01*
X344Y2952D01*
X345Y2952D01*
X346Y2952D01*
X347Y2952D01*
X348Y2952D01*
X349Y2952D01*
X350Y2952D01*
X351Y2952D01*
X352Y2952D01*
X353Y2952D01*
X354Y2952D01*
X355Y2952D01*
X356Y2952D01*
X357Y2952D01*
X358Y2952D01*
X359Y2952D01*
X360Y2952D01*
X361Y2952D01*
X362Y2952D01*
X363Y2952D01*
X364Y2952D01*
X365Y2952D01*
X366Y2952D01*
X367Y2952D01*
X368Y2952D01*
X369Y2952D01*
X370Y2952D01*
X371Y2952D01*
X372Y2952D01*
X373Y2952D01*
X374Y2952D01*
X375Y2952D01*
X376Y2952D01*
X377Y2952D01*
X378Y2952D01*
X379Y2952D01*
X380Y2952D01*
X381Y2952D01*
X382Y2952D01*
X383Y2952D01*
X384Y2952D01*
X385Y2952D01*
X386Y2952D01*
X387Y2952D01*
X388Y2952D01*
X389Y2952D01*
X390Y2952D01*
X391Y2952D01*
X392Y2952D01*
X393Y2952D01*
X394Y2952D01*
X395Y2952D01*
X396Y2952D01*
X397Y2952D01*
X398Y2952D01*
X399Y2952D01*
X400Y2952D01*
X401Y2952D01*
X402Y2952D01*
X403Y2952D01*
X404Y2952D01*
X405Y2952D01*
X406Y2952D01*
X407Y2952D01*
X408Y2952D01*
X409Y2952D01*
X410Y2952D01*
X411Y2952D01*
X412Y2952D01*
X413Y2952D01*
X414Y2952D01*
X415Y2952D01*
X416Y2952D01*
X417Y2952D01*
X418Y2952D01*
X419Y2952D01*
X420Y2952D01*
X421Y2952D01*
X422Y2952D01*
X423Y2952D01*
X424Y2952D01*
X425Y2952D01*
X426Y2952D01*
X427Y2952D01*
X428Y2952D01*
X429Y2952D01*
X430Y2952D01*
X431Y2952D01*
X432Y2952D01*
X433Y2952D01*
X434Y2952D01*
X435Y2952D01*
X436Y2952D01*
X437Y2952D01*
X438Y2952D01*
X439Y2952D01*
X440Y2952D01*
X441Y2952D01*
X442Y2952D01*
X443Y2952D01*
X444Y2952D01*
X445Y2952D01*
X446Y2952D01*
X447Y2952D01*
X448Y2952D01*
X449Y2952D01*
X450Y2952D01*
X451Y2952D01*
X452Y2952D01*
X453Y2952D01*
X454Y2952D01*
X455Y2952D01*
X456Y2952D01*
X457Y2952D01*
X458Y2952D01*
X459Y2952D01*
X460Y2952D01*
X461Y2952D01*
X462Y2952D01*
X463Y2952D01*
X464Y2952D01*
X465Y2952D01*
X465Y2928D01*
X466Y2927D01*
X466Y2924D01*
X467Y2923D01*
X467Y2922D01*
X468Y2921D01*
X468Y2920D01*
X469Y2919D01*
X469Y2918D01*
X470Y2917D01*
X470Y2916D01*
X471Y2915D01*
X471Y2914D01*
X472Y2913D01*
X473Y2912D01*
X474Y2911D01*
X474Y2910D01*
X475Y2909D01*
X476Y2908D01*
X477Y2907D01*
X478Y2906D01*
X479Y2905D01*
X480Y2905D01*
X481Y2904D01*
X482Y2903D01*
X483Y2903D01*
X484Y2902D01*
X485Y2901D01*
X486Y2901D01*
X487Y2900D01*
X488Y2900D01*
X489Y2899D01*
X490Y2899D01*
X491Y2899D01*
X492Y2898D01*
X493Y2898D01*
X494Y2898D01*
X495Y2897D01*
X496Y2897D01*
X497Y2897D01*
X498Y2897D01*
X499Y2897D01*
X500Y2896D01*
X501Y2896D01*
X502Y2896D01*
X503Y2896D01*
X504Y2896D01*
X505Y2896D01*
X506Y2896D01*
X507Y2896D01*
X508Y2896D01*
X509Y2896D01*
X510Y2896D01*
X511Y2896D01*
X512Y2896D01*
X513Y2896D01*
X514Y2896D01*
X515Y2896D01*
X516Y2896D01*
X517Y2896D01*
X518Y2896D01*
X519Y2896D01*
X520Y2896D01*
X521Y2896D01*
X522Y2896D01*
X523Y2896D01*
X524Y2896D01*
X525Y2896D01*
X526Y2896D01*
X527Y2896D01*
X528Y2896D01*
X529Y2896D01*
X530Y2896D01*
X531Y2896D01*
X532Y2896D01*
X533Y2896D01*
X534Y2896D01*
X535Y2896D01*
X536Y2896D01*
X537Y2896D01*
X538Y2896D01*
X539Y2896D01*
X540Y2896D01*
X541Y2896D01*
X542Y2896D01*
X543Y2896D01*
X544Y2896D01*
X545Y2896D01*
X546Y2896D01*
X547Y2896D01*
X548Y2896D01*
X549Y2896D01*
X550Y2896D01*
X551Y2896D01*
X552Y2896D01*
X553Y2896D01*
X554Y2896D01*
X555Y2896D01*
X556Y2896D01*
X557Y2896D01*
X558Y2896D01*
X559Y2896D01*
X560Y2896D01*
X561Y2896D01*
X562Y2896D01*
X563Y2896D01*
X564Y2896D01*
X565Y2896D01*
X566Y2896D01*
X567Y2896D01*
X568Y2896D01*
X569Y2896D01*
X570Y2896D01*
X571Y2896D01*
X572Y2896D01*
X573Y2896D01*
X574Y2896D01*
X575Y2896D01*
X576Y2896D01*
X577Y2896D01*
X578Y2896D01*
X579Y2896D01*
X580Y2896D01*
X581Y2896D01*
X582Y2896D01*
X583Y2896D01*
X584Y2896D01*
X585Y2896D01*
X586Y2896D01*
X587Y2896D01*
X588Y2896D01*
X589Y2896D01*
X590Y2896D01*
X591Y2896D01*
X592Y2896D01*
X593Y2896D01*
X594Y2896D01*
X595Y2896D01*
X596Y2896D01*
X597Y2896D01*
X598Y2896D01*
X599Y2896D01*
X600Y2896D01*
X601Y2896D01*
X602Y2896D01*
X603Y2896D01*
X604Y2896D01*
X605Y2896D01*
X606Y2896D01*
X607Y2896D01*
X608Y2896D01*
X609Y2896D01*
X610Y2896D01*
X611Y2896D01*
X612Y2896D01*
X613Y2896D01*
X614Y2896D01*
X615Y2896D01*
X616Y2896D01*
X617Y2896D01*
X618Y2896D01*
X619Y2896D01*
X620Y2896D01*
X621Y2896D01*
X622Y2896D01*
X623Y2896D01*
X624Y2896D01*
X625Y2896D01*
X626Y2896D01*
X627Y2896D01*
X628Y2896D01*
X629Y2896D01*
X630Y2896D01*
X631Y2896D01*
X632Y2896D01*
X633Y2896D01*
X634Y2896D01*
X635Y2896D01*
X636Y2896D01*
X637Y2896D01*
X638Y2896D01*
X639Y2896D01*
X640Y2897D01*
X641Y2897D01*
X642Y2897D01*
X643Y2897D01*
X644Y2897D01*
X645Y2898D01*
X646Y2898D01*
X647Y2898D01*
X648Y2899D01*
X649Y2899D01*
X650Y2900D01*
X651Y2900D01*
X652Y2900D01*
X653Y2901D01*
X654Y2902D01*
X655Y2902D01*
X656Y2903D01*
X657Y2904D01*
X658Y2904D01*
X659Y2905D01*
X660Y2906D01*
X661Y2907D01*
X662Y2908D01*
X663Y2909D01*
X664Y2910D01*
X665Y2911D01*
X666Y2912D01*
X667Y2913D01*
X667Y2914D01*
X668Y2915D01*
X668Y2916D01*
X669Y2917D01*
X670Y2918D01*
X670Y2919D01*
X671Y2920D01*
X671Y2922D01*
X672Y2923D01*
X672Y2925D01*
X673Y2926D01*
X673Y2930D01*
X674Y2931D01*
X674Y2952D01*
X675Y2952D01*
X676Y2952D01*
X677Y2952D01*
X678Y2952D01*
X679Y2952D01*
X680Y2952D01*
X681Y2952D01*
X682Y2952D01*
X683Y2952D01*
X684Y2952D01*
X685Y2952D01*
X686Y2952D01*
X687Y2952D01*
X688Y2952D01*
X689Y2952D01*
X690Y2952D01*
X691Y2952D01*
X692Y2952D01*
X693Y2952D01*
X694Y2952D01*
X695Y2952D01*
X696Y2952D01*
X697Y2952D01*
X698Y2952D01*
X699Y2952D01*
X700Y2952D01*
X701Y2952D01*
X702Y2952D01*
X703Y2952D01*
X704Y2952D01*
X705Y2952D01*
X706Y2952D01*
X707Y2952D01*
X708Y2952D01*
X709Y2952D01*
X710Y2952D01*
X711Y2952D01*
X712Y2952D01*
X713Y2952D01*
X714Y2952D01*
X715Y2952D01*
X716Y2952D01*
X717Y2952D01*
X718Y2952D01*
X719Y2952D01*
X720Y2952D01*
X721Y2952D01*
X722Y2952D01*
X723Y2952D01*
X724Y2952D01*
X725Y2952D01*
X726Y2952D01*
X727Y2952D01*
X728Y2952D01*
X729Y2952D01*
X730Y2952D01*
X731Y2952D01*
X732Y2952D01*
X733Y2952D01*
X734Y2952D01*
X735Y2952D01*
X736Y2952D01*
X737Y2952D01*
X738Y2952D01*
X739Y2952D01*
X740Y2952D01*
X741Y2952D01*
X742Y2952D01*
X743Y2952D01*
X744Y2952D01*
X745Y2952D01*
X746Y2952D01*
X747Y2952D01*
X748Y2952D01*
X749Y2952D01*
X750Y2952D01*
X751Y2952D01*
X752Y2952D01*
X753Y2952D01*
X754Y2952D01*
X755Y2952D01*
X756Y2952D01*
X757Y2952D01*
X758Y2952D01*
X759Y2952D01*
X760Y2952D01*
X761Y2952D01*
X762Y2952D01*
X763Y2952D01*
X764Y2952D01*
X765Y2952D01*
X766Y2952D01*
X767Y2952D01*
X768Y2952D01*
X769Y2952D01*
X770Y2952D01*
X771Y2952D01*
X772Y2952D01*
X773Y2952D01*
X774Y2952D01*
X775Y2952D01*
X776Y2952D01*
X777Y2952D01*
X778Y2952D01*
X779Y2952D01*
X780Y2952D01*
X781Y2952D01*
X782Y2952D01*
X783Y2952D01*
X784Y2952D01*
X785Y2952D01*
X786Y2952D01*
X787Y2952D01*
X788Y2952D01*
X789Y2952D01*
X790Y2952D01*
X791Y2952D01*
X792Y2952D01*
X793Y2952D01*
X794Y2952D01*
X795Y2952D01*
X796Y2952D01*
X797Y2952D01*
X798Y2952D01*
X799Y2952D01*
X800Y2952D01*
X801Y2952D01*
X802Y2952D01*
X803Y2952D01*
X804Y2952D01*
X805Y2952D01*
X806Y2952D01*
X807Y2952D01*
X808Y2952D01*
X809Y2952D01*
X810Y2952D01*
X811Y2952D01*
X812Y2952D01*
X813Y2952D01*
X814Y2952D01*
X815Y2952D01*
X816Y2952D01*
X817Y2952D01*
X818Y2952D01*
X819Y2952D01*
X820Y2952D01*
X821Y2952D01*
X822Y2952D01*
X823Y2952D01*
X824Y2952D01*
X825Y2952D01*
X826Y2952D01*
X827Y2952D01*
X828Y2952D01*
X829Y2952D01*
X830Y2952D01*
X831Y2952D01*
X832Y2952D01*
X833Y2952D01*
X834Y2952D01*
X835Y2952D01*
X836Y2952D01*
X837Y2952D01*
X838Y2952D01*
X839Y2952D01*
X840Y2952D01*
X841Y2952D01*
X842Y2952D01*
X843Y2952D01*
X844Y2952D01*
X845Y2952D01*
X846Y2952D01*
X847Y2952D01*
X848Y2952D01*
X849Y2952D01*
X850Y2952D01*
X851Y2952D01*
X852Y2952D01*
X853Y2952D01*
X854Y2952D01*
X855Y2952D01*
X856Y2952D01*
X857Y2952D01*
X858Y2952D01*
X859Y2952D01*
X860Y2952D01*
X861Y2952D01*
X862Y2952D01*
X863Y2952D01*
X864Y2952D01*
X865Y2952D01*
X866Y2952D01*
X867Y2952D01*
X868Y2952D01*
X869Y2952D01*
X870Y2952D01*
X871Y2952D01*
X872Y2952D01*
X873Y2952D01*
X874Y2952D01*
X875Y2952D01*
X876Y2952D01*
X877Y2952D01*
X878Y2952D01*
X879Y2952D01*
X880Y2952D01*
X881Y2952D01*
X882Y2952D01*
X883Y2952D01*
X884Y2952D01*
X885Y2952D01*
X886Y2952D01*
X887Y2952D01*
X888Y2952D01*
X889Y2952D01*
X890Y2952D01*
X891Y2952D01*
X892Y2952D01*
X893Y2952D01*
X894Y2952D01*
X895Y2952D01*
X896Y2952D01*
X897Y2952D01*
X898Y2952D01*
X899Y2952D01*
X900Y2952D01*
X901Y2952D01*
X902Y2952D01*
X903Y2952D01*
X904Y2952D01*
X905Y2952D01*
X906Y2952D01*
X907Y2952D01*
X908Y2952D01*
X909Y2952D01*
X910Y2952D01*
X911Y2952D01*
X912Y2952D01*
X913Y2952D01*
X914Y2952D01*
X915Y2952D01*
X916Y2952D01*
X917Y2952D01*
X918Y2952D01*
X919Y2952D01*
X920Y2952D01*
X921Y2952D01*
X922Y2952D01*
X923Y2952D01*
X924Y2952D01*
X925Y2952D01*
X926Y2952D01*
X927Y2952D01*
X928Y2952D01*
X929Y2952D01*
X930Y2952D01*
X931Y2952D01*
X932Y2952D01*
X933Y2952D01*
X934Y2952D01*
X935Y2952D01*
X936Y2952D01*
X937Y2952D01*
X938Y2952D01*
X939Y2952D01*
X940Y2952D01*
X941Y2952D01*
X942Y2952D01*
X943Y2952D01*
X944Y2952D01*
X945Y2952D01*
X946Y2952D01*
X947Y2952D01*
X948Y2952D01*
X949Y2952D01*
X950Y2952D01*
X951Y2952D01*
X952Y2952D01*
X953Y2952D01*
X954Y2952D01*
X955Y2952D01*
X956Y2952D01*
X957Y2952D01*
X958Y2952D01*
X959Y2952D01*
X960Y2952D01*
X961Y2952D01*
X962Y2952D01*
X963Y2952D01*
X964Y2952D01*
X965Y2952D01*
X966Y2952D01*
X967Y2952D01*
X968Y2952D01*
X969Y2952D01*
X970Y2952D01*
X971Y2952D01*
X972Y2952D01*
X973Y2952D01*
X974Y2952D01*
X975Y2952D01*
X976Y2952D01*
X977Y2952D01*
X978Y2952D01*
X979Y2952D01*
X980Y2952D01*
X981Y2952D01*
X982Y2952D01*
X983Y2952D01*
X984Y2952D01*
X985Y2952D01*
X986Y2952D01*
X987Y2952D01*
X988Y2952D01*
X989Y2952D01*
X990Y2952D01*
X991Y2952D01*
X992Y2952D01*
X993Y2952D01*
X994Y2952D01*
X995Y2952D01*
X996Y2952D01*
X997Y2952D01*
X998Y2952D01*
X999Y2952D01*
X1000Y2952D01*
X1001Y2952D01*
X1002Y2952D01*
X1003Y2952D01*
X1004Y2952D01*
X1005Y2952D01*
X1006Y2952D01*
X1007Y2952D01*
X1008Y2952D01*
X1009Y2952D01*
X1010Y2952D01*
X1011Y2952D01*
X1012Y2952D01*
X1013Y2952D01*
X1014Y2952D01*
X1015Y2952D01*
X1016Y2952D01*
X1017Y2952D01*
X1018Y2952D01*
X1019Y2952D01*
X1020Y2952D01*
X1021Y2952D01*
X1022Y2952D01*
X1023Y2952D01*
X1024Y2952D01*
X1025Y2952D01*
X1026Y2952D01*
X1027Y2952D01*
X1028Y2952D01*
X1029Y2952D01*
X1030Y2952D01*
X1031Y2952D01*
X1032Y2952D01*
X1033Y2952D01*
X1034Y2952D01*
X1035Y2952D01*
X1036Y2952D01*
X1037Y2952D01*
X1038Y2952D01*
X1039Y2952D01*
X1040Y2952D01*
X1041Y2952D01*
X1042Y2952D01*
X1043Y2952D01*
X1044Y2952D01*
X1045Y2952D01*
X1046Y2952D01*
X1047Y2952D01*
X1048Y2952D01*
X1049Y2952D01*
X1050Y2952D01*
X1051Y2952D01*
X1052Y2952D01*
X1053Y2952D01*
X1054Y2952D01*
X1055Y2952D01*
X1056Y2952D01*
X1057Y2952D01*
X1058Y2952D01*
X1059Y2952D01*
X1060Y2952D01*
X1061Y2952D01*
X1062Y2952D01*
X1063Y2952D01*
X1064Y2952D01*
X1065Y2952D01*
X1066Y2952D01*
X1067Y2952D01*
X1068Y2952D01*
X1069Y2952D01*
X1070Y2952D01*
X1071Y2952D01*
X1072Y2952D01*
X1073Y2952D01*
X1074Y2952D01*
X1075Y2952D01*
X1076Y2952D01*
X1077Y2952D01*
X1078Y2952D01*
X1079Y2952D01*
X1080Y2952D01*
X1081Y2952D01*
X1082Y2952D01*
X1083Y2952D01*
X1084Y2952D01*
X1085Y2952D01*
X1086Y2952D01*
X1087Y2952D01*
X1088Y2952D01*
X1089Y2952D01*
X1090Y2952D01*
X1091Y2952D01*
X1092Y2952D01*
X1093Y2952D01*
X1094Y2952D01*
X1095Y2952D01*
X1096Y2952D01*
X1097Y2952D01*
X1098Y2952D01*
X1099Y2952D01*
X1100Y2952D01*
X1101Y2952D01*
X1102Y2952D01*
X1103Y2952D01*
X1104Y2952D01*
X1105Y2952D01*
X1106Y2952D01*
X1107Y2952D01*
X1108Y2952D01*
X1109Y2952D01*
X1110Y2952D01*
X1111Y2952D01*
X1112Y2952D01*
X1113Y2952D01*
X1114Y2952D01*
X1115Y2952D01*
X1116Y2952D01*
X1117Y2952D01*
X1118Y2952D01*
X1119Y2952D01*
X1120Y2952D01*
X1121Y2952D01*
X1122Y2952D01*
X1123Y2952D01*
X1124Y2952D01*
X1125Y2952D01*
X1126Y2952D01*
X1127Y2952D01*
X1128Y2952D01*
X1129Y2952D01*
X1130Y2952D01*
X1131Y2952D01*
X1132Y2952D01*
X1133Y2952D01*
X1134Y2952D01*
X1135Y2952D01*
X1136Y2952D01*
X1137Y2952D01*
X1138Y2952D01*
X1139Y2952D01*
X1140Y2952D01*
X1141Y2952D01*
X1142Y2952D01*
X1143Y2952D01*
X1144Y2952D01*
X1145Y2952D01*
X1146Y2952D01*
X1147Y2952D01*
X1148Y2952D01*
X1149Y2952D01*
X1150Y2952D01*
X1151Y2952D01*
X1152Y2952D01*
X1153Y2952D01*
X1154Y2952D01*
X1155Y2952D01*
X1156Y2952D01*
X1157Y2952D01*
X1158Y2952D01*
X1159Y2952D01*
X1160Y2952D01*
X1161Y2952D01*
X1162Y2952D01*
X1163Y2952D01*
X1164Y2952D01*
X1165Y2952D01*
X1166Y2952D01*
X1167Y2952D01*
X1168Y2952D01*
X1169Y2952D01*
X1170Y2952D01*
X1171Y2952D01*
X1172Y2952D01*
X1173Y2952D01*
X1174Y2952D01*
X1175Y2952D01*
X1176Y2952D01*
X1177Y2952D01*
X1178Y2952D01*
X1179Y2952D01*
X1180Y2952D01*
X1181Y2952D01*
X1182Y2952D01*
X1183Y2952D01*
X1184Y2952D01*
X1185Y2952D01*
X1186Y2952D01*
X1187Y2952D01*
X1188Y2952D01*
X1189Y2952D01*
X1190Y2952D01*
X1191Y2952D01*
X1192Y2952D01*
X1193Y2952D01*
X1194Y2952D01*
X1195Y2952D01*
X1196Y2952D01*
X1197Y2952D01*
X1198Y2952D01*
X1199Y2952D01*
X1200Y2952D01*
X1201Y2952D01*
X1202Y2952D01*
X1203Y2952D01*
X1204Y2952D01*
X1205Y2952D01*
X1206Y2952D01*
X1207Y2952D01*
X1208Y2952D01*
X1209Y2952D01*
X1210Y2952D01*
X1211Y2952D01*
X1212Y2952D01*
X1213Y2952D01*
X1214Y2952D01*
X1215Y2952D01*
X1216Y2952D01*
X1217Y2952D01*
X1218Y2952D01*
X1219Y2952D01*
X1220Y2952D01*
X1221Y2952D01*
X1222Y2952D01*
X1223Y2952D01*
X1224Y2952D01*
X1225Y2952D01*
X1226Y2952D01*
X1227Y2952D01*
X1228Y2952D01*
X1229Y2952D01*
X1230Y2952D01*
X1231Y2952D01*
X1232Y2952D01*
X1233Y2952D01*
X1234Y2952D01*
X1235Y2952D01*
X1236Y2952D01*
X1237Y2952D01*
X1238Y2952D01*
X1239Y2952D01*
X1240Y2952D01*
X1241Y2952D01*
X1242Y2952D01*
X1243Y2952D01*
X1244Y2952D01*
X1245Y2952D01*
X1246Y2952D01*
X1247Y2952D01*
X1248Y2952D01*
X1249Y2952D01*
X1250Y2952D01*
X1251Y2952D01*
X1252Y2952D01*
X1253Y2952D01*
X1254Y2952D01*
X1255Y2952D01*
X1256Y2952D01*
X1257Y2952D01*
X1258Y2952D01*
X1259Y2952D01*
X1260Y2952D01*
X1261Y2952D01*
X1262Y2952D01*
X1263Y2952D01*
X1264Y2952D01*
X1265Y2952D01*
X1266Y2952D01*
X1267Y2952D01*
X1268Y2952D01*
X1269Y2952D01*
X1270Y2952D01*
X1271Y2952D01*
X1272Y2952D01*
X1273Y2952D01*
X1274Y2952D01*
X1275Y2952D01*
X1276Y2952D01*
X1277Y2952D01*
X1278Y2952D01*
X1279Y2952D01*
X1280Y2952D01*
X1281Y2952D01*
X1282Y2952D01*
X1283Y2952D01*
X1284Y2952D01*
X1285Y2952D01*
X1286Y2952D01*
X1287Y2952D01*
X1288Y2952D01*
X1289Y2952D01*
X1290Y2952D01*
X1291Y2952D01*
X1292Y2952D01*
X1293Y2952D01*
X1294Y2952D01*
X1295Y2952D01*
X1296Y2952D01*
X1297Y2952D01*
X1298Y2952D01*
X1299Y2952D01*
X1300Y2952D01*
X1301Y2952D01*
X1302Y2952D01*
X1303Y2952D01*
X1304Y2952D01*
X1305Y2952D01*
X1306Y2952D01*
X1307Y2952D01*
X1308Y2952D01*
X1309Y2952D01*
X1310Y2952D01*
X1311Y2952D01*
X1312Y2952D01*
X1313Y2952D01*
X1314Y2952D01*
X1315Y2952D01*
X1316Y2952D01*
X1317Y2952D01*
X1318Y2952D01*
X1319Y2952D01*
X1320Y2952D01*
X1321Y2952D01*
X1322Y2952D01*
X1323Y2952D01*
X1324Y2952D01*
X1325Y2952D01*
X1326Y2952D01*
X1327Y2952D01*
X1328Y2952D01*
X1329Y2952D01*
X1330Y2952D01*
X1331Y2952D01*
X1332Y2952D01*
X1333Y2952D01*
X1334Y2952D01*
X1335Y2952D01*
X1336Y2952D01*
X1337Y2952D01*
X1338Y2952D01*
X1339Y2952D01*
X1340Y2952D01*
X1341Y2952D01*
X1342Y2952D01*
X1343Y2952D01*
X1344Y2952D01*
X1345Y2952D01*
X1346Y2952D01*
X1347Y2952D01*
X1348Y2952D01*
X1349Y2952D01*
X1350Y2952D01*
X1351Y2952D01*
X1352Y2952D01*
X1353Y2952D01*
X1354Y2952D01*
X1355Y2952D01*
X1356Y2952D01*
X1357Y2952D01*
X1358Y2952D01*
X1359Y2952D01*
X1360Y2952D01*
X1361Y2952D01*
X1362Y2952D01*
X1363Y2952D01*
X1364Y2952D01*
X1365Y2952D01*
X1366Y2952D01*
X1367Y2952D01*
X1368Y2952D01*
X1369Y2952D01*
X1370Y2952D01*
X1371Y2952D01*
X1372Y2952D01*
X1373Y2952D01*
X1374Y2952D01*
X1375Y2952D01*
X1376Y2952D01*
X1377Y2952D01*
X1378Y2952D01*
X1379Y2952D01*
X1380Y2952D01*
X1381Y2952D01*
X1382Y2952D01*
X1383Y2952D01*
X1384Y2952D01*
X1385Y2952D01*
X1386Y2952D01*
X1387Y2952D01*
X1388Y2952D01*
X1389Y2952D01*
X1390Y2952D01*
X1391Y2952D01*
X1392Y2952D01*
X1393Y2952D01*
X1394Y2952D01*
X1395Y2952D01*
X1396Y2952D01*
X1397Y2952D01*
X1398Y2952D01*
X1399Y2952D01*
X1400Y2952D01*
X1401Y2952D01*
X1402Y2952D01*
X1403Y2952D01*
X1404Y2952D01*
X1405Y2952D01*
X1406Y2952D01*
X1407Y2952D01*
X1408Y2952D01*
X1409Y2952D01*
X1410Y2952D01*
X1411Y2952D01*
X1412Y2952D01*
X1413Y2952D01*
X1414Y2952D01*
X1415Y2952D01*
X1416Y2952D01*
X1417Y2952D01*
X1418Y2952D01*
X1419Y2952D01*
X1420Y2952D01*
X1421Y2952D01*
X1422Y2952D01*
X1423Y2952D01*
X1424Y2952D01*
X1425Y2952D01*
X1426Y2952D01*
X1427Y2952D01*
X1428Y2952D01*
X1429Y2952D01*
X1430Y2952D01*
X1431Y2952D01*
X1432Y2952D01*
X1433Y2952D01*
X1434Y2952D01*
X1435Y2952D01*
X1436Y2952D01*
X1437Y2952D01*
X1438Y2952D01*
X1439Y2952D01*
X1440Y2952D01*
X1441Y2952D01*
X1442Y2952D01*
X1443Y2952D01*
X1444Y2952D01*
X1445Y2952D01*
X1446Y2952D01*
X1447Y2952D01*
X1448Y2952D01*
X1449Y2952D01*
X1450Y2952D01*
X1451Y2952D01*
X1452Y2952D01*
X1453Y2952D01*
X1454Y2952D01*
X1455Y2952D01*
X1456Y2952D01*
X1457Y2952D01*
X1458Y2952D01*
X1459Y2952D01*
X1460Y2952D01*
X1461Y2952D01*
X1462Y2952D01*
X1463Y2952D01*
X1464Y2952D01*
X1465Y2952D01*
X1466Y2952D01*
X1467Y2952D01*
X1468Y2952D01*
X1469Y2952D01*
X1470Y2952D01*
X1471Y2952D01*
X1472Y2952D01*
X1473Y2952D01*
X1474Y2952D01*
X1475Y2952D01*
X1476Y2952D01*
X1477Y2952D01*
X1478Y2952D01*
X1479Y2952D01*
X1480Y2952D01*
X1481Y2952D01*
X1482Y2952D01*
X1483Y2952D01*
X1484Y2952D01*
X1485Y2952D01*
X1486Y2952D01*
X1487Y2952D01*
X1488Y2952D01*
X1489Y2952D01*
X1490Y2952D01*
X1491Y2952D01*
X1492Y2952D01*
X1493Y2952D01*
X1494Y2952D01*
X1495Y2952D01*
X1496Y2952D01*
X1497Y2952D01*
X1498Y2952D01*
X1499Y2952D01*
X1500Y2952D01*
X1501Y2952D01*
X1502Y2952D01*
X1503Y2952D01*
X1504Y2952D01*
X1505Y2952D01*
X1506Y2952D01*
X1507Y2952D01*
X1508Y2952D01*
X1509Y2952D01*
X1510Y2952D01*
X1511Y2952D01*
X1512Y2952D01*
X1513Y2952D01*
X1514Y2952D01*
X1515Y2952D01*
X1516Y2952D01*
X1517Y2952D01*
X1518Y2952D01*
X1519Y2952D01*
X1520Y2952D01*
X1521Y2952D01*
X1522Y2952D01*
X1523Y2952D01*
X1524Y2952D01*
X1525Y2952D01*
X1526Y2952D01*
X1527Y2952D01*
X1528Y2952D01*
X1529Y2952D01*
X1530Y2952D01*
X1531Y2952D01*
X1532Y2952D01*
X1533Y2952D01*
X1534Y2952D01*
X1535Y2952D01*
X1536Y2952D01*
X1537Y2952D01*
X1538Y2952D01*
X1539Y2952D01*
X1540Y2952D01*
X1541Y2952D01*
X1542Y2952D01*
X1543Y2952D01*
X1544Y2952D01*
X1545Y2952D01*
X1546Y2952D01*
X1547Y2952D01*
X1548Y2952D01*
X1549Y2952D01*
X1550Y2952D01*
X1551Y2952D01*
X1552Y2952D01*
X1553Y2952D01*
X1554Y2952D01*
X1555Y2952D01*
X1556Y2952D01*
X1557Y2952D01*
X1558Y2952D01*
X1559Y2952D01*
X1560Y2952D01*
X1561Y2952D01*
X1562Y2952D01*
X1563Y2952D01*
X1564Y2952D01*
X1565Y2952D01*
X1566Y2952D01*
X1567Y2952D01*
X1568Y2952D01*
X1569Y2952D01*
X1570Y2952D01*
X1571Y2952D01*
X1572Y2952D01*
X1573Y2952D01*
X1574Y2953D01*
X1574Y2977D01*
X1575Y2978D01*
X1575Y3098D01*
X1576Y3099D01*
X1576Y3108D01*
X1577Y3109D01*
X1577Y3115D01*
X1578Y3116D01*
X1578Y3121D01*
X1579Y3122D01*
X1579Y3125D01*
X1580Y3126D01*
X1580Y3129D01*
X1581Y3130D01*
X1581Y3133D01*
X1582Y3134D01*
X1582Y3136D01*
X1583Y3137D01*
X1583Y3139D01*
X1584Y3140D01*
X1584Y3142D01*
X1585Y3143D01*
X1585Y3145D01*
X1586Y3146D01*
X1586Y3148D01*
X1587Y3149D01*
X1587Y3150D01*
X1588Y3151D01*
X1588Y3152D01*
X1589Y3153D01*
X1589Y3155D01*
X1590Y3156D01*
X1590Y3157D01*
X1591Y3158D01*
X1591Y3159D01*
X1592Y3160D01*
X1592Y3161D01*
X1593Y3162D01*
X1593Y3163D01*
X1594Y3164D01*
X1594Y3165D01*
X1595Y3166D01*
X1595Y3167D01*
X1596Y3168D01*
X1597Y3169D01*
X1597Y3170D01*
X1598Y3171D01*
X1598Y3172D01*
X1599Y3173D01*
X1600Y3174D01*
X1600Y3175D01*
X1601Y3176D01*
X1602Y3177D01*
X1602Y3178D01*
X1603Y3179D01*
X1604Y3180D01*
X1604Y3181D01*
X1605Y3182D01*
X1606Y3183D01*
X1606Y3184D01*
X1607Y3185D01*
X1608Y3186D01*
X1609Y3187D01*
X1610Y3188D01*
X1610Y3189D01*
X1611Y3190D01*
X1612Y3191D01*
X1613Y3192D01*
X1614Y3193D01*
X1615Y3194D01*
X1615Y3195D01*
X1616Y3196D01*
X1617Y3197D01*
X1618Y3198D01*
X1619Y3199D01*
X1620Y3200D01*
X1621Y3201D01*
X1622Y3202D01*
X1623Y3203D01*
X1624Y3204D01*
X1625Y3205D01*
X1626Y3206D01*
X1627Y3207D01*
X1628Y3208D01*
X1629Y3208D01*
X1630Y3209D01*
X1631Y3210D01*
X1632Y3211D01*
X1633Y3212D01*
X1634Y3213D01*
X1635Y3213D01*
X1636Y3214D01*
X1637Y3215D01*
X1638Y3216D01*
X1639Y3216D01*
X1640Y3217D01*
X1641Y3218D01*
X1642Y3219D01*
X1643Y3219D01*
X1644Y3220D01*
X1645Y3221D01*
X1646Y3221D01*
X1647Y3222D01*
X1648Y3223D01*
X1649Y3223D01*
X1650Y3224D01*
X1651Y3225D01*
X1652Y3225D01*
X1653Y3226D01*
X1654Y3226D01*
X1655Y3227D01*
X1656Y3227D01*
X1657Y3228D01*
X1658Y3228D01*
X1659Y3229D01*
X1660Y3230D01*
X1661Y3230D01*
X1662Y3231D01*
X1663Y3231D01*
X1664Y3232D01*
X1665Y3232D01*
X1666Y3232D01*
X1667Y3233D01*
X1668Y3233D01*
X1669Y3234D01*
X1670Y3234D01*
X1671Y3235D01*
X1672Y3235D01*
X1673Y3235D01*
X1674Y3236D01*
X1675Y3236D01*
X1676Y3237D01*
X1677Y3237D01*
X1678Y3237D01*
X1679Y3238D01*
X1680Y3238D01*
X1681Y3238D01*
X1682Y3239D01*
X1683Y3239D01*
X1684Y3239D01*
X1685Y3240D01*
X1686Y3240D01*
X1687Y3240D01*
X1688Y3241D01*
X1689Y3241D01*
X1690Y3241D01*
X1691Y3242D01*
X1692Y3242D01*
X1693Y3242D01*
X1694Y3242D01*
X1695Y3243D01*
X1696Y3243D01*
X1697Y3243D01*
X1698Y3243D01*
X1699Y3243D01*
X1700Y3244D01*
X1701Y3244D01*
X1702Y3244D01*
X1703Y3244D01*
X1704Y3244D01*
X1705Y3245D01*
X1706Y3245D01*
X1707Y3245D01*
X1708Y3245D01*
X1709Y3245D01*
X1710Y3245D01*
X1711Y3246D01*
X1712Y3246D01*
X1713Y3246D01*
X1714Y3246D01*
X1715Y3246D01*
X1716Y3246D01*
X1717Y3246D01*
X1718Y3246D01*
X1719Y3246D01*
X1720Y3246D01*
X1721Y3247D01*
D02*
X1759Y3149D02*
X1760Y3149D01*
X1761Y3149D01*
X1762Y3149D01*
X1763Y3149D01*
X1764Y3149D01*
X1765Y3149D01*
X1766Y3149D01*
X1767Y3149D01*
X1768Y3149D01*
X1769Y3149D01*
X1770Y3149D01*
X1771Y3149D01*
X1772Y3149D01*
X1773Y3149D01*
X1774Y3149D01*
X1775Y3149D01*
X1776Y3149D01*
X1777Y3149D01*
X1778Y3149D01*
X1779Y3149D01*
X1780Y3149D01*
X1781Y3149D01*
X1782Y3149D01*
X1783Y3149D01*
X1784Y3149D01*
X1785Y3149D01*
X1786Y3149D01*
X1787Y3149D01*
X1788Y3149D01*
X1789Y3149D01*
X1790Y3149D01*
X1791Y3149D01*
X1792Y3149D01*
X1793Y3149D01*
X1794Y3149D01*
X1795Y3149D01*
X1796Y3149D01*
X1797Y3149D01*
X1798Y3149D01*
X1799Y3149D01*
X1800Y3149D01*
X1801Y3149D01*
X1802Y3149D01*
X1803Y3149D01*
X1804Y3149D01*
X1805Y3149D01*
X1806Y3149D01*
X1807Y3149D01*
X1808Y3149D01*
X1809Y3149D01*
X1810Y3149D01*
X1811Y3149D01*
X1812Y3149D01*
X1813Y3149D01*
X1814Y3149D01*
X1815Y3149D01*
X1816Y3149D01*
X1817Y3149D01*
X1818Y3149D01*
X1819Y3149D01*
X1820Y3149D01*
X1821Y3149D01*
X1822Y3149D01*
X1823Y3149D01*
X1824Y3149D01*
X1825Y3149D01*
X1826Y3149D01*
X1827Y3149D01*
X1828Y3149D01*
X1829Y3149D01*
X1830Y3149D01*
X1831Y3149D01*
X1832Y3149D01*
X1833Y3149D01*
X1834Y3149D01*
X1835Y3149D01*
X1836Y3149D01*
X1837Y3149D01*
X1838Y3149D01*
X1839Y3149D01*
X1840Y3149D01*
X1841Y3149D01*
X1842Y3149D01*
X1843Y3149D01*
X1844Y3149D01*
X1845Y3149D01*
X1846Y3149D01*
X1847Y3149D01*
X1848Y3149D01*
X1849Y3149D01*
X1850Y3149D01*
X1851Y3149D01*
X1852Y3149D01*
X1853Y3149D01*
X1854Y3149D01*
X1855Y3149D01*
X1856Y3149D01*
X1857Y3149D01*
X1858Y3149D01*
X1859Y3149D01*
X1860Y3149D01*
X1861Y3149D01*
X1862Y3149D01*
X1863Y3149D01*
X1864Y3149D01*
X1865Y3149D01*
X1866Y3149D01*
X1867Y3149D01*
X1868Y3149D01*
X1869Y3149D01*
X1870Y3149D01*
X1871Y3149D01*
X1872Y3149D01*
X1873Y3149D01*
X1874Y3149D01*
X1875Y3149D01*
X1876Y3149D01*
X1877Y3149D01*
X1878Y3149D01*
X1879Y3149D01*
X1880Y3149D01*
X1881Y3149D01*
X1882Y3149D01*
X1883Y3149D01*
X1884Y3149D01*
X1885Y3149D01*
X1886Y3149D01*
X1887Y3149D01*
X1888Y3149D01*
X1889Y3149D01*
X1890Y3149D01*
X1891Y3149D01*
X1892Y3149D01*
X1893Y3149D01*
X1894Y3149D01*
X1895Y3149D01*
X1896Y3149D01*
X1897Y3149D01*
X1898Y3149D01*
X1899Y3149D01*
X1900Y3149D01*
X1901Y3149D01*
X1902Y3149D01*
X1903Y3149D01*
X1904Y3149D01*
X1905Y3149D01*
X1906Y3149D01*
X1907Y3149D01*
X1908Y3149D01*
X1909Y3149D01*
X1910Y3149D01*
X1911Y3149D01*
X1912Y3149D01*
X1913Y3149D01*
X1914Y3149D01*
X1915Y3149D01*
X1916Y3149D01*
X1917Y3149D01*
X1918Y3149D01*
X1919Y3149D01*
X1920Y3149D01*
X1921Y3149D01*
X1922Y3149D01*
X1923Y3149D01*
X1924Y3149D01*
X1925Y3149D01*
X1926Y3149D01*
X1927Y3149D01*
X1928Y3149D01*
X1929Y3149D01*
X1930Y3149D01*
X1931Y3149D01*
X1932Y3149D01*
X1933Y3149D01*
X1934Y3149D01*
X1935Y3149D01*
X1936Y3149D01*
X1937Y3149D01*
X1938Y3149D01*
X1939Y3149D01*
X1940Y3149D01*
X1941Y3149D01*
X1942Y3149D01*
X1943Y3149D01*
X1944Y3149D01*
X1945Y3149D01*
X1946Y3149D01*
X1947Y3149D01*
X1948Y3149D01*
X1949Y3149D01*
X1950Y3149D01*
X1951Y3149D01*
X1952Y3149D01*
X1953Y3149D01*
X1954Y3149D01*
X1955Y3149D01*
X1956Y3149D01*
X1957Y3149D01*
X1958Y3149D01*
X1959Y3149D01*
X1960Y3149D01*
X1961Y3149D01*
X1962Y3149D01*
X1963Y3149D01*
X1964Y3149D01*
X1965Y3149D01*
X1966Y3149D01*
X1967Y3149D01*
X1968Y3149D01*
X1969Y3149D01*
X1970Y3149D01*
X1971Y3149D01*
X1972Y3149D01*
X1973Y3149D01*
X1974Y3149D01*
X1975Y3149D01*
X1976Y3149D01*
X1977Y3149D01*
X1978Y3149D01*
X1979Y3149D01*
X1980Y3149D01*
X1981Y3149D01*
X1982Y3149D01*
X1983Y3149D01*
X1984Y3149D01*
X1985Y3149D01*
X1986Y3149D01*
X1987Y3149D01*
X1988Y3149D01*
X1989Y3149D01*
X1990Y3149D01*
X1991Y3149D01*
X1992Y3149D01*
X1993Y3149D01*
X1994Y3149D01*
X1995Y3149D01*
X1996Y3149D01*
X1997Y3149D01*
X1998Y3149D01*
X1999Y3149D01*
X2000Y3149D01*
X2001Y3149D01*
X2002Y3149D01*
X2003Y3149D01*
X2004Y3149D01*
X2005Y3149D01*
X2006Y3149D01*
X2007Y3149D01*
X2008Y3149D01*
X2009Y3149D01*
X2010Y3149D01*
X2011Y3149D01*
X2012Y3149D01*
X2013Y3149D01*
X2014Y3149D01*
X2015Y3149D01*
X2016Y3149D01*
X2017Y3149D01*
X2018Y3149D01*
X2019Y3149D01*
X2020Y3149D01*
X2021Y3149D01*
X2022Y3149D01*
X2023Y3149D01*
X2024Y3149D01*
X2025Y3149D01*
X2026Y3149D01*
X2027Y3149D01*
X2028Y3149D01*
X2029Y3149D01*
X2030Y3149D01*
X2031Y3149D01*
X2032Y3149D01*
X2033Y3149D01*
X2034Y3149D01*
X2035Y3149D01*
X2036Y3149D01*
X2037Y3149D01*
X2038Y3149D01*
X2039Y3149D01*
X2040Y3149D01*
X2041Y3149D01*
X2042Y3149D01*
X2043Y3149D01*
X2044Y3149D01*
X2045Y3149D01*
X2046Y3149D01*
X2047Y3149D01*
X2048Y3149D01*
X2049Y3149D01*
X2050Y3149D01*
X2051Y3149D01*
X2052Y3149D01*
X2053Y3149D01*
X2054Y3149D01*
X2055Y3149D01*
X2056Y3149D01*
X2057Y3149D01*
X2058Y3149D01*
X2059Y3149D01*
X2060Y3149D01*
X2061Y3149D01*
X2062Y3149D01*
X2063Y3149D01*
X2064Y3149D01*
X2065Y3149D01*
X2066Y3149D01*
X2067Y3149D01*
X2068Y3149D01*
X2069Y3149D01*
X2070Y3149D01*
X2071Y3149D01*
X2072Y3149D01*
X2073Y3149D01*
X2074Y3149D01*
X2075Y3149D01*
X2076Y3149D01*
X2077Y3149D01*
X2078Y3149D01*
X2079Y3149D01*
X2080Y3149D01*
X2081Y3149D01*
X2082Y3149D01*
X2083Y3149D01*
X2084Y3149D01*
X2085Y3149D01*
X2086Y3149D01*
X2087Y3149D01*
X2088Y3149D01*
X2089Y3149D01*
X2090Y3149D01*
X2091Y3149D01*
X2092Y3149D01*
X2093Y3149D01*
X2094Y3149D01*
X2095Y3149D01*
X2096Y3149D01*
X2097Y3149D01*
X2098Y3149D01*
X2099Y3149D01*
X2100Y3149D01*
X2101Y3149D01*
X2102Y3149D01*
X2103Y3149D01*
X2104Y3149D01*
X2105Y3149D01*
X2106Y3149D01*
X2107Y3149D01*
X2108Y3149D01*
X2109Y3149D01*
X2110Y3149D01*
X2111Y3149D01*
X2112Y3149D01*
X2113Y3149D01*
X2114Y3149D01*
X2115Y3149D01*
X2116Y3149D01*
X2117Y3149D01*
X2118Y3149D01*
X2119Y3149D01*
X2120Y3149D01*
X2121Y3149D01*
X2122Y3149D01*
X2123Y3149D01*
X2124Y3149D01*
X2125Y3149D01*
X2126Y3149D01*
X2127Y3149D01*
X2128Y3149D01*
X2129Y3149D01*
X2130Y3149D01*
X2131Y3149D01*
X2132Y3149D01*
X2133Y3149D01*
X2134Y3149D01*
X2135Y3149D01*
X2136Y3149D01*
X2137Y3149D01*
X2138Y3149D01*
X2139Y3149D01*
X2140Y3149D01*
X2141Y3149D01*
X2142Y3149D01*
X2143Y3149D01*
X2144Y3149D01*
X2145Y3149D01*
X2146Y3149D01*
X2147Y3149D01*
X2148Y3149D01*
X2149Y3149D01*
X2150Y3149D01*
X2151Y3149D01*
X2152Y3149D01*
X2153Y3149D01*
X2154Y3149D01*
X2155Y3149D01*
X2156Y3149D01*
X2157Y3149D01*
X2158Y3149D01*
X2159Y3149D01*
X2160Y3149D01*
X2161Y3149D01*
X2162Y3149D01*
X2163Y3149D01*
X2164Y3149D01*
X2165Y3149D01*
X2166Y3149D01*
X2167Y3149D01*
X2168Y3149D01*
X2169Y3149D01*
X2170Y3149D01*
X2171Y3149D01*
X2172Y3149D01*
X2173Y3149D01*
X2174Y3149D01*
X2175Y3149D01*
X2176Y3149D01*
X2177Y3148D01*
X2178Y3148D01*
X2179Y3148D01*
X2180Y3148D01*
X2181Y3148D01*
X2182Y3148D01*
X2183Y3148D01*
X2184Y3147D01*
X2185Y3147D01*
X2186Y3147D01*
X2187Y3147D01*
X2188Y3146D01*
X2189Y3146D01*
X2190Y3146D01*
X2191Y3146D01*
X2192Y3145D01*
X2193Y3145D01*
X2194Y3145D01*
X2195Y3144D01*
X2196Y3144D01*
X2197Y3144D01*
X2198Y3143D01*
X2199Y3143D01*
X2200Y3143D01*
X2201Y3142D01*
X2202Y3142D01*
X2203Y3141D01*
X2204Y3141D01*
X2205Y3141D01*
X2206Y3140D01*
X2207Y3140D01*
X2208Y3139D01*
X2209Y3139D01*
X2210Y3138D01*
X2211Y3138D01*
X2212Y3137D01*
X2213Y3136D01*
X2214Y3136D01*
X2215Y3135D01*
X2216Y3135D01*
X2217Y3134D01*
X2218Y3133D01*
X2219Y3133D01*
X2220Y3132D01*
X2221Y3131D01*
X2222Y3131D01*
X2223Y3130D01*
X2224Y3129D01*
X2225Y3128D01*
X2226Y3128D01*
X2227Y3127D01*
X2228Y3126D01*
X2229Y3125D01*
X2230Y3124D01*
X2231Y3123D01*
X2232Y3122D01*
X2233Y3121D01*
X2234Y3121D01*
X2234Y3120D01*
X2235Y3119D01*
X2236Y3118D01*
X2237Y3117D01*
X2238Y3116D01*
X2239Y3115D01*
X2240Y3114D01*
X2241Y3113D01*
X2241Y3112D01*
X2242Y3111D01*
X2243Y3110D01*
X2244Y3109D01*
X2244Y3108D01*
X2245Y3107D01*
X2246Y3106D01*
X2246Y3105D01*
X2247Y3104D01*
X2248Y3103D01*
X2248Y3102D01*
X2249Y3101D01*
X2249Y3100D01*
X2250Y3099D01*
X2251Y3098D01*
X2251Y3097D01*
X2252Y3096D01*
X2252Y3095D01*
X2253Y3094D01*
X2253Y3093D01*
X2254Y3092D01*
X2254Y3090D01*
X2255Y3089D01*
X2255Y3088D01*
X2256Y3087D01*
X2256Y3085D01*
X2257Y3084D01*
X2257Y3082D01*
X2258Y3081D01*
X2258Y3079D01*
X2259Y3078D01*
X2259Y3075D01*
X2260Y3074D01*
X2260Y3071D01*
X2261Y3070D01*
X2261Y3064D01*
X2262Y3063D01*
X2262Y3039D01*
X2261Y3038D01*
X2261Y3033D01*
X2260Y3032D01*
X2260Y3028D01*
X2259Y3027D01*
X2259Y3025D01*
X2258Y3024D01*
X2258Y3021D01*
X2257Y3020D01*
X2257Y3019D01*
X2256Y3018D01*
X2256Y3016D01*
X2255Y3015D01*
X2255Y3013D01*
X2254Y3012D01*
X2254Y3011D01*
X2253Y3010D01*
X2253Y3009D01*
X2252Y3008D01*
X2252Y3007D01*
X2251Y3006D01*
X2251Y3005D01*
X2250Y3004D01*
X2250Y3003D01*
X2249Y3002D01*
X2248Y3001D01*
X2248Y3000D01*
X2247Y2999D01*
X2247Y2998D01*
X2246Y2997D01*
X2245Y2996D01*
X2245Y2995D01*
X2244Y2994D01*
X2243Y2993D01*
X2242Y2992D01*
X2242Y2991D01*
X2241Y2990D01*
X2240Y2989D01*
X2239Y2988D01*
X2238Y2987D01*
X2237Y2986D01*
X2237Y2985D01*
X2236Y2984D01*
X2235Y2983D01*
X2234Y2982D01*
X2233Y2981D01*
X2232Y2980D01*
X2231Y2979D01*
X2230Y2979D01*
X2229Y2978D01*
X2228Y2977D01*
X2227Y2976D01*
X2226Y2975D01*
X2225Y2974D01*
X2224Y2974D01*
X2223Y2973D01*
X2222Y2972D01*
X2221Y2971D01*
X2220Y2971D01*
X2219Y2970D01*
X2218Y2969D01*
X2217Y2969D01*
X2216Y2968D01*
X2215Y2968D01*
X2214Y2967D01*
X2213Y2966D01*
X2212Y2966D01*
X2211Y2965D01*
X2210Y2965D01*
X2209Y2964D01*
X2208Y2964D01*
X2207Y2963D01*
X2206Y2963D01*
X2205Y2962D01*
X2204Y2962D01*
X2203Y2961D01*
X2202Y2961D01*
X2201Y2961D01*
X2200Y2960D01*
X2199Y2960D01*
X2198Y2959D01*
X2197Y2959D01*
X2196Y2959D01*
X2195Y2958D01*
X2194Y2958D01*
X2193Y2958D01*
X2192Y2957D01*
X2191Y2957D01*
X2190Y2957D01*
X2189Y2957D01*
X2188Y2956D01*
X2187Y2956D01*
X2186Y2956D01*
X2185Y2956D01*
X2184Y2955D01*
X2183Y2955D01*
X2182Y2955D01*
X2181Y2955D01*
X2180Y2955D01*
X2179Y2955D01*
X2178Y2954D01*
X2177Y2954D01*
X2176Y2954D01*
X2175Y2954D01*
X2174Y2954D01*
X2173Y2954D01*
X2172Y2954D01*
X2171Y2954D01*
X2170Y2954D01*
X2169Y2954D01*
X2168Y2954D01*
X2167Y2954D01*
X2166Y2954D01*
X2165Y2953D01*
X2164Y2953D01*
X2163Y2953D01*
X2162Y2953D01*
X2161Y2953D01*
X2160Y2953D01*
X2159Y2953D01*
X2158Y2953D01*
X2157Y2953D01*
X2156Y2953D01*
X2155Y2953D01*
X2154Y2953D01*
X2153Y2953D01*
X2152Y2953D01*
X2151Y2953D01*
X2150Y2953D01*
X2149Y2953D01*
X2148Y2953D01*
X2147Y2953D01*
X2146Y2953D01*
X2145Y2953D01*
X2144Y2953D01*
X2143Y2953D01*
X2142Y2953D01*
X2141Y2953D01*
X2140Y2953D01*
X2139Y2953D01*
X2138Y2953D01*
X2137Y2953D01*
X2136Y2953D01*
X2135Y2953D01*
X2134Y2953D01*
X2133Y2953D01*
X2132Y2953D01*
X2131Y2953D01*
X2130Y2953D01*
X2129Y2953D01*
X2128Y2953D01*
X2127Y2953D01*
X2126Y2953D01*
X2125Y2953D01*
X2124Y2953D01*
X2123Y2953D01*
X2122Y2953D01*
X2121Y2953D01*
X2120Y2953D01*
X2119Y2953D01*
X2118Y2953D01*
X2117Y2953D01*
X2116Y2953D01*
X2115Y2953D01*
X2114Y2953D01*
X2113Y2953D01*
X2112Y2953D01*
X2111Y2953D01*
X2110Y2953D01*
X2109Y2953D01*
X2108Y2953D01*
X2107Y2953D01*
X2106Y2953D01*
X2105Y2953D01*
X2104Y2953D01*
X2103Y2953D01*
X2102Y2953D01*
X2101Y2953D01*
X2100Y2953D01*
X2099Y2953D01*
X2098Y2953D01*
X2097Y2953D01*
X2096Y2953D01*
X2095Y2953D01*
X2094Y2953D01*
X2093Y2953D01*
X2092Y2953D01*
X2091Y2953D01*
X2090Y2953D01*
X2089Y2953D01*
X2088Y2953D01*
X2087Y2953D01*
X2086Y2953D01*
X2085Y2953D01*
X2084Y2953D01*
X2083Y2953D01*
X2082Y2953D01*
X2081Y2953D01*
X2080Y2953D01*
X2079Y2953D01*
X2078Y2953D01*
X2077Y2953D01*
X2076Y2953D01*
X2075Y2953D01*
X2074Y2953D01*
X2073Y2953D01*
X2072Y2953D01*
X2071Y2953D01*
X2070Y2953D01*
X2069Y2953D01*
X2068Y2953D01*
X2067Y2953D01*
X2066Y2953D01*
X2065Y2953D01*
X2064Y2953D01*
X2063Y2953D01*
X2062Y2953D01*
X2061Y2953D01*
X2060Y2953D01*
X2059Y2953D01*
X2058Y2953D01*
X2057Y2953D01*
X2056Y2953D01*
X2055Y2953D01*
X2054Y2953D01*
X2053Y2953D01*
X2052Y2953D01*
X2051Y2953D01*
X2050Y2953D01*
X2049Y2953D01*
X2048Y2953D01*
X2047Y2953D01*
X2046Y2953D01*
X2045Y2953D01*
X2044Y2953D01*
X2043Y2953D01*
X2042Y2953D01*
X2041Y2953D01*
X2040Y2953D01*
X2039Y2953D01*
X2038Y2953D01*
X2037Y2953D01*
X2036Y2953D01*
X2035Y2953D01*
X2034Y2953D01*
X2033Y2953D01*
X2032Y2953D01*
X2031Y2953D01*
X2030Y2953D01*
X2029Y2953D01*
X2028Y2953D01*
X2027Y2953D01*
X2026Y2953D01*
X2025Y2953D01*
X2024Y2953D01*
X2023Y2953D01*
X2022Y2953D01*
X2021Y2953D01*
X2020Y2953D01*
X2019Y2953D01*
X2018Y2953D01*
X2017Y2953D01*
X2016Y2953D01*
X2015Y2953D01*
X2014Y2953D01*
X2013Y2953D01*
X2012Y2953D01*
X2011Y2953D01*
X2010Y2953D01*
X2009Y2953D01*
X2008Y2953D01*
X2007Y2953D01*
X2006Y2953D01*
X2005Y2953D01*
X2004Y2953D01*
X2003Y2953D01*
X2002Y2953D01*
X2001Y2953D01*
X2000Y2953D01*
X1999Y2953D01*
X1998Y2953D01*
X1997Y2953D01*
X1996Y2953D01*
X1995Y2953D01*
X1994Y2953D01*
X1993Y2953D01*
X1992Y2953D01*
X1991Y2953D01*
X1990Y2953D01*
X1989Y2953D01*
X1988Y2953D01*
X1987Y2953D01*
X1986Y2953D01*
X1985Y2953D01*
X1984Y2953D01*
X1983Y2953D01*
X1982Y2953D01*
X1981Y2953D01*
X1980Y2953D01*
X1979Y2953D01*
X1978Y2953D01*
X1977Y2953D01*
X1976Y2953D01*
X1975Y2953D01*
X1974Y2953D01*
X1973Y2953D01*
X1972Y2953D01*
X1971Y2953D01*
X1970Y2953D01*
X1969Y2953D01*
X1968Y2953D01*
X1967Y2953D01*
X1966Y2953D01*
X1965Y2953D01*
X1964Y2953D01*
X1963Y2953D01*
X1962Y2953D01*
X1961Y2953D01*
X1960Y2953D01*
X1959Y2953D01*
X1958Y2953D01*
X1957Y2953D01*
X1956Y2953D01*
X1955Y2953D01*
X1954Y2953D01*
X1953Y2953D01*
X1952Y2953D01*
X1951Y2953D01*
X1950Y2953D01*
X1949Y2953D01*
X1948Y2953D01*
X1947Y2953D01*
X1946Y2953D01*
X1945Y2953D01*
X1944Y2953D01*
X1943Y2953D01*
X1942Y2953D01*
X1941Y2953D01*
X1940Y2953D01*
X1939Y2953D01*
X1938Y2953D01*
X1937Y2953D01*
X1936Y2953D01*
X1935Y2953D01*
X1934Y2953D01*
X1933Y2953D01*
X1932Y2953D01*
X1931Y2953D01*
X1930Y2953D01*
X1929Y2953D01*
X1928Y2953D01*
X1927Y2953D01*
X1926Y2953D01*
X1925Y2953D01*
X1924Y2953D01*
X1923Y2953D01*
X1922Y2953D01*
X1921Y2953D01*
X1920Y2953D01*
X1919Y2953D01*
X1918Y2953D01*
X1917Y2953D01*
X1916Y2953D01*
X1915Y2953D01*
X1914Y2953D01*
X1913Y2953D01*
X1912Y2953D01*
X1911Y2953D01*
X1910Y2953D01*
X1909Y2953D01*
X1908Y2953D01*
X1907Y2953D01*
X1906Y2953D01*
X1905Y2953D01*
X1904Y2953D01*
X1903Y2953D01*
X1902Y2953D01*
X1901Y2953D01*
X1900Y2953D01*
X1899Y2953D01*
X1898Y2953D01*
X1897Y2953D01*
X1896Y2953D01*
X1895Y2953D01*
X1894Y2953D01*
X1893Y2953D01*
X1892Y2953D01*
X1891Y2953D01*
X1890Y2953D01*
X1889Y2953D01*
X1888Y2953D01*
X1887Y2953D01*
X1886Y2953D01*
X1885Y2953D01*
X1884Y2953D01*
X1883Y2953D01*
X1882Y2953D01*
X1881Y2953D01*
X1880Y2953D01*
X1879Y2953D01*
X1878Y2953D01*
X1877Y2953D01*
X1876Y2953D01*
X1875Y2953D01*
X1874Y2953D01*
X1873Y2953D01*
X1872Y2953D01*
X1871Y2953D01*
X1870Y2953D01*
X1869Y2953D01*
X1868Y2953D01*
X1867Y2953D01*
X1866Y2953D01*
X1865Y2953D01*
X1864Y2953D01*
X1863Y2953D01*
X1862Y2953D01*
X1861Y2953D01*
X1860Y2953D01*
X1859Y2953D01*
X1858Y2953D01*
X1857Y2953D01*
X1856Y2953D01*
X1855Y2953D01*
X1854Y2953D01*
X1853Y2953D01*
X1852Y2953D01*
X1851Y2953D01*
X1850Y2953D01*
X1849Y2953D01*
X1848Y2953D01*
X1847Y2953D01*
X1846Y2953D01*
X1845Y2953D01*
X1844Y2953D01*
X1843Y2953D01*
X1842Y2953D01*
X1841Y2953D01*
X1840Y2953D01*
X1839Y2953D01*
X1838Y2953D01*
X1837Y2953D01*
X1836Y2953D01*
X1835Y2953D01*
X1834Y2953D01*
X1833Y2953D01*
X1832Y2953D01*
X1831Y2953D01*
X1830Y2953D01*
X1829Y2953D01*
X1828Y2953D01*
X1827Y2953D01*
X1826Y2953D01*
X1825Y2953D01*
X1824Y2953D01*
X1823Y2953D01*
X1822Y2953D01*
X1821Y2953D01*
X1820Y2953D01*
X1819Y2953D01*
X1818Y2953D01*
X1817Y2953D01*
X1816Y2953D01*
X1815Y2953D01*
X1814Y2953D01*
X1813Y2953D01*
X1812Y2953D01*
X1811Y2953D01*
X1810Y2953D01*
X1809Y2953D01*
X1808Y2953D01*
X1807Y2953D01*
X1806Y2953D01*
X1805Y2953D01*
X1804Y2953D01*
X1803Y2953D01*
X1802Y2953D01*
X1801Y2953D01*
X1800Y2953D01*
X1799Y2953D01*
X1798Y2953D01*
X1797Y2953D01*
X1796Y2953D01*
X1795Y2953D01*
X1794Y2953D01*
X1793Y2953D01*
X1792Y2953D01*
X1791Y2953D01*
X1790Y2953D01*
X1789Y2953D01*
X1788Y2953D01*
X1787Y2953D01*
X1786Y2953D01*
X1785Y2953D01*
X1784Y2953D01*
X1783Y2953D01*
X1782Y2953D01*
X1781Y2953D01*
X1780Y2953D01*
X1779Y2953D01*
X1778Y2953D01*
X1777Y2953D01*
X1776Y2953D01*
X1775Y2953D01*
X1774Y2953D01*
X1773Y2953D01*
X1772Y2953D01*
X1771Y2953D01*
X1770Y2953D01*
X1769Y2954D01*
X1768Y2954D01*
X1767Y2954D01*
X1766Y2954D01*
X1765Y2954D01*
X1764Y2954D01*
X1763Y2954D01*
X1762Y2954D01*
X1761Y2954D01*
X1760Y2954D01*
X1759Y2954D01*
X1758Y2954D01*
X1757Y2954D01*
X1756Y2955D01*
X1755Y2955D01*
X1754Y2955D01*
X1753Y2955D01*
X1752Y2955D01*
X1751Y2955D01*
X1750Y2956D01*
X1749Y2956D01*
X1748Y2956D01*
X1747Y2956D01*
X1746Y2957D01*
X1745Y2957D01*
X1744Y2957D01*
X1743Y2957D01*
X1742Y2958D01*
X1741Y2958D01*
X1740Y2958D01*
X1739Y2959D01*
X1738Y2959D01*
X1737Y2959D01*
X1736Y2960D01*
X1735Y2960D01*
X1734Y2961D01*
X1733Y2961D01*
X1732Y2961D01*
X1731Y2962D01*
X1730Y2962D01*
X1729Y2963D01*
X1728Y2963D01*
X1727Y2964D01*
X1726Y2964D01*
X1725Y2965D01*
X1724Y2965D01*
X1723Y2966D01*
X1722Y2966D01*
X1721Y2967D01*
X1720Y2968D01*
X1719Y2968D01*
X1718Y2969D01*
X1717Y2969D01*
X1716Y2970D01*
X1715Y2971D01*
X1714Y2971D01*
X1713Y2972D01*
X1712Y2973D01*
X1711Y2974D01*
X1710Y2974D01*
X1709Y2975D01*
X1708Y2976D01*
X1707Y2977D01*
X1706Y2978D01*
X1705Y2979D01*
X1704Y2980D01*
X1703Y2980D01*
X1702Y2981D01*
X1701Y2982D01*
X1700Y2983D01*
X1699Y2984D01*
X1699Y2985D01*
X1698Y2986D01*
X1697Y2987D01*
X1696Y2988D01*
X1695Y2989D01*
X1694Y2990D01*
X1693Y2991D01*
X1693Y2992D01*
X1692Y2993D01*
X1691Y2994D01*
X1690Y2995D01*
X1690Y2996D01*
X1689Y2997D01*
X1688Y2998D01*
X1688Y2999D01*
X1687Y3000D01*
X1687Y3001D01*
X1686Y3002D01*
X1685Y3003D01*
X1685Y3004D01*
X1684Y3005D01*
X1684Y3006D01*
X1683Y3007D01*
X1683Y3008D01*
X1682Y3009D01*
X1682Y3010D01*
X1681Y3011D01*
X1681Y3012D01*
X1680Y3013D01*
X1680Y3015D01*
X1679Y3016D01*
X1679Y3018D01*
X1678Y3019D01*
X1678Y3021D01*
X1677Y3022D01*
X1677Y3024D01*
X1676Y3025D01*
X1676Y3028D01*
X1675Y3029D01*
X1675Y3032D01*
X1674Y3033D01*
X1674Y3039D01*
X1673Y3040D01*
X1673Y3063D01*
X1674Y3064D01*
X1674Y3069D01*
X1675Y3070D01*
X1675Y3074D01*
X1676Y3075D01*
X1676Y3078D01*
X1677Y3079D01*
X1677Y3081D01*
X1678Y3082D01*
X1678Y3084D01*
X1679Y3085D01*
X1679Y3087D01*
X1680Y3088D01*
X1680Y3089D01*
X1681Y3090D01*
X1681Y3091D01*
X1682Y3092D01*
X1682Y3093D01*
X1683Y3094D01*
X1683Y3096D01*
X1684Y3097D01*
X1684Y3098D01*
X1685Y3099D01*
X1686Y3100D01*
X1686Y3101D01*
X1687Y3102D01*
X1687Y3103D01*
X1688Y3104D01*
X1689Y3105D01*
X1689Y3106D01*
X1690Y3107D01*
X1691Y3108D01*
X1691Y3109D01*
X1692Y3110D01*
X1693Y3111D01*
X1694Y3112D01*
X1694Y3113D01*
X1695Y3114D01*
X1696Y3115D01*
X1697Y3116D01*
X1698Y3117D01*
X1699Y3118D01*
X1700Y3119D01*
X1701Y3120D01*
X1702Y3121D01*
X1703Y3122D01*
X1704Y3123D01*
X1705Y3124D01*
X1706Y3125D01*
X1707Y3126D01*
X1708Y3127D01*
X1709Y3128D01*
X1710Y3128D01*
X1711Y3129D01*
X1712Y3130D01*
X1713Y3131D01*
X1714Y3131D01*
X1715Y3132D01*
X1716Y3133D01*
X1717Y3133D01*
X1718Y3134D01*
X1719Y3135D01*
X1720Y3135D01*
X1721Y3136D01*
X1722Y3136D01*
X1723Y3137D01*
X1724Y3138D01*
X1725Y3138D01*
X1726Y3139D01*
X1727Y3139D01*
X1728Y3140D01*
X1729Y3140D01*
X1730Y3140D01*
X1731Y3141D01*
X1732Y3141D01*
X1733Y3142D01*
X1734Y3142D01*
X1735Y3143D01*
X1736Y3143D01*
X1737Y3143D01*
X1738Y3144D01*
X1739Y3144D01*
X1740Y3144D01*
X1741Y3145D01*
X1742Y3145D01*
X1743Y3145D01*
X1744Y3146D01*
X1745Y3146D01*
X1746Y3146D01*
X1747Y3146D01*
X1748Y3147D01*
X1749Y3147D01*
X1750Y3147D01*
X1751Y3147D01*
X1752Y3148D01*
X1753Y3148D01*
X1754Y3148D01*
X1755Y3148D01*
X1756Y3148D01*
X1757Y3148D01*
X1758Y3148D01*
X1759Y3149D01*
D02*
G04 End of contour*
M02*